<?xml version="1.0" encoding="UTF-8" standalone="no"?>
<!-- Created with Inkscape (http://www.inkscape.org/) -->

<svg
   version="1.1"
   id="svg1"
   width="210mm"
   height="148mm"
   viewBox="0 0 793.70079 559.37007"
   sodipodi:docname="badapple.svg"
   inkscape:version="1.3 (0e150ed6c4, 2023-07-21)"
   xmlns:inkscape="http://www.inkscape.org/namespaces/inkscape"
   xmlns:sodipodi="http://sodipodi.sourceforge.net/DTD/sodipodi-0.dtd"
   xmlns="http://www.w3.org/2000/svg"
   xmlns:svg="http://www.w3.org/2000/svg">
  <defs
     id="defs1" />
  <sodipodi:namedview
     id="namedview1"
     pagecolor="#ffffff"
     bordercolor="#666666"
     borderopacity="1.0"
     inkscape:showpageshadow="2"
     inkscape:pageopacity="0.0"
     inkscape:pagecheckerboard="0"
     inkscape:deskcolor="#d1d1d1"
     inkscape:zoom="1.4632651"
     inkscape:cx="440.45333"
     inkscape:cy="244.31663"
     inkscape:window-width="2560"
     inkscape:window-height="1371"
     inkscape:window-x="1920"
     inkscape:window-y="32"
     inkscape:window-maximized="1"
     inkscape:current-layer="g1"
     inkscape:document-units="mm" />
  <g
     inkscape:groupmode="layer"
     inkscape:label="Image"
     id="g1">
    <path
       style="fill:#000000"
       d="m 610.16605,408.09653 c -13.15042,-10.97844 -29.31391,-16.23841 -70.98372,-23.09969 -35.69588,-5.87764 -49.87866,-10.76758 -60.07189,-20.71163 l -2.22172,-2.16741 -3.40694,0.48094 c -3.58766,0.50647 -7.53342,0.90277 -14.49798,1.45615 -2.31636,0.18405 -4.24443,0.36751 -4.28461,0.40768 -0.20357,0.20357 1.04294,5.18651 2.45892,9.82959 5.29069,17.34844 5.8687,21.12856 3.99607,26.13361 -1.2685,3.39037 -5.37154,6.7719 -8.2168,6.7719 -4.06743,0 -8.75591,-6.34051 -13.81984,-18.6894 -0.65358,-1.59382 -1.22695,-2.85925 -1.27414,-2.81205 -0.0472,0.0472 -0.52435,1.84375 -1.06032,3.99233 -3.48849,13.98435 -6.83494,17.89993 -11.94111,13.9719 -3.70285,-2.8485 -4.95292,-8.83934 -4.95498,-23.74617 -5.9e-4,-4.25667 -0.0849,-7.73941 -0.18733,-7.73941 -0.10244,0 -0.55977,0.26534 -1.01628,0.58964 -3.64822,2.59161 -6.85592,2.34353 -10.06032,-0.77805 l -1.72539,-1.6808 -5.29063,0.62591 c -2.90985,0.34425 -8.46567,1.10967 -12.34627,1.70093 -24.50238,3.73325 -33.64216,3.61285 -38.33216,-0.50498 -2.4837,-2.1807 -3.10094,-6.31141 -1.71217,-11.45825 0.57201,-2.11992 0.62354,-2.65874 0.29244,-3.05769 -0.84247,-1.01512 -5.43799,-4.21182 -5.83553,-4.05927 -0.22918,0.0879 -1.05023,-0.0552 -1.82456,-0.31809 -1.33514,-0.45329 -1.44995,-0.44487 -2.22265,0.16293 -1.06319,0.8363 -1.54619,0.80848 -2.81909,-0.16241 l -1.05321,-0.80332 -0.95469,0.80332 c -1.24108,1.0443 -2.20718,1.01518 -3.48296,-0.10497 -0.84879,-0.74525 -1.39802,-0.9365 -3.05974,-1.06547 -11.72101,-0.90968 -16.71288,-1.25116 -30.48128,-2.08518 -8.77133,-0.53132 -20.59153,-1.31208 -26.2671,-1.73503 -5.67557,-0.42295 -11.37459,-0.83777 -12.66449,-0.92182 l -2.34528,-0.15282 1.82068,0.50286 c 1.90208,0.52533 1.91972,0.54587 3.52586,4.10751 0.0216,0.0479 4.94862,1.61734 10.94896,3.48772 11.31094,3.52576 11.74561,3.72832 10.6646,4.96968 -0.84534,0.97074 -1.16133,1.88064 -1.50087,4.32185 -0.69527,4.99883 -0.0535,4.90677 -11.5466,1.65638 -4.90015,-1.38583 -18.05595,-4.98584 -29.2351,-8.00001 -15.93409,-4.29623 -37.00401,-10.09082 -40.81343,-11.22439 -0.33163,-0.0987 -0.89701,0.62535 -1.87622,2.40273 -3.53592,6.41808 -5.18891,6.79937 -7.93318,1.82995 -1.33658,-2.42032 -1.36587,-2.36766 -0.34786,0.62541 1.21635,3.57622 0.94157,4.1693 -1.29208,2.78883 -0.91627,-0.56629 -1.05319,-0.5846 -1.05319,-0.14083 0,1.94954 -1.58828,2.84363 -3.39332,1.91021 -3.36465,-1.73993 -5.33867,-6.65251 -5.35619,-13.3295 l -0.006,-2.36087 -15.55701,-1.02102 c -8.55635,-0.56156 -16.58689,-1.1037 -17.84564,-1.20475 l -2.28865,-0.18374 -3.37426,-3.84361 c -3.62083,-4.12449 -5.50528,-7.24219 -6.46594,-10.6975 l -0.54415,-1.95722 1.07039,-0.93271 c 4.8838,-4.25555 7.46315,-4.51643 27.55342,-2.78681 6.07278,0.52282 12.37822,0.92787 14.0121,0.90012 4.51683,-0.0767 5.30552,-0.0276 7.50488,0.46769 3.78677,0.85271 6.75499,0.8717 7.7437,0.0495 2.42609,-2.01739 4.43666,-1.93604 3.40216,0.13767 -0.4457,0.89343 -0.43639,0.93414 0.21361,0.93444 2.12362,9.6e-4 27.60374,2.24523 67.28548,5.92646 29.32499,2.72044 61.78576,5.33056 66.29363,5.33056 h 1.68186 l 3.36052,-4.29968 c 1.84829,-2.36482 4.14975,-5.14397 5.11437,-6.17589 1.87607,-2.00698 3.67709,-4.96189 8.7673,-14.38437 4.74928,-8.79138 7.45951,-12.92319 11.62614,-17.72435 2.35798,-2.71708 2.90309,-7.76099 0.83875,-7.76099 -4.81768,0 -7.09808,-5.07961 -9.19505,-20.48209 -2.36038,-17.33726 -2.79477,-18.27587 -8.91229,-19.25755 -4.21079,-0.67571 -3.9428,-0.5722 -8.16903,-3.15494 -9.53307,-5.82584 -10.41167,-14.18358 -2.10367,-20.01131 1.01064,-0.70893 1.83754,-1.32285 1.83754,-1.36426 0,-0.0414 -0.21021,-0.47836 -0.46713,-0.97098 -1.06788,-2.04756 -0.0511,-2.73962 1.43085,-0.97386 l 0.85292,1.01629 1.82784,-1.32846 c 5.7592,-4.18579 8.53576,-4.05271 12.75655,0.61141 3.96754,4.38428 5.49023,10.47377 3.98044,15.91852 l -0.56966,2.05437 1.05522,1.22225 c 2.9954,3.4695 5.18191,7.58753 6.98921,13.16333 l 1.03249,3.1854 0.95628,-0.18145 c 0.52596,-0.0998 0.98656,-0.20325 1.02357,-0.22988 0.037,-0.0266 -0.28081,-0.9102 -0.70626,-1.96349 -0.42544,-1.05329 -0.86338,-2.57061 -0.9732,-3.37182 l -0.19967,-1.45674 2.48857,-2.55439 c 3.98408,-4.08945 4.79559,-5.12177 4.79559,-6.10048 0,-0.53923 0.50628,-1.59331 1.29288,-2.69179 l 1.29288,-1.80548 -0.21085,-2.52831 c -0.13872,-1.66327 -0.42058,-2.86764 -0.82383,-3.52011 -0.33713,-0.5455 -0.61297,-1.28351 -0.61297,-1.64003 0,-0.73768 -0.48407,-1.1668 -0.77861,-0.69023 -0.45825,0.74148 -1.09761,0.29983 -1.09761,-0.7582 0,-1.47159 -0.27874,-1.54452 -2.36932,-0.61997 -4.00332,1.77046 -5.47917,1.35837 -7.28775,-2.03488 -0.55537,-1.04197 -1.28167,-2.04001 -1.61402,-2.21788 -0.33234,-0.17786 -0.68367,-0.63976 -0.78071,-1.02643 -0.0971,-0.38667 -0.57649,-0.9719 -1.06543,-1.30051 -1.02592,-0.68952 -1.89254,-2.02212 -1.89254,-2.91017 0,-0.3782 -0.5101,-0.94516 -1.32899,-1.47714 -3.0816,-2.00192 -3.42116,-2.93138 -1.6417,-4.49377 1.36236,-1.19616 1.39255,-1.0557 -0.47375,-2.20405 -1.80271,-1.10922 -1.87152,-1.12745 -1.87152,-0.49587 0,0.65631 -0.73668,0.58453 -1.38808,-0.13527 -0.3008,-0.33237 -0.75425,-0.52475 -1.00768,-0.4275 -0.40946,0.15713 -0.81774,0.0274 -2.6075,-0.82848 -0.25798,-0.12337 -0.90451,-0.88114 -1.43672,-1.68393 -0.57758,-0.87121 -1.89655,-2.11195 -3.27188,-3.0778 -1.26732,-0.89 -5.40516,-4.0993 -9.1952,-7.13176 -8.02134,-6.41799 -9.10713,-7.18828 -12.40232,-8.79855 -2.80677,-1.3716 -6.35837,-4.55026 -9.07125,-8.11872 -1.03122,-1.35643 -1.96171,-2.25801 -2.45175,-2.37555 -4.43114,-1.06285 -6.89532,-5.32587 -4.75328,-8.22314 0.74092,-1.00214 0.38358,-2.50875 -0.59504,-2.50875 -0.76963,0 -0.16417,-2.93248 0.70589,-3.41888 1.50386,-0.84072 8.22804,0.92458 18.19112,4.77571 l 2.14302,0.82836 -2.55888,-2.70329 c -6.84683,-7.2332 -11.82674,-17.22957 -10.17474,-20.42419 2.15643,-4.17007 7.81468,-6.83653 17.06762,-8.04315 l 3.92949,-0.51242 0.95362,0.70504 c 1.5428,1.14065 2.36464,2.9228 2.38582,5.17361 l 0.0184,1.953 3.61636,0.18455 c 10.72141,0.54711 11.68809,3.79137 4.21118,14.13313 -3.07486,4.25301 -4.50301,6.98961 -4.50337,8.62928 l -2.4e-4,1.12441 2.2671,-0.45587 c 1.4195,-0.28543 4.38658,-0.47198 7.93617,-0.49899 l 5.66908,-0.0431 1.34147,-2.18893 c 8.23868,-13.44334 18.84802,-19.31127 35.73744,-19.76604 16.55579,-0.4458 26.01076,2.71734 39.02894,13.05704 3.08139,2.44741 6.89184,4.65438 10.07006,5.8325 0.71405,0.26469 5.09762,1.78535 9.74127,3.37924 9.1699,3.14749 9.41644,3.30595 7.11998,4.5763 -7.53332,4.16727 -14.49511,4.06578 -28.22748,-0.4115 -8.27124,-2.69674 -15.23828,-3.25987 -17.11479,-1.38336 -0.0583,0.0583 -0.44899,3.46655 -0.86813,7.57381 -0.41913,4.10726 -0.90665,8.22571 -1.08338,9.15212 -0.17672,0.9264 -0.32132,1.71894 -0.32132,1.76119 0,0.1937 5.78495,1.82948 12.16815,3.44072 16.61155,4.19307 23.97116,7.89853 31.46465,15.84202 2.5392,2.69169 2.35158,2.65146 13.77437,2.95317 9.0246,0.23837 9.68053,0.48754 4.75818,1.80749 -9.6896,2.59831 -6.47891,3.41648 5.69133,1.45031 7.79608,-1.2595 11.17137,-0.46219 5.23503,1.23662 -3.82792,1.09544 -3.59473,1.25303 3.48905,2.35783 7.24022,1.1292 7.25516,1.57489 0.0915,2.7286 -2.90115,0.46723 -6.08883,1.09733 -7.08373,1.40023 l -1.80891,0.55071 3.55646,1.05727 c 4.11338,1.22283 6.82314,2.50617 9.576,4.53521 2.66784,1.96637 2.58495,2.14103 -1.40716,2.96512 -1.84886,0.38167 -4.62802,0.96663 -6.1759,1.29993 -1.54788,0.3333 -3.51791,0.61262 -4.37785,0.62071 l -1.56352,0.0147 1.87622,1.07729 c 1.03193,0.59252 2.89642,1.39451 4.14333,1.7822 3.96726,1.23351 3.14499,1.61061 -3.12704,1.43409 -2.96677,-0.0835 -5.18306,-0.0939 -4.92508,-0.023 1.86442,0.51203 3.12704,1.14245 3.12704,1.56133 0,0.39346 -0.24673,0.4435 -1.32899,0.26954 -3.92737,-0.63127 -6.26724,-0.78358 -11.80456,-0.76841 l -6.09772,0.0167 2.82283,0.56574 c 6.85141,1.37313 6.7705,2.7507 -0.16485,2.8067 -4.16592,0.0336 -5.00326,0.24202 -5.00326,1.24509 0,1.07857 1.52605,3.48082 2.77715,4.37168 3.33276,2.37314 -3.0501,2.44721 -12.27366,0.14244 -3.90979,-0.97697 -4.0842,-0.80133 -0.60196,0.6062 4.75028,1.92008 5.40147,2.23809 5.40474,2.6394 0.007,0.8955 -9.7368,-1.05092 -15.94471,-3.18503 -1.2058,-0.41452 -1.32083,-0.4174 -0.80384,-0.0201 1.03531,0.79558 5.88483,3.17936 7.60515,3.7383 5.40748,1.75693 -7.0162,1.66465 -14.41002,-0.10704 -1.347,-0.32277 -2.33202,-0.48104 -2.18892,-0.35172 0.1431,0.12932 1.35073,1.03292 2.68363,2.00799 3.43854,2.51544 3.11418,3.09907 -0.88562,1.59355 -1.8245,-0.68674 -2.04671,-0.71481 -1.85675,-0.23453 0.46802,1.18337 0.56038,2.57814 0.17071,2.57814 -0.57567,0 -3.4489,-1.49466 -4.69376,-2.44171 l -1.08952,-0.82887 0.64453,1.08806 c 0.35449,0.59844 0.84127,1.40118 1.08172,1.78389 0.38555,0.61364 0.3719,0.74356 -0.11556,1.10001 -0.52101,0.38096 -0.50021,0.52059 0.36216,2.43121 0.5032,1.11486 2.3622,6.10781 4.13111,11.09543 3.79257,10.69355 2.95157,9.23737 5.59704,9.69115 l 2.18628,0.37501 0.52133,-1.59334 c 3.79817,-11.60844 11.45037,-16.99299 27.59202,-19.4154 6.69092,-1.00411 7.78781,-0.56491 9.40873,3.76741 1.697,4.53562 2.11436,17.55416 0.83154,25.93738 -0.26318,1.71987 -0.48297,3.23069 -0.48843,3.35737 -0.005,0.12668 0.51585,0.45001 1.15846,0.71851 0.6426,0.2685 1.47527,0.77649 1.85037,1.12888 0.66899,0.62848 1.19711,0.64887 27.67854,1.06844 14.84809,0.23525 27.17242,0.43273 27.38741,0.43883 0.21498,0.006 0.39088,0.32866 0.39088,0.71678 0,0.38812 0.76496,2.06354 1.69992,3.72314 3.5547,6.30978 3.6306,6.22254 -5.13966,5.90764 -3.86971,-0.13895 -7.06656,-0.22757 -7.10412,-0.19694 -0.0375,0.0306 1.54551,0.44928 3.51792,0.93034 3.90391,0.95215 4.12348,1.16592 2.51539,2.44902 -0.85334,0.68088 -1.14953,1.22062 -1.45861,2.65798 -0.9399,4.37095 2.37821,4.52952 -28.17573,-1.34655 -25.37745,-4.88054 -26.20591,-5.00615 -26.20807,-3.97367 -0.008,3.93322 -4.31635,4.46985 -10.94346,1.36313 -10.56727,-4.95381 -16.57329,-7.63154 -16.57329,-7.38904 0,0.41053 9.82177,6.10969 17.04235,9.88895 11.71427,6.13127 25.85841,8.12792 46.41595,6.55228 11.91489,-0.91322 12.44959,-0.76608 10.86026,2.9886 -1.05755,2.49838 -2.30544,2.57075 19.64887,-1.13952 38.1674,-6.45029 58.52445,-7.67223 82.83064,-4.97194 6.16017,0.68436 6.81411,0.89048 11.03256,3.47743 3.45773,2.12045 3.41973,2.20286 -2.00585,4.34989 l -4.45049,1.76116 7.16742,0.39798 c 3.94208,0.21888 7.84557,0.30437 8.67442,0.18997 1.0725,-0.14804 1.37176,-0.11551 1.03794,0.11281 -0.38722,0.26484 -0.39176,0.32165 -0.0261,0.3256 1.68953,0.0183 -4.4542,1.52974 -6.32464,1.55598 -1.76531,0.0248 -0.45988,0.58242 2.20573,0.94223 5.0354,0.67969 5.17518,1.14192 0.66711,2.20613 l -3.16515,0.74719 1.1326,0.9509 c 0.74083,0.62199 1.13424,1.2213 1.13736,1.73265 0.009,1.41524 0.42662,1.64255 4.11003,2.23516 6.01069,0.96704 8.61173,3.27278 5.35855,4.75019 l -1.81214,0.82297 2.97068,-0.17799 c 1.63388,-0.0979 4.72964,-0.37596 6.87948,-0.61793 4.85048,-0.54593 4.75766,-0.54663 4.63531,0.0349 -0.12532,0.59567 -4.50873,2.64592 -9.48222,4.43511 l -3.75244,1.34993 3.43974,-0.17411 c 4.72874,-0.23936 8.92359,-0.70209 11.81879,-1.30372 1.79841,-0.3737 2.52948,-0.41475 2.78771,-0.15652 0.38171,0.38171 0.0128,0.5649 -5.52331,2.74301 l -3.11225,1.22446 1.39238,0.22271 c 0.76581,0.12249 2.62365,0.38342 4.12854,0.57984 3.75888,0.49062 3.71522,1.32044 -0.13134,2.49609 l -1.97941,0.60498 8.6254,-0.18764 c 7.79668,-0.16961 8.62541,-0.13928 8.62541,0.3156 0,0.27678 -0.0422,0.50324 -0.0937,0.50324 -0.0854,0 -15.8058,4.2712 -16.5317,4.49164 -0.17198,0.0522 1.05929,0.55211 2.73616,1.11084 3.94545,1.31461 4.03713,2.18269 0.23453,2.2206 l -1.40717,0.014 1.18483,0.72839 c 0.65166,0.40061 3.84836,2.19036 7.10379,3.97721 7.24206,3.97506 7.71617,4.59977 2.49249,3.28426 -3.89228,-0.98021 -6.02143,-1.30264 -5.15244,-0.78026 1.12155,0.67421 5.38332,4.31335 6.37791,5.44612 1.60945,1.83306 1.19674,2.40888 -1.22037,1.70266 -1.621,-0.47362 -6.35505,-1.18457 -9.37904,-1.40853 l -2.65798,-0.19685 2.99741,1.37744 c 8.90096,4.09036 10.75586,6.70973 3.25666,4.59883 -5.38679,-1.51628 -5.97954,-1.46228 -1.50221,0.13687 4.43586,1.58433 6.00078,3.72258 6.03161,8.24138 0.006,0.93535 0.51066,1.05664 -8.12549,-1.9544 -4.19294,-1.46189 -7.70237,-2.65665 -7.79873,-2.65502 -0.20537,0.003 0.97046,0.69378 6.07886,3.56882 7.32446,4.12225 13.00974,8.31095 11.28036,8.31095 -0.28581,0 -9.97301,-4.10518 -11.43294,-4.84499 -2.10091,-1.06461 -2.10494,-1.05462 -0.48863,1.21044 1.48791,2.08511 1.71263,2.69644 0.99122,2.69644 -0.79557,0 -11.12955,-3.94392 -17.86141,-6.81672 -1.20391,-0.51377 -2.75179,-1.16429 -3.43974,-1.44562 l -1.25081,-0.51149 0.93811,0.80955 c 1.92825,1.66399 7.88746,6.05199 9.80715,7.22138 1.09426,0.66658 1.96733,1.35268 1.94014,1.52466 -0.12123,0.76699 -8.40662,-0.74949 -12.04484,-2.20457 -2.38721,-0.95475 -2.25588,-1.41582 -1.23387,4.33188 l 0.21145,1.18919 -1.68529,-0.22103 c -0.92691,-0.12157 -2.49983,-0.38772 -3.49537,-0.59145 -0.99554,-0.20373 -1.69912,-0.27627 -1.56352,-0.1612 0.13561,0.11507 1.44265,1.03127 2.90454,2.036 5.31187,3.65076 9.3811,6.78389 9.3811,7.22305 0,0.59381 -0.12713,0.55906 -9.7379,-2.66165 -8.4409,-2.82867 -8.8267,-2.86123 -6.24373,-0.52693 1.60472,1.45022 0.753,1.72504 -2.52824,0.81576 -3.01237,-0.83477 -2.95758,-0.67993 0.44048,1.24471 7.9114,4.48098 16.20681,10.32103 14.66035,10.32103 -0.34983,0 -11.91181,-4.8803 -16.07829,-6.78663 -3.46619,-1.58592 -3.7742,-1.56146 -2.60403,0.2068 1.4516,2.19351 1.05896,2.14145 -4.39063,-0.58207 -3.68461,-1.84145 -16.98338,-7.89578 -20.42354,-9.29791 -1.33629,-0.54465 -1.16256,-0.39158 2.81433,2.47958 6.21653,4.48809 18.31117,14.68685 16.05277,13.53643 -0.2003,-0.10202 -0.41137,-0.0521 -0.46906,0.11093 -0.0577,0.16304 -0.94918,-0.40842 -1.9811,-1.2699 z m 22.3583,-1.34083 c 0,-0.26899 -8.65312,-5.63882 -12.99003,-8.06116 -6.2596,-3.49625 -6.25038,-3.99814 0.0401,-2.18529 l 4.09243,1.17939 -1.04357,-1.36716 c -2.18707,-2.86521 -2.05393,-2.86079 7.22903,0.23958 4.1119,1.37332 7.52329,2.44984 7.58087,2.39226 0.12534,-0.12534 -7.37977,-5.48446 -10.1439,-7.24337 -3.14092,-1.99869 -2.71034,-2.39904 1.53609,-1.42826 4.69121,1.07246 5.37455,1.10894 5.14049,0.27446 -0.4192,-1.49456 -0.8053,-5.38363 -0.55894,-5.62999 0.1417,-0.1417 1.06869,0.10105 2.05998,0.53945 2.61828,1.15792 10.49306,3.12051 9.72193,2.42294 -0.17199,-0.15559 -1.29772,-0.96453 -2.50163,-1.79765 -5.86833,-4.06097 -11.80843,-9.22548 -10.61094,-9.22548 0.0975,0 2.45086,0.9987 5.2296,2.21932 5.49386,2.41329 9.0194,3.85328 15.58033,6.36372 l 4.25763,1.62911 -1.67782,-2.33839 c -2.62326,-3.65605 -2.40696,-3.85678 1.81919,-1.68829 12.18676,6.25318 7.63179,2.63765 -6.41104,-5.08879 -3.80675,-2.09449 -5.44135,-3.14859 -5.15961,-3.32724 0.33322,-0.21128 0.32735,-0.26241 -0.0306,-0.26628 -0.24365,-0.003 -0.36425,-0.0835 -0.26801,-0.17977 0.0962,-0.0962 3.60243,1.0363 7.79153,2.51676 4.1891,1.48046 8.85091,3.12744 10.35957,3.65997 3.26352,1.15196 3.13067,1.22516 2.53288,-1.39556 -0.68414,-2.99928 -0.7967,-3.08131 -7.77753,-5.66794 -10.16763,-3.76744 -12.50215,-4.71585 -11.89558,-4.83266 0.46713,-0.09 0.49227,-0.16586 0.1364,-0.41181 -0.53946,-0.37284 -1.26317,-0.56408 9.62047,2.54216 4.84325,1.38229 8.89716,2.51325 9.00868,2.51325 1.21115,0 -3.40805,-2.5109 -8.09999,-4.40297 -3.873,-1.56183 -5.21237,-2.71676 -2.73272,-2.35639 0.63162,0.0918 2.48521,0.25452 4.11909,0.36161 3.36834,0.22079 8.385,0.91557 9.9858,1.38298 1.61634,0.47195 1.5067,0.25976 -0.99162,-1.91915 -3.73442,-3.25697 -4.38765,-3.66237 -7.69686,-4.7768 -5.27541,-1.77658 -5.20154,-2.48098 0.14962,-1.42657 6.69549,1.31929 7.7767,1.51626 7.86093,1.43202 0.047,-0.047 -1.57074,-1.00389 -3.59494,-2.12647 -8.48712,-4.7068 -8.82091,-5.01077 -5.94746,-5.41603 l 1.64169,-0.23154 -2.73615,-0.91833 c -3.8872,-1.30464 -3.75179,-1.414 4.69055,-3.78797 l 7.42671,-2.08837 -8.78176,0.17378 c -9.61698,0.1903 -11.28061,-0.12026 -6.72312,-1.25504 3.20721,-0.79858 5.39976,-1.45997 5.27001,-1.58973 -0.0651,-0.0651 -2.0104,-0.34777 -4.32286,-0.62814 -2.31247,-0.28037 -4.25705,-0.5598 -4.32129,-0.62096 -0.40867,-0.38907 0.51336,-1.03862 2.58948,-1.82423 3.0378,-1.14953 2.8773,-1.2577 -1.27587,-0.85987 -12.89493,1.2352 -14.76353,0.6979 -6.82547,-1.9626 2.75179,-0.92228 5.7772,-2.04455 6.72313,-2.49393 l 1.71987,-0.81705 -1.56352,0.16257 c -0.85993,0.0894 -4.00959,0.25152 -6.99924,0.36024 -6.2825,0.22846 -6.68028,-10e-4 -2.86048,-1.65194 l 2.28833,-0.98888 -1.35495,-0.98151 c -1.54832,-1.1216 -1.52471,-1.11425 -5.92708,-1.8455 l -3.28339,-0.54539 -0.17562,-1.30582 c -0.16889,-1.25572 -0.41578,-1.56836 -2.43619,-3.08498 -0.89976,-0.6754 -0.13008,-1.25274 2.45816,-1.84388 l 2.56887,-0.58671 -3.09088,-0.51855 c -5.53397,-0.92841 -7.43262,-2.15174 -3.41554,-2.20069 3.07273,-0.0374 5.35654,-0.51296 2.68404,-0.55885 -5.26707,-0.0905 -12.40391,-0.76695 -12.40391,-1.17577 0,-0.24273 2.02557,-1.22088 4.8979,-2.3652 l 4.8979,-1.9513 -1.90116,-1.19616 c -5.07162,-3.19093 -8.97045,-3.86408 -26.74764,-4.61814 -17.9253,-0.76033 -33.95083,0.69803 -65.38191,5.94993 -11.7013,1.95519 -21.19177,3.43704 -22.01251,3.43704 -0.70537,0 -0.62417,-1.46694 0.18959,-3.42505 1.05445,-2.53729 1.04289,-2.5385 -13.65552,-1.42959 -18.13637,1.36828 -33.52561,-1.25926 -44.87297,-7.66154 -1.2899,-0.72778 -4.38566,-2.4504 -6.87948,-3.82805 -18.45574,-10.19545 -14.18502,-10.42824 6.87948,-0.37499 8.66352,4.13476 10.51449,4.14948 11.70624,0.0931 0.54905,-1.86879 -1.17353,-2.08581 27.38171,3.44973 28.70272,5.56414 26.25187,5.36124 26.86899,2.22446 0.21609,-1.09836 0.68101,-2.23073 1.13969,-2.77584 l 0.77472,-0.92069 -1.64903,-0.47192 c -0.90697,-0.25955 -2.56369,-0.70116 -3.6816,-0.98136 -4.12957,-1.03505 -4.27362,-1.08857 -4.27362,-1.5878 0,-0.42475 0.35769,-0.47016 2.52769,-0.32091 1.39023,0.0956 5.39144,0.262 8.89158,0.36974 l 6.36389,0.19588 -0.22761,-0.73689 c -0.30859,-0.99904 -0.95329,-2.26781 -2.24541,-4.41889 -0.59658,-0.99319 -1.21972,-2.29482 -1.38475,-2.89251 l -0.30006,-1.08672 -4.59768,0.003 c -2.52872,0.002 -14.72432,-0.15654 -27.10132,-0.35194 l -22.50363,-0.35526 -1.10549,-0.87923 c -0.60801,-0.48357 -1.49378,-0.97401 -1.96837,-1.08987 -1.22932,-0.3001 -1.24866,-0.40622 -0.72256,-3.96465 2.30865,-15.61534 0.33583,-30.27225 -4.07297,-30.25971 -15.08649,0.0429 -27.28941,7.274 -31.58478,18.7162 -1.16422,3.10128 -1.38019,3.20846 -4.96687,2.46486 l -1.87132,-0.38797 -3.46663,-9.69381 c -1.90665,-5.33159 -3.93089,-10.66382 -4.49831,-11.84939 -0.89758,-1.87542 -0.96807,-2.19117 -0.54238,-2.4294 0.43179,-0.24164 0.39979,-0.46604 -0.27228,-1.90957 -1.35655,-2.91371 -0.96918,-3.38445 1.37936,-1.6762 1.35306,0.98417 3.24847,2.07303 3.60858,2.07303 0.0869,0 -0.0468,-0.58056 -0.29717,-1.29013 -0.25035,-0.70957 -0.45519,-1.3428 -0.45519,-1.40717 0,-0.28328 1.36905,-0.0761 2.4335,0.36833 1.43028,0.59713 1.21266,0.38197 -2.04262,-2.01941 -2.32688,-1.71652 -3.51622,-3.29 -2.03257,-2.68907 4.47447,1.81232 7.19046,2.42094 13.21173,2.96058 5.06333,0.45379 5.0918,0.44547 2.65798,-0.77659 -3.57408,-1.7946 -8.49512,-4.89547 -8.49512,-5.353 0,-0.56864 -0.13732,-0.59667 4.03563,0.82376 3.72602,1.26829 11.57714,3.43976 12.43343,3.43884 0.25798,-2.7e-4 -1.28246,-0.87931 -3.4232,-1.9534 -5.45754,-2.73827 -6.26366,-4.20864 -1.35565,-2.47273 4.64856,1.64415 12.07528,3.17781 15.38852,3.17781 h 1.31029 l -1.22079,-1.48534 c -1.477,-1.79708 -2.02196,-3.09524 -1.88787,-4.49713 l 0.10075,-1.05336 4.45764,-0.18403 c 2.4517,-0.10121 4.5386,-0.26499 4.63756,-0.36394 0.23051,-0.23052 -3.44121,-1.04131 -7.83133,-1.72933 -1.88468,-0.29537 -3.3995,-0.67775 -3.36627,-0.84974 0.0928,-0.48028 7.7312,-0.8361 13.65241,-0.63598 2.91276,0.0985 5.23459,0.1203 5.15961,0.0486 -0.1592,-0.15231 -4.74216,-1.08509 -10.2992,-2.09622 -2.90975,-0.52944 -3.70898,-0.76893 -3.12703,-0.93702 l 0.78176,-0.2258 -0.7557,-0.0312 c -0.41564,-0.0171 -0.67637,-0.11051 -0.57941,-0.20747 0.097,-0.097 2.96992,0.24903 6.38436,0.76887 5.81609,0.88549 14.81306,1.91467 16.64928,1.90456 0.88602,-0.005 -4.72274,-2.88288 -6.9756,-3.57936 -2.57638,-0.7965 -1.64947,-1.27083 2.27992,-1.16674 3.28077,0.0869 4.15873,-0.021 8.99608,-1.1059 l 5.3605,-1.20221 -1.60805,-1.20344 c -2.31429,-1.73197 -5.12335,-2.98135 -9.58193,-4.26171 -2.5343,-0.72778 -3.93986,-1.28418 -3.99729,-1.58236 -0.14596,-0.75794 4.31834,-2.0994 9.31318,-2.79848 3.56627,-0.49914 3.99284,-0.79591 1.5372,-1.06944 -7.79926,-0.86876 -10.5437,-2.36695 -6.46228,-3.52775 3.04439,-0.86587 1.53377,-0.89402 -3.36157,-0.0626 -6.44609,1.09473 -13.84956,1.20676 -13.5202,0.20458 0.19464,-0.59223 2.37717,-1.71836 4.8855,-2.52079 l 2.30992,-0.73896 -5.12425,-0.21691 c -2.81834,-0.1193 -6.35804,-0.35995 -7.86601,-0.53477 l -2.74175,-0.31786 -3.20023,-3.18144 c -7.65437,-7.60942 -13.85925,-10.62921 -30.87327,-15.02539 -13.30169,-3.43696 -12.3483,-2.91194 -11.72504,-6.45685 0.25534,-1.45228 0.77395,-5.79234 1.15248,-9.64456 l 0.68822,-7.00404 1.06117,-0.44339 c 4.11831,-1.72074 8.58742,-1.28646 17.96522,1.74573 12.34932,3.993 18.363,4.20311 25.35222,0.88579 l 2.12946,-1.01071 -7.75812,-2.63502 c -13.13001,-4.45955 -15.29186,-5.49036 -20.89167,-9.96146 -11.5069,-9.18756 -20.70881,-12.36251 -35.80456,-12.3537 -17.46742,0.0102 -28.71144,6.10226 -37.17334,20.14071 l -1.05607,1.75206 -6.44881,0.18157 c -4.13308,0.11637 -7.12255,0.35107 -8.32503,0.65358 -4.20347,1.05747 -3.54031,-3.15333 1.60359,-10.18227 2.69511,-3.68276 4.30715,-6.32924 5.13563,-8.43109 l 0.5733,-1.45447 -1.11894,-1.11893 c -1.57038,-1.57039 -3.07501,-2.04146 -7.91345,-2.47758 l -4.2215,-0.38051 0.10026,-1.44807 c 0.14953,-2.15953 -0.39688,-3.73384 -1.73512,-4.99925 l -1.17947,-1.11527 -3.9088,0.56911 c -8.64169,1.25823 -13.97296,3.78179 -15.91713,7.53441 -1.53034,2.95383 4.08647,13.4173 10.8357,20.18567 4.96919,4.98329 5.01663,4.9522 -3.01263,1.97451 -9.5184,-3.52995 -14.27927,-4.86173 -15.61431,-4.36787 -0.79667,0.29471 -0.95425,1.84674 -0.24709,2.43363 1.08497,0.90046 1.21359,2.06311 0.36633,3.31161 -1.7983,2.64994 0.29951,6.14569 4.1502,6.91583 0.77685,0.15537 1.44329,0.76726 2.98392,2.73968 3.07145,3.93228 6.01398,6.53476 9.02108,7.97857 3.1295,1.50257 4.74319,2.64207 11.84634,8.36525 3.01926,2.43269 6.94781,5.4975 8.7301,6.81068 1.87805,1.38373 3.61216,2.94244 4.12439,3.70722 0.48613,0.72578 1.03905,1.27856 1.22873,1.22839 0.18967,-0.0502 0.60868,0.14753 0.93113,0.43934 0.34552,0.31269 0.58627,0.38225 0.58627,0.1694 0,-0.56991 0.67574,-0.42291 1.46519,0.31875 0.39805,0.37395 0.72374,0.51467 0.72374,0.3127 0,-0.66085 0.89365,-0.38881 3.15946,0.96178 2.81068,1.67536 2.90161,1.92624 1.21839,3.36156 -1.66314,1.41819 -1.57951,1.73006 0.91879,3.42662 1.57346,1.06852 1.89554,1.43847 1.89554,2.17731 0,0.63894 0.34667,1.20327 1.22867,2.0001 0.67577,0.61052 1.39989,1.43601 1.60917,1.83443 0.20927,0.39843 0.55716,0.82918 0.77309,0.95723 0.21592,0.12805 0.84503,1.04271 1.39801,2.03257 1.89545,3.39297 2.55583,3.5728 6.63247,1.80617 2.75251,-1.19281 3.05566,-1.17901 3.05566,0.13912 0,0.73113 0.10989,0.86164 0.61444,0.7297 0.48147,-0.12591 0.72501,0.10035 1.12539,1.04556 0.28102,0.66343 0.77886,1.76911 1.1063,2.45705 1.13596,2.38664 0.8577,6.6477 -0.57502,8.80554 -0.69163,1.04166 -1.1305,2.05107 -1.07521,2.47298 0.0962,0.73383 -2.45002,3.85219 -5.8139,7.1204 -1.77695,1.72642 -1.78932,2.05553 -0.22226,5.9121 1.15359,2.839 1.04472,3.05055 -1.56989,3.05055 h -1.35573 l -1.1559,-3.51792 c -1.58953,-4.83768 -3.59708,-8.79291 -5.96547,-11.75303 -2.17025,-2.71248 -2.22247,-2.8921 -1.51497,-5.21114 1.54834,-5.07515 -0.25432,-11.51261 -4.38229,-15.64955 -3.86646,-3.87486 -5.48188,-3.86888 -10.94082,0.0405 -0.85219,0.61029 -1.94274,1.18828 -2.42345,1.28442 -0.48071,0.0961 -0.87848,0.33311 -0.88393,0.5266 -0.005,0.19348 -0.93962,0.97866 -2.07593,1.74483 -6.15889,4.1527 -7.20734,11.69218 -2.19255,15.76673 5.04053,4.09546 7.72358,5.26014 14.51215,6.2995 3.77655,0.57821 4.7233,3.26111 7.11022,20.14904 2.03062,14.36707 3.61819,18.10385 8.11939,19.11118 2.11884,0.47417 2.23207,0.74449 1.93434,4.61787 -0.19781,2.57352 -0.26084,2.75049 -1.4622,4.10601 -4.26999,4.8179 -7.6251,9.9597 -12.96293,19.86608 -4.27466,7.93325 -5.9796,10.69184 -7.82727,12.66449 -0.886,0.94593 -2.6385,3.05668 -3.89446,4.69056 -1.25595,1.63387 -2.91935,3.72463 -3.69643,4.64611 l -1.41288,1.67544 -3.30855,-0.20728 c -17.46623,-1.09425 -37.47872,-2.75267 -73.82322,-6.11768 -25.13701,-2.32734 -41.2377,-3.75929 -54.21104,-4.82134 -6.358,-0.5205 -6.12021,-0.43414 -5.39319,-1.95873 0.36614,-0.76779 0.41051,-1.04607 0.13422,-0.84178 -2.85103,2.10804 -2.83936,2.10467 -6.50954,1.88176 -1.88482,-0.11448 -3.81699,-0.37376 -4.29373,-0.57619 -0.53154,-0.2257 -2.37856,-0.35116 -4.77558,-0.3244 -2.14984,0.024 -8.90423,-0.38826 -15.00977,-0.91615 -20.1684,-1.74378 -23.491,-1.49472 -27.4115,2.05474 l -1.47822,1.33831 0.88099,2.41551 c 1.59036,4.36049 7.75562,12.23222 10.00254,12.77112 0.53011,0.12714 7.7886,0.65593 16.12997,1.17509 8.34137,0.51916 16.02803,1.02769 17.08146,1.13007 l 1.91535,0.18614 0.16791,4.26743 c 0.25839,6.56659 1.59151,9.58955 5.00259,11.34385 l 1.18361,0.60872 0.45809,-1.09637 c 0.25195,-0.603 0.45809,-1.38232 0.45809,-1.73182 0,-0.8566 0.5075,-0.79961 1.82446,0.20488 0.76414,0.58284 1.04125,0.6827 0.90433,0.32591 -0.7211,-1.87917 -2.43697,-7.81637 -2.29886,-7.95448 0.45437,-0.45437 1.23065,0.45536 2.8914,3.38849 0.99947,1.76519 2.11851,3.55973 2.48677,3.98785 l 0.66956,0.77841 1.37355,-1.41892 c 0.75545,-0.78041 1.97967,-2.56209 2.7205,-3.9593 0.74082,-1.3972 1.47054,-2.61674 1.62159,-2.7101 0.15105,-0.0933 4.82179,1.11025 10.37943,2.67467 5.55764,1.56442 19.95496,5.50343 31.99404,8.75335 12.03909,3.24992 25.54788,6.94546 30.01955,8.21231 9.47528,2.68441 8.69487,2.82317 9.36536,-1.6652 0.23203,-1.55324 0.6734,-3.20795 0.98083,-3.67713 0.30742,-0.46919 0.56783,-0.90414 0.57869,-0.96657 0.0109,-0.0624 -4.82626,-1.6208 -10.74915,-3.46304 -6.29976,-1.95947 -10.85388,-3.53452 -10.97369,-3.79529 -0.11265,-0.24516 -0.51653,-1.09273 -0.89751,-1.88347 l -0.6927,-1.43771 -3.03067,-0.66667 c -1.66687,-0.36668 -5.00071,-1.01919 -7.40852,-1.45004 -2.40782,-0.43084 -4.87036,-0.87268 -5.47232,-0.98186 -0.93585,-0.16973 -1.00383,-0.23521 -0.46905,-0.45183 0.59657,-0.24167 0.59778,-0.25436 0.0261,-0.27532 -0.32965,-0.0121 -0.53853,-0.0828 -0.4642,-0.15714 0.0743,-0.0743 1.18835,-0.006 2.47557,0.15149 9.2313,1.1306 30.76997,2.87145 48.15149,3.89182 20.07112,1.17827 32.67778,2.06365 33.95195,2.38449 0.75646,0.19047 1.83454,0.27787 2.39575,0.1942 0.80641,-0.12021 1.23577,0.0361 2.04755,0.74567 1.26823,1.10848 1.82863,1.12486 2.91386,0.0851 0.80876,-0.77485 0.88954,-0.7901 1.73698,-0.32799 2.4285,1.32426 2.25178,1.29112 3.02276,0.56683 0.85017,-0.7987 1.38688,-0.84204 2.59899,-0.20988 0.49262,0.25692 1.36131,0.46799 1.93043,0.46905 0.77894,0.001 1.62928,0.45581 3.43973,1.83794 3.86186,2.94821 3.72523,2.66474 2.8438,5.89998 -2.55194,9.36669 0.67394,13.25887 11.6264,14.02784 4.5582,0.32004 10.94667,-0.3191 26.86639,-2.68785 17.77117,-2.64424 18.47721,-2.67052 20.3388,-0.75702 3.06162,3.14699 5.13539,3.35374 9.18425,0.91565 2.90722,-1.75064 2.78413,-1.97513 2.61276,4.76539 -0.40015,15.73823 1.15563,23.92632 5.01062,26.37109 4.38141,2.7786 6.71099,-0.37004 10.19894,-13.78477 1.68503,-6.48065 1.78976,-6.52644 3.78567,-1.65502 7.48165,18.26051 13.25581,22.64909 19.27777,14.65183 3.27649,-4.35124 2.88507,-10.16481 -1.63253,-24.24735 -2.0144,-6.27939 -3.48979,-12.20466 -3.36434,-13.51142 l 0.0995,-1.03609 4.84691,-0.37011 c 7.52424,-0.57456 12.09093,-1.03451 15.26866,-1.53785 l 2.91687,-0.46202 2.73178,2.59963 c 10.23753,9.74234 23.65914,14.36171 58.8221,20.24503 36.02638,6.02777 49.87104,9.73435 61.97193,16.59149 1.17277,0.66456 2.1323,1.15792 2.1323,1.09635 0,-0.34838 -9.58901,-7.38153 -15.0638,-11.04868 -1.83558,-1.22952 -3.42094,-2.37063 -3.52302,-2.53579 -0.55786,-0.90264 0.8291,-0.45616 4.15264,1.33681 2.05188,1.10693 8.21454,4.01291 13.69481,6.45772 5.48027,2.44481 11.2032,5.06679 12.71763,5.82662 2.19794,1.10277 2.6869,1.25708 2.42345,0.76481 -1.05214,-1.96594 -0.19079,-2.64689 1.94951,-1.54123 2.35062,1.21431 13.35562,5.95839 13.35562,5.7574 z M 356.35944,334.01234 c -7.53309,-0.26288 -7.28191,-0.18059 -7.00361,-2.29448 0.65073,-4.94267 2.47597,-8.89757 7.12696,-15.44253 15.49696,-21.80761 15.17945,-21.20293 19.62784,-37.37956 0.77504,-2.81844 1.12775,-3.66747 1.49395,-3.59609 1.02571,0.19991 15.73014,21.5794 15.54945,22.60809 -0.82508,4.69709 -5.86945,11.58649 -16.71404,22.82736 -3.48441,3.61173 -7.66651,8.14984 -9.29358,10.08469 -2.2304,2.65232 -3.12692,3.50561 -3.64359,3.4679 -0.37692,-0.0275 -3.59144,-0.15143 -7.14338,-0.27538 z m 9.96456,-3.66157 c 1.37522,-1.67688 5.42448,-6.07427 8.99835,-9.77199 11.48086,-11.87871 18.03125,-21.00351 16.83887,-23.45681 -0.39666,-0.81611 -14.31941,-20.5677 -14.43061,-20.47207 -0.0532,0.0457 -0.9279,2.98717 -1.94384,6.53653 -3.62766,12.67383 -3.52087,12.48118 -18.90732,34.10896 -4.21283,5.92172 -6.01393,9.81311 -6.60532,14.27119 l -0.19934,1.50269 4.49514,0.0963 c 2.47233,0.053 5.56581,0.1273 6.87441,0.16518 l 2.37926,0.0689 z"
       id="path1" />
  </g>
</svg>
