<?xml version="1.0" encoding="UTF-8" standalone="no"?>
<!-- Created with Inkscape (http://www.inkscape.org/) -->

<svg
   width="148mm"
   height="210mm"
   viewBox="0 0 559.37006 793.70081"
   version="1.1"
   id="svg1"
   inkscape:version="1.3.2 (091e20ef0f, 2023-11-25, custom)"
   sodipodi:docname="commandments.svg"
   xmlns:inkscape="http://www.inkscape.org/namespaces/inkscape"
   xmlns:sodipodi="http://sodipodi.sourceforge.net/DTD/sodipodi-0.dtd"
   xmlns="http://www.w3.org/2000/svg"
   xmlns:svg="http://www.w3.org/2000/svg">
  <sodipodi:namedview
     id="namedview1"
     pagecolor="#ffffff"
     bordercolor="#000000"
     borderopacity="0.25"
     inkscape:showpageshadow="2"
     inkscape:pageopacity="0.0"
     inkscape:pagecheckerboard="0"
     inkscape:deskcolor="#d1d1d1"
     inkscape:document-units="mm"
     inkscape:zoom="1.4678075"
     inkscape:cx="279.66882"
     inkscape:cy="396.85039"
     inkscape:window-width="3440"
     inkscape:window-height="1371"
     inkscape:window-x="0"
     inkscape:window-y="32"
     inkscape:window-maximized="1"
     inkscape:current-layer="layer1" />
  <defs
     id="defs1">
    <rect
       x="31.489455"
       y="33.808856"
       width="497.3943"
       height="732.51299"
       id="rect1" />
  </defs>
  <g
     inkscape:label="Layer 1"
     inkscape:groupmode="layer"
     id="layer1">
    <g
       inkscape:label="Hershey Text"
       style="fill:none;stroke:#000000;stroke-linecap:round;stroke-linejoin:round"
       id="g883">
      <g
         transform="translate(31.4902, 66.3617)"
         id="g613">
        <path
           d="M 284 536 L 346 567 L 441 662 L 441 0"
           style="stroke-width:0.2483in"
           transform="scale(0.0293333, -0.0293333)"
           id="path589" />
        <path
           d="M 220 158 L 189 126 L 220 94.5 L 252 126 L 220 158"
           style="stroke-width:0.2483in"
           transform="matrix(0.0293333 0 0 -0.0293333 18.48 0)"
           id="path590" />
        <path
           d="M 126 662 L 378 346 L 378 0 M 630 662 L 378 346"
           style="stroke-width:0.2483in"
           transform="matrix(0.0293333 0 0 -0.0293333 48.0479 0)"
           id="path591" />
        <path
           d="M 346 441 L 284 410 L 220 346 L 189 252 L 189 189 L 220 94.5 L 284 31.5 L 346 0 L 441 0 L 504 31.5 L 567 94.5 L 598 189 L 598 252 L 567 346 L 504 410 L 441 441 L 346 441"
           style="stroke-width:0.2483in"
           transform="matrix(0.0293333 0 0 -0.0293333 64.6799 0)"
           id="path592" />
        <path
           d="M 220 441 L 220 126 L 252 31.5 L 315 0 L 410 0 L 472 31.5 L 567 126 M 567 441 L 567 0"
           style="stroke-width:0.2483in"
           transform="matrix(0.0293333 0 0 -0.0293333 82.2212 0)"
           id="path593" />
        <path
           d="M 536 346 L 504 410 L 410 441 L 315 441 L 220 410 L 189 346 L 220 284 L 284 252 L 441 220 L 504 189 L 536 126 L 536 94.5 L 504 31.5 L 410 0 L 315 0 L 220 31.5 L 189 94.5"
           style="stroke-width:0.2483in"
           transform="matrix(0.0293333 0 0 -0.0293333 110.851 0)"
           id="path594" />
        <path
           d="M 220 662 L 220 0 M 220 315 L 315 410 L 378 441 L 472 441 L 536 410 L 567 315 L 567 0"
           style="stroke-width:0.2483in"
           transform="matrix(0.0293333 0 0 -0.0293333 126.573 0)"
           id="path595" />
        <path
           d="M 567 441 L 567 0 M 567 346 L 504 410 L 441 441 L 346 441 L 284 410 L 220 346 L 189 252 L 189 189 L 220 94.5 L 284 31.5 L 346 0 L 441 0 L 504 31.5 L 567 94.5"
           style="stroke-width:0.2483in"
           transform="matrix(0.0293333 0 0 -0.0293333 144.115 0)"
           id="path596" />
        <path
           d="M 220 662 L 220 0"
           style="stroke-width:0.2483in"
           transform="matrix(0.0293333 0 0 -0.0293333 161.656 0)"
           id="path597" />
        <path
           d="M 220 662 L 220 0"
           style="stroke-width:0.2483in"
           transform="matrix(0.0293333 0 0 -0.0293333 169.048 0)"
           id="path598" />
        <path
           d="M 220 662 L 220 0 M 220 315 L 315 410 L 378 441 L 472 441 L 536 410 L 567 315 L 567 0"
           style="stroke-width:0.2483in"
           transform="matrix(0.0293333 0 0 -0.0293333 187.528 0)"
           id="path599" />
        <path
           d="M 567 441 L 567 0 M 567 346 L 504 410 L 441 441 L 346 441 L 284 410 L 220 346 L 189 252 L 189 189 L 220 94.5 L 284 31.5 L 346 0 L 441 0 L 504 31.5 L 567 94.5"
           style="stroke-width:0.2483in"
           transform="matrix(0.0293333 0 0 -0.0293333 205.069 0)"
           id="path600" />
        <path
           d="M 158 441 L 346 0 M 536 441 L 346 0"
           style="stroke-width:0.2483in"
           transform="matrix(0.0293333 0 0 -0.0293333 222.61 0)"
           id="path601" />
        <path
           d="M 189 252 L 567 252 L 567 315 L 536 378 L 504 410 L 441 441 L 346 441 L 284 410 L 220 346 L 189 252 L 189 189 L 220 94.5 L 284 31.5 L 346 0 L 441 0 L 504 31.5 L 567 94.5"
           style="stroke-width:0.2483in"
           transform="matrix(0.0293333 0 0 -0.0293333 237.394 0)"
           id="path602" />
        <path
           d="M 220 441 L 220 0 M 220 315 L 315 410 L 378 441 L 472 441 L 536 410 L 567 315 L 567 0"
           style="stroke-width:0.2483in"
           transform="matrix(0.0293333 0 0 -0.0293333 265.114 0)"
           id="path603" />
        <path
           d="M 346 441 L 284 410 L 220 346 L 189 252 L 189 189 L 220 94.5 L 284 31.5 L 346 0 L 441 0 L 504 31.5 L 567 94.5 L 598 189 L 598 252 L 567 346 L 504 410 L 441 441 L 346 441"
           style="stroke-width:0.2483in"
           transform="matrix(0.0293333 0 0 -0.0293333 282.656 0)"
           id="path604" />
        <path
           d="M 346 441 L 284 410 L 220 346 L 189 252 L 189 189 L 220 94.5 L 284 31.5 L 346 0 L 441 0 L 504 31.5 L 567 94.5 L 598 189 L 598 252 L 567 346 L 504 410 L 441 441 L 346 441"
           style="stroke-width:0.2483in"
           transform="matrix(0.0293333 0 0 -0.0293333 311.285 0)"
           id="path605" />
        <path
           d="M 252 662 L 252 126 L 284 31.5 L 346 0 L 410 0 M 158 441 L 378 441"
           style="stroke-width:0.2483in"
           transform="matrix(0.0293333 0 0 -0.0293333 328.826 0)"
           id="path606" />
        <path
           d="M 220 662 L 220 0 M 220 315 L 315 410 L 378 441 L 472 441 L 536 410 L 567 315 L 567 0"
           style="stroke-width:0.2483in"
           transform="matrix(0.0293333 0 0 -0.0293333 339.914 0)"
           id="path607" />
        <path
           d="M 189 252 L 567 252 L 567 315 L 536 378 L 504 410 L 441 441 L 346 441 L 284 410 L 220 346 L 189 252 L 189 189 L 220 94.5 L 284 31.5 L 346 0 L 441 0 L 504 31.5 L 567 94.5"
           style="stroke-width:0.2483in"
           transform="matrix(0.0293333 0 0 -0.0293333 357.456 0)"
           id="path608" />
        <path
           d="M 220 441 L 220 0 M 220 252 L 252 346 L 315 410 L 378 441 L 472 441"
           style="stroke-width:0.2483in"
           transform="matrix(0.0293333 0 0 -0.0293333 374.088 0)"
           id="path609" />
        <path
           d="M 567 441 L 567 -63 L 536 -158 L 504 -189 L 441 -220 L 346 -220 L 284 -189 M 567 346 L 504 410 L 441 441 L 346 441 L 284 410 L 220 346 L 189 252 L 189 189 L 220 94.5 L 284 31.5 L 346 0 L 441 0 L 504 31.5 L 567 94.5"
           style="stroke-width:0.2483in"
           transform="matrix(0.0293333 0 0 -0.0293333 397.202 0)"
           id="path610" />
        <path
           d="M 346 441 L 284 410 L 220 346 L 189 252 L 189 189 L 220 94.5 L 284 31.5 L 346 0 L 441 0 L 504 31.5 L 567 94.5 L 598 189 L 598 252 L 567 346 L 504 410 L 441 441 L 346 441"
           style="stroke-width:0.2483in"
           transform="matrix(0.0293333 0 0 -0.0293333 414.744 0)"
           id="path611" />
        <path
           d="M 567 662 L 567 0 M 567 346 L 504 410 L 441 441 L 346 441 L 284 410 L 220 346 L 189 252 L 189 189 L 220 94.5 L 284 31.5 L 346 0 L 441 0 L 504 31.5 L 567 94.5"
           style="stroke-width:0.2483in"
           transform="matrix(0.0293333 0 0 -0.0293333 432.285 0)"
           id="path612" />
        <path
           d="M 536 346 L 504 410 L 410 441 L 315 441 L 220 410 L 189 346 L 220 284 L 284 252 L 441 220 L 504 189 L 536 126 L 536 94.5 L 504 31.5 L 410 0 L 315 0 L 220 31.5 L 189 94.5"
           style="stroke-width:0.2483in"
           transform="matrix(0.0293333 0 0 -0.0293333 449.826 0)"
           id="path613" />
      </g>
      <g
         transform="translate(31.4902, 116.228)"
         id="g622">
        <path
           d="M 220 662 L 220 0 M 220 346 L 284 410 L 346 441 L 441 441 L 504 410 L 567 346 L 598 252 L 598 189 L 567 94.5 L 504 31.5 L 441 0 L 346 0 L 284 31.5 L 220 94.5"
           style="stroke-width:0.2483in"
           transform="matrix(0.0293333 0 0 -0.0293333 55.4399 0)"
           id="path614" />
        <path
           d="M 189 252 L 567 252 L 567 315 L 536 378 L 504 410 L 441 441 L 346 441 L 284 410 L 220 346 L 189 252 L 189 189 L 220 94.5 L 284 31.5 L 346 0 L 441 0 L 504 31.5 L 567 94.5"
           style="stroke-width:0.2483in"
           transform="matrix(0.0293333 0 0 -0.0293333 72.9813 0)"
           id="path615" />
        <path
           d="M 410 662 L 346 662 L 284 630 L 252 536 L 252 0 M 158 441 L 378 441"
           style="stroke-width:0.2483in"
           transform="matrix(0.0293333 0 0 -0.0293333 89.6132 0)"
           id="path616" />
        <path
           d="M 346 441 L 284 410 L 220 346 L 189 252 L 189 189 L 220 94.5 L 284 31.5 L 346 0 L 441 0 L 504 31.5 L 567 94.5 L 598 189 L 598 252 L 567 346 L 504 410 L 441 441 L 346 441"
           style="stroke-width:0.2483in"
           transform="matrix(0.0293333 0 0 -0.0293333 100.701 0)"
           id="path617" />
        <path
           d="M 220 441 L 220 0 M 220 252 L 252 346 L 315 410 L 378 441 L 472 441"
           style="stroke-width:0.2483in"
           transform="matrix(0.0293333 0 0 -0.0293333 118.243 0)"
           id="path618" />
        <path
           d="M 189 252 L 567 252 L 567 315 L 536 378 L 504 410 L 441 441 L 346 441 L 284 410 L 220 346 L 189 252 L 189 189 L 220 94.5 L 284 31.5 L 346 0 L 441 0 L 504 31.5 L 567 94.5"
           style="stroke-width:0.2483in"
           transform="matrix(0.0293333 0 0 -0.0293333 130.269 0)"
           id="path619" />
        <path
           d="M 220 662 L 220 0 M 220 662 L 472 0 M 724 662 L 472 0 M 724 662 L 724 0"
           style="stroke-width:0.2483in"
           transform="matrix(0.0293333 0 0 -0.0293333 157.989 0)"
           id="path620" />
        <path
           d="M 189 252 L 567 252 L 567 315 L 536 378 L 504 410 L 441 441 L 346 441 L 284 410 L 220 346 L 189 252 L 189 189 L 220 94.5 L 284 31.5 L 346 0 L 441 0 L 504 31.5 L 567 94.5"
           style="stroke-width:0.2483in"
           transform="matrix(0.0293333 0 0 -0.0293333 180.165 0)"
           id="path621" />
        <path
           d="M 220 158 L 189 126 L 220 94.5 L 252 126 L 220 158"
           style="stroke-width:0.2483in"
           transform="matrix(0.0293333 0 0 -0.0293333 196.797 0)"
           id="path622" />
      </g>
      <g
         transform="translate(31.4902, 166.095)"
         id="g644">
        <path
           d="M 220 504 L 220 536 L 252 598 L 284 630 L 346 662 L 472 662 L 536 630 L 567 598 L 598 536 L 598 472 L 567 410 L 504 315 L 189 0 L 630 0"
           style="stroke-width:0.2483in"
           transform="scale(0.0293333, -0.0293333)"
           id="path623" />
        <path
           d="M 220 158 L 189 126 L 220 94.5 L 252 126 L 220 158"
           style="stroke-width:0.2483in"
           transform="matrix(0.0293333 0 0 -0.0293333 18.48 0)"
           id="path624" />
        <path
           d="M 126 662 L 378 346 L 378 0 M 630 662 L 378 346"
           style="stroke-width:0.2483in"
           transform="matrix(0.0293333 0 0 -0.0293333 48.0479 0)"
           id="path625" />
        <path
           d="M 346 441 L 284 410 L 220 346 L 189 252 L 189 189 L 220 94.5 L 284 31.5 L 346 0 L 441 0 L 504 31.5 L 567 94.5 L 598 189 L 598 252 L 567 346 L 504 410 L 441 441 L 346 441"
           style="stroke-width:0.2483in"
           transform="matrix(0.0293333 0 0 -0.0293333 64.6799 0)"
           id="path626" />
        <path
           d="M 220 441 L 220 126 L 252 31.5 L 315 0 L 410 0 L 472 31.5 L 567 126 M 567 441 L 567 0"
           style="stroke-width:0.2483in"
           transform="matrix(0.0293333 0 0 -0.0293333 82.2212 0)"
           id="path627" />
        <path
           d="M 536 346 L 504 410 L 410 441 L 315 441 L 220 410 L 189 346 L 220 284 L 284 252 L 441 220 L 504 189 L 536 126 L 536 94.5 L 504 31.5 L 410 0 L 315 0 L 220 31.5 L 189 94.5"
           style="stroke-width:0.2483in"
           transform="matrix(0.0293333 0 0 -0.0293333 110.851 0)"
           id="path628" />
        <path
           d="M 220 662 L 220 0 M 220 315 L 315 410 L 378 441 L 472 441 L 536 410 L 567 315 L 567 0"
           style="stroke-width:0.2483in"
           transform="matrix(0.0293333 0 0 -0.0293333 126.573 0)"
           id="path629" />
        <path
           d="M 567 441 L 567 0 M 567 346 L 504 410 L 441 441 L 346 441 L 284 410 L 220 346 L 189 252 L 189 189 L 220 94.5 L 284 31.5 L 346 0 L 441 0 L 504 31.5 L 567 94.5"
           style="stroke-width:0.2483in"
           transform="matrix(0.0293333 0 0 -0.0293333 144.115 0)"
           id="path630" />
        <path
           d="M 220 662 L 220 0"
           style="stroke-width:0.2483in"
           transform="matrix(0.0293333 0 0 -0.0293333 161.656 0)"
           id="path631" />
        <path
           d="M 220 662 L 220 0"
           style="stroke-width:0.2483in"
           transform="matrix(0.0293333 0 0 -0.0293333 169.048 0)"
           id="path632" />
        <path
           d="M 220 441 L 220 0 M 220 315 L 315 410 L 378 441 L 472 441 L 536 410 L 567 315 L 567 0 M 567 315 L 662 410 L 724 441 L 819 441 L 882 410 L 914 315 L 914 0"
           style="stroke-width:0.2483in"
           transform="matrix(0.0293333 0 0 -0.0293333 187.528 0)"
           id="path633" />
        <path
           d="M 567 441 L 567 0 M 567 346 L 504 410 L 441 441 L 346 441 L 284 410 L 220 346 L 189 252 L 189 189 L 220 94.5 L 284 31.5 L 346 0 L 441 0 L 504 31.5 L 567 94.5"
           style="stroke-width:0.2483in"
           transform="matrix(0.0293333 0 0 -0.0293333 215.248 0)"
           id="path634" />
        <path
           d="M 220 662 L 220 0 M 536 441 L 220 126 M 346 252 L 567 0"
           style="stroke-width:0.2483in"
           transform="matrix(0.0293333 0 0 -0.0293333 232.789 0)"
           id="path635" />
        <path
           d="M 189 252 L 567 252 L 567 315 L 536 378 L 504 410 L 441 441 L 346 441 L 284 410 L 220 346 L 189 252 L 189 189 L 220 94.5 L 284 31.5 L 346 0 L 441 0 L 504 31.5 L 567 94.5"
           style="stroke-width:0.2483in"
           transform="matrix(0.0293333 0 0 -0.0293333 248.512 0)"
           id="path636" />
        <path
           d="M 220 441 L 220 0 M 220 315 L 315 410 L 378 441 L 472 441 L 536 410 L 567 315 L 567 0"
           style="stroke-width:0.2483in"
           transform="matrix(0.0293333 0 0 -0.0293333 276.232 0)"
           id="path637" />
        <path
           d="M 346 441 L 284 410 L 220 346 L 189 252 L 189 189 L 220 94.5 L 284 31.5 L 346 0 L 441 0 L 504 31.5 L 567 94.5 L 598 189 L 598 252 L 567 346 L 504 410 L 441 441 L 346 441"
           style="stroke-width:0.2483in"
           transform="matrix(0.0293333 0 0 -0.0293333 293.773 0)"
           id="path638" />
        <path
           d="M 189 662 L 220 630 L 252 662 L 220 693 L 189 662 M 220 441 L 220 0"
           style="stroke-width:0.2483in"
           transform="matrix(0.0293333 0 0 -0.0293333 322.402 0)"
           id="path639" />
        <path
           d="M 567 662 L 567 0 M 567 346 L 504 410 L 441 441 L 346 441 L 284 410 L 220 346 L 189 252 L 189 189 L 220 94.5 L 284 31.5 L 346 0 L 441 0 L 504 31.5 L 567 94.5"
           style="stroke-width:0.2483in"
           transform="matrix(0.0293333 0 0 -0.0293333 329.794 0)"
           id="path640" />
        <path
           d="M 346 441 L 284 410 L 220 346 L 189 252 L 189 189 L 220 94.5 L 284 31.5 L 346 0 L 441 0 L 504 31.5 L 567 94.5 L 598 189 L 598 252 L 567 346 L 504 410 L 441 441 L 346 441"
           style="stroke-width:0.2483in"
           transform="matrix(0.0293333 0 0 -0.0293333 347.336 0)"
           id="path641" />
        <path
           d="M 220 662 L 220 0"
           style="stroke-width:0.2483in"
           transform="matrix(0.0293333 0 0 -0.0293333 364.877 0)"
           id="path642" />
        <path
           d="M 536 346 L 504 410 L 410 441 L 315 441 L 220 410 L 189 346 L 220 284 L 284 252 L 441 220 L 504 189 L 536 126 L 536 94.5 L 504 31.5 L 410 0 L 315 0 L 220 31.5 L 189 94.5"
           style="stroke-width:0.2483in"
           transform="matrix(0.0293333 0 0 -0.0293333 372.269 0)"
           id="path643" />
        <path
           d="M 220 158 L 189 126 L 220 94.5 L 252 126 L 220 158"
           style="stroke-width:0.2483in"
           transform="matrix(0.0293333 0 0 -0.0293333 387.992 0)"
           id="path644" />
      </g>
      <g
         transform="translate(31.4902, 215.962)"
         id="g670">
        <path
           d="M 252 662 L 598 662 L 410 410 L 504 410 L 567 378 L 598 346 L 630 252 L 630 189 L 598 94.5 L 536 31.5 L 441 0 L 346 0 L 252 31.5 L 220 63 L 189 126"
           style="stroke-width:0.2483in"
           transform="scale(0.0293333, -0.0293333)"
           id="path645" />
        <path
           d="M 220 158 L 189 126 L 220 94.5 L 252 126 L 220 158"
           style="stroke-width:0.2483in"
           transform="matrix(0.0293333 0 0 -0.0293333 18.48 0)"
           id="path646" />
        <path
           d="M 126 662 L 378 346 L 378 0 M 630 662 L 378 346"
           style="stroke-width:0.2483in"
           transform="matrix(0.0293333 0 0 -0.0293333 48.0479 0)"
           id="path647" />
        <path
           d="M 346 441 L 284 410 L 220 346 L 189 252 L 189 189 L 220 94.5 L 284 31.5 L 346 0 L 441 0 L 504 31.5 L 567 94.5 L 598 189 L 598 252 L 567 346 L 504 410 L 441 441 L 346 441"
           style="stroke-width:0.2483in"
           transform="matrix(0.0293333 0 0 -0.0293333 64.6799 0)"
           id="path648" />
        <path
           d="M 220 441 L 220 126 L 252 31.5 L 315 0 L 410 0 L 472 31.5 L 567 126 M 567 441 L 567 0"
           style="stroke-width:0.2483in"
           transform="matrix(0.0293333 0 0 -0.0293333 82.2212 0)"
           id="path649" />
        <path
           d="M 536 346 L 504 410 L 410 441 L 315 441 L 220 410 L 189 346 L 220 284 L 284 252 L 441 220 L 504 189 L 536 126 L 536 94.5 L 504 31.5 L 410 0 L 315 0 L 220 31.5 L 189 94.5"
           style="stroke-width:0.2483in"
           transform="matrix(0.0293333 0 0 -0.0293333 110.851 0)"
           id="path650" />
        <path
           d="M 220 662 L 220 0 M 220 315 L 315 410 L 378 441 L 472 441 L 536 410 L 567 315 L 567 0"
           style="stroke-width:0.2483in"
           transform="matrix(0.0293333 0 0 -0.0293333 126.573 0)"
           id="path651" />
        <path
           d="M 567 441 L 567 0 M 567 346 L 504 410 L 441 441 L 346 441 L 284 410 L 220 346 L 189 252 L 189 189 L 220 94.5 L 284 31.5 L 346 0 L 441 0 L 504 31.5 L 567 94.5"
           style="stroke-width:0.2483in"
           transform="matrix(0.0293333 0 0 -0.0293333 144.115 0)"
           id="path652" />
        <path
           d="M 220 662 L 220 0"
           style="stroke-width:0.2483in"
           transform="matrix(0.0293333 0 0 -0.0293333 161.656 0)"
           id="path653" />
        <path
           d="M 220 662 L 220 0"
           style="stroke-width:0.2483in"
           transform="matrix(0.0293333 0 0 -0.0293333 169.048 0)"
           id="path654" />
        <path
           d="M 220 441 L 220 0 M 220 315 L 315 410 L 378 441 L 472 441 L 536 410 L 567 315 L 567 0"
           style="stroke-width:0.2483in"
           transform="matrix(0.0293333 0 0 -0.0293333 187.528 0)"
           id="path655" />
        <path
           d="M 346 441 L 284 410 L 220 346 L 189 252 L 189 189 L 220 94.5 L 284 31.5 L 346 0 L 441 0 L 504 31.5 L 567 94.5 L 598 189 L 598 252 L 567 346 L 504 410 L 441 441 L 346 441"
           style="stroke-width:0.2483in"
           transform="matrix(0.0293333 0 0 -0.0293333 205.069 0)"
           id="path656" />
        <path
           d="M 252 662 L 252 126 L 284 31.5 L 346 0 L 410 0 M 158 441 L 378 441"
           style="stroke-width:0.2483in"
           transform="matrix(0.0293333 0 0 -0.0293333 222.61 0)"
           id="path657" />
        <path
           d="M 252 662 L 252 126 L 284 31.5 L 346 0 L 410 0 M 158 441 L 378 441"
           style="stroke-width:0.2483in"
           transform="matrix(0.0293333 0 0 -0.0293333 244.786 0)"
           id="path658" />
        <path
           d="M 567 441 L 567 0 M 567 346 L 504 410 L 441 441 L 346 441 L 284 410 L 220 346 L 189 252 L 189 189 L 220 94.5 L 284 31.5 L 346 0 L 441 0 L 504 31.5 L 567 94.5"
           style="stroke-width:0.2483in"
           transform="matrix(0.0293333 0 0 -0.0293333 255.874 0)"
           id="path659" />
        <path
           d="M 220 662 L 220 0 M 536 441 L 220 126 M 346 252 L 567 0"
           style="stroke-width:0.2483in"
           transform="matrix(0.0293333 0 0 -0.0293333 273.416 0)"
           id="path660" />
        <path
           d="M 189 252 L 567 252 L 567 315 L 536 378 L 504 410 L 441 441 L 346 441 L 284 410 L 220 346 L 189 252 L 189 189 L 220 94.5 L 284 31.5 L 346 0 L 441 0 L 504 31.5 L 567 94.5"
           style="stroke-width:0.2483in"
           transform="matrix(0.0293333 0 0 -0.0293333 289.138 0)"
           id="path661" />
        <path
           d="M 252 662 L 252 126 L 284 31.5 L 346 0 L 410 0 M 158 441 L 378 441"
           style="stroke-width:0.2483in"
           transform="matrix(0.0293333 0 0 -0.0293333 316.858 0)"
           id="path662" />
        <path
           d="M 220 662 L 220 0 M 220 315 L 315 410 L 378 441 L 472 441 L 536 410 L 567 315 L 567 0"
           style="stroke-width:0.2483in"
           transform="matrix(0.0293333 0 0 -0.0293333 327.946 0)"
           id="path663" />
        <path
           d="M 189 252 L 567 252 L 567 315 L 536 378 L 504 410 L 441 441 L 346 441 L 284 410 L 220 346 L 189 252 L 189 189 L 220 94.5 L 284 31.5 L 346 0 L 441 0 L 504 31.5 L 567 94.5"
           style="stroke-width:0.2483in"
           transform="matrix(0.0293333 0 0 -0.0293333 345.488 0)"
           id="path664" />
        <path
           d="M 220 441 L 220 0 M 220 315 L 315 410 L 378 441 L 472 441 L 536 410 L 567 315 L 567 0"
           style="stroke-width:0.2483in"
           transform="matrix(0.0293333 0 0 -0.0293333 373.208 0)"
           id="path665" />
        <path
           d="M 567 441 L 567 0 M 567 346 L 504 410 L 441 441 L 346 441 L 284 410 L 220 346 L 189 252 L 189 189 L 220 94.5 L 284 31.5 L 346 0 L 441 0 L 504 31.5 L 567 94.5"
           style="stroke-width:0.2483in"
           transform="matrix(0.0293333 0 0 -0.0293333 390.749 0)"
           id="path666" />
        <path
           d="M 220 441 L 220 0 M 220 315 L 315 410 L 378 441 L 472 441 L 536 410 L 567 315 L 567 0 M 567 315 L 662 410 L 724 441 L 819 441 L 882 410 L 914 315 L 914 0"
           style="stroke-width:0.2483in"
           transform="matrix(0.0293333 0 0 -0.0293333 408.29 0)"
           id="path667" />
        <path
           d="M 189 252 L 567 252 L 567 315 L 536 378 L 504 410 L 441 441 L 346 441 L 284 410 L 220 346 L 189 252 L 189 189 L 220 94.5 L 284 31.5 L 346 0 L 441 0 L 504 31.5 L 567 94.5"
           style="stroke-width:0.2483in"
           transform="matrix(0.0293333 0 0 -0.0293333 436.01 0)"
           id="path668" />
        <path
           d="M 346 441 L 284 410 L 220 346 L 189 252 L 189 189 L 220 94.5 L 284 31.5 L 346 0 L 441 0 L 504 31.5 L 567 94.5 L 598 189 L 598 252 L 567 346 L 504 410 L 441 441 L 346 441"
           style="stroke-width:0.2483in"
           transform="matrix(0.0293333 0 0 -0.0293333 463.73 0)"
           id="path669" />
        <path
           d="M 410 662 L 346 662 L 284 630 L 252 536 L 252 0 M 158 441 L 378 441"
           style="stroke-width:0.2483in"
           transform="matrix(0.0293333 0 0 -0.0293333 481.271 0)"
           id="path670" />
      </g>
      <g
         transform="translate(31.4902, 265.828)"
         id="g691">
        <path
           d="M 252 662 L 252 126 L 284 31.5 L 346 0 L 410 0 M 158 441 L 378 441"
           style="stroke-width:0.2483in"
           transform="matrix(0.0293333 0 0 -0.0293333 55.4399 0)"
           id="path671" />
        <path
           d="M 220 662 L 220 0 M 220 315 L 315 410 L 378 441 L 472 441 L 536 410 L 567 315 L 567 0"
           style="stroke-width:0.2483in"
           transform="matrix(0.0293333 0 0 -0.0293333 66.5279 0)"
           id="path672" />
        <path
           d="M 189 252 L 567 252 L 567 315 L 536 378 L 504 410 L 441 441 L 346 441 L 284 410 L 220 346 L 189 252 L 189 189 L 220 94.5 L 284 31.5 L 346 0 L 441 0 L 504 31.5 L 567 94.5"
           style="stroke-width:0.2483in"
           transform="matrix(0.0293333 0 0 -0.0293333 84.0692 0)"
           id="path673" />
        <path
           d="M 220 662 L 220 0 M 220 0 L 598 0"
           style="stroke-width:0.2483in"
           transform="matrix(0.0293333 0 0 -0.0293333 111.789 0)"
           id="path674" />
        <path
           d="M 346 441 L 284 410 L 220 346 L 189 252 L 189 189 L 220 94.5 L 284 31.5 L 346 0 L 441 0 L 504 31.5 L 567 94.5 L 598 189 L 598 252 L 567 346 L 504 410 L 441 441 L 346 441"
           style="stroke-width:0.2483in"
           transform="matrix(0.0293333 0 0 -0.0293333 127.512 0)"
           id="path675" />
        <path
           d="M 220 441 L 220 0 M 220 252 L 252 346 L 315 410 L 378 441 L 472 441"
           style="stroke-width:0.2483in"
           transform="matrix(0.0293333 0 0 -0.0293333 145.053 0)"
           id="path676" />
        <path
           d="M 567 662 L 567 0 M 567 346 L 504 410 L 441 441 L 346 441 L 284 410 L 220 346 L 189 252 L 189 189 L 220 94.5 L 284 31.5 L 346 0 L 441 0 L 504 31.5 L 567 94.5"
           style="stroke-width:0.2483in"
           transform="matrix(0.0293333 0 0 -0.0293333 157.08 0)"
           id="path677" />
        <path
           d="M 158 441 L 346 0 M 536 441 L 346 0 L 284 -126 L 220 -189 L 158 -220 L 126 -220"
           style="stroke-width:0.2483in"
           transform="matrix(0.0293333 0 0 -0.0293333 185.709 0)"
           id="path678" />
        <path
           d="M 346 441 L 284 410 L 220 346 L 189 252 L 189 189 L 220 94.5 L 284 31.5 L 346 0 L 441 0 L 504 31.5 L 567 94.5 L 598 189 L 598 252 L 567 346 L 504 410 L 441 441 L 346 441"
           style="stroke-width:0.2483in"
           transform="matrix(0.0293333 0 0 -0.0293333 200.493 0)"
           id="path679" />
        <path
           d="M 220 441 L 220 126 L 252 31.5 L 315 0 L 410 0 L 472 31.5 L 567 126 M 567 441 L 567 0"
           style="stroke-width:0.2483in"
           transform="matrix(0.0293333 0 0 -0.0293333 218.034 0)"
           id="path680" />
        <path
           d="M 220 441 L 220 0 M 220 252 L 252 346 L 315 410 L 378 441 L 472 441"
           style="stroke-width:0.2483in"
           transform="matrix(0.0293333 0 0 -0.0293333 235.576 0)"
           id="path681" />
        <path
           d="M 662 504 L 630 567 L 567 630 L 504 662 L 378 662 L 315 630 L 252 567 L 220 504 L 189 410 L 189 252 L 220 158 L 252 94.5 L 315 31.5 L 378 0 L 504 0 L 567 31.5 L 630 94.5 L 662 158 L 662 252 M 504 252 L 662 252"
           style="stroke-width:0.2483in"
           transform="matrix(0.0293333 0 0 -0.0293333 258.69 0)"
           id="path682" />
        <path
           d="M 346 441 L 284 410 L 220 346 L 189 252 L 189 189 L 220 94.5 L 284 31.5 L 346 0 L 441 0 L 504 31.5 L 567 94.5 L 598 189 L 598 252 L 567 346 L 504 410 L 441 441 L 346 441"
           style="stroke-width:0.2483in"
           transform="matrix(0.0293333 0 0 -0.0293333 278.109 0)"
           id="path683" />
        <path
           d="M 567 662 L 567 0 M 567 346 L 504 410 L 441 441 L 346 441 L 284 410 L 220 346 L 189 252 L 189 189 L 220 94.5 L 284 31.5 L 346 0 L 441 0 L 504 31.5 L 567 94.5"
           style="stroke-width:0.2483in"
           transform="matrix(0.0293333 0 0 -0.0293333 295.65 0)"
           id="path684" />
        <path
           d="M 189 662 L 220 630 L 252 662 L 220 693 L 189 662 M 220 441 L 220 0"
           style="stroke-width:0.2483in"
           transform="matrix(0.0293333 0 0 -0.0293333 324.28 0)"
           id="path685" />
        <path
           d="M 220 441 L 220 0 M 220 315 L 315 410 L 378 441 L 472 441 L 536 410 L 567 315 L 567 0"
           style="stroke-width:0.2483in"
           transform="matrix(0.0293333 0 0 -0.0293333 331.672 0)"
           id="path686" />
        <path
           d="M 158 441 L 346 0 M 536 441 L 346 0"
           style="stroke-width:0.2483in"
           transform="matrix(0.0293333 0 0 -0.0293333 360.301 0)"
           id="path687" />
        <path
           d="M 567 441 L 567 0 M 567 346 L 504 410 L 441 441 L 346 441 L 284 410 L 220 346 L 189 252 L 189 189 L 220 94.5 L 284 31.5 L 346 0 L 441 0 L 504 31.5 L 567 94.5"
           style="stroke-width:0.2483in"
           transform="matrix(0.0293333 0 0 -0.0293333 375.085 0)"
           id="path688" />
        <path
           d="M 189 662 L 220 630 L 252 662 L 220 693 L 189 662 M 220 441 L 220 0"
           style="stroke-width:0.2483in"
           transform="matrix(0.0293333 0 0 -0.0293333 392.626 0)"
           id="path689" />
        <path
           d="M 220 441 L 220 0 M 220 315 L 315 410 L 378 441 L 472 441 L 536 410 L 567 315 L 567 0"
           style="stroke-width:0.2483in"
           transform="matrix(0.0293333 0 0 -0.0293333 400.018 0)"
           id="path690" />
        <path
           d="M 220 158 L 189 126 L 220 94.5 L 252 126 L 220 158"
           style="stroke-width:0.2483in"
           transform="matrix(0.0293333 0 0 -0.0293333 417.56 0)"
           id="path691" />
      </g>
      <g
         transform="translate(31.4902, 315.695)"
         id="g715">
        <path
           d="M 504 662 L 189 220 L 662 220 M 504 662 L 504 0"
           style="stroke-width:0.2483in"
           transform="scale(0.0293333, -0.0293333)"
           id="path692" />
        <path
           d="M 220 158 L 189 126 L 220 94.5 L 252 126 L 220 158"
           style="stroke-width:0.2483in"
           transform="matrix(0.0293333 0 0 -0.0293333 18.48 0)"
           id="path693" />
        <path
           d="M 220 662 L 220 0 M 662 662 L 220 220 M 378 378 L 662 0"
           style="stroke-width:0.2483in"
           transform="matrix(0.0293333 0 0 -0.0293333 48.0479 0)"
           id="path694" />
        <path
           d="M 189 252 L 567 252 L 567 315 L 536 378 L 504 410 L 441 441 L 346 441 L 284 410 L 220 346 L 189 252 L 189 189 L 220 94.5 L 284 31.5 L 346 0 L 441 0 L 504 31.5 L 567 94.5"
           style="stroke-width:0.2483in"
           transform="matrix(0.0293333 0 0 -0.0293333 67.4666 0)"
           id="path695" />
        <path
           d="M 189 252 L 567 252 L 567 315 L 536 378 L 504 410 L 441 441 L 346 441 L 284 410 L 220 346 L 189 252 L 189 189 L 220 94.5 L 284 31.5 L 346 0 L 441 0 L 504 31.5 L 567 94.5"
           style="stroke-width:0.2483in"
           transform="matrix(0.0293333 0 0 -0.0293333 84.0986 0)"
           id="path696" />
        <path
           d="M 220 441 L 220 -220 M 220 346 L 284 410 L 346 441 L 441 441 L 504 410 L 567 346 L 598 252 L 598 189 L 567 94.5 L 504 31.5 L 441 0 L 346 0 L 284 31.5 L 220 94.5"
           style="stroke-width:0.2483in"
           transform="matrix(0.0293333 0 0 -0.0293333 100.731 0)"
           id="path697" />
        <path
           d="M 252 662 L 252 126 L 284 31.5 L 346 0 L 410 0 M 158 441 L 378 441"
           style="stroke-width:0.2483in"
           transform="matrix(0.0293333 0 0 -0.0293333 129.36 0)"
           id="path698" />
        <path
           d="M 220 662 L 220 0 M 220 315 L 315 410 L 378 441 L 472 441 L 536 410 L 567 315 L 567 0"
           style="stroke-width:0.2483in"
           transform="matrix(0.0293333 0 0 -0.0293333 140.448 0)"
           id="path699" />
        <path
           d="M 189 252 L 567 252 L 567 315 L 536 378 L 504 410 L 441 441 L 346 441 L 284 410 L 220 346 L 189 252 L 189 189 L 220 94.5 L 284 31.5 L 346 0 L 441 0 L 504 31.5 L 567 94.5"
           style="stroke-width:0.2483in"
           transform="matrix(0.0293333 0 0 -0.0293333 157.989 0)"
           id="path700" />
        <path
           d="M 630 567 L 567 630 L 472 662 L 346 662 L 252 630 L 189 567 L 189 504 L 220 441 L 252 410 L 315 378 L 504 315 L 567 284 L 598 252 L 630 189 L 630 94.5 L 567 31.5 L 472 0 L 346 0 L 252 31.5 L 189 94.5"
           style="stroke-width:0.2483in"
           transform="matrix(0.0293333 0 0 -0.0293333 185.709 0)"
           id="path701" />
        <path
           d="M 567 441 L 567 0 M 567 346 L 504 410 L 441 441 L 346 441 L 284 410 L 220 346 L 189 252 L 189 189 L 220 94.5 L 284 31.5 L 346 0 L 441 0 L 504 31.5 L 567 94.5"
           style="stroke-width:0.2483in"
           transform="matrix(0.0293333 0 0 -0.0293333 204.189 0)"
           id="path702" />
        <path
           d="M 220 662 L 220 0 M 220 346 L 284 410 L 346 441 L 441 441 L 504 410 L 567 346 L 598 252 L 598 189 L 567 94.5 L 504 31.5 L 441 0 L 346 0 L 284 31.5 L 220 94.5"
           style="stroke-width:0.2483in"
           transform="matrix(0.0293333 0 0 -0.0293333 221.73 0)"
           id="path703" />
        <path
           d="M 220 662 L 220 0 M 220 346 L 284 410 L 346 441 L 441 441 L 504 410 L 567 346 L 598 252 L 598 189 L 567 94.5 L 504 31.5 L 441 0 L 346 0 L 284 31.5 L 220 94.5"
           style="stroke-width:0.2483in"
           transform="matrix(0.0293333 0 0 -0.0293333 239.272 0)"
           id="path704" />
        <path
           d="M 567 441 L 567 0 M 567 346 L 504 410 L 441 441 L 346 441 L 284 410 L 220 346 L 189 252 L 189 189 L 220 94.5 L 284 31.5 L 346 0 L 441 0 L 504 31.5 L 567 94.5"
           style="stroke-width:0.2483in"
           transform="matrix(0.0293333 0 0 -0.0293333 256.813 0)"
           id="path705" />
        <path
           d="M 252 662 L 252 126 L 284 31.5 L 346 0 L 410 0 M 158 441 L 378 441"
           style="stroke-width:0.2483in"
           transform="matrix(0.0293333 0 0 -0.0293333 274.354 0)"
           id="path706" />
        <path
           d="M 220 662 L 220 0 M 220 315 L 315 410 L 378 441 L 472 441 L 536 410 L 567 315 L 567 0"
           style="stroke-width:0.2483in"
           transform="matrix(0.0293333 0 0 -0.0293333 285.442 0)"
           id="path707" />
        <path
           d="M 567 662 L 567 0 M 567 346 L 504 410 L 441 441 L 346 441 L 284 410 L 220 346 L 189 252 L 189 189 L 220 94.5 L 284 31.5 L 346 0 L 441 0 L 504 31.5 L 567 94.5"
           style="stroke-width:0.2483in"
           transform="matrix(0.0293333 0 0 -0.0293333 314.072 0)"
           id="path708" />
        <path
           d="M 567 441 L 567 0 M 567 346 L 504 410 L 441 441 L 346 441 L 284 410 L 220 346 L 189 252 L 189 189 L 220 94.5 L 284 31.5 L 346 0 L 441 0 L 504 31.5 L 567 94.5"
           style="stroke-width:0.2483in"
           transform="matrix(0.0293333 0 0 -0.0293333 331.613 0)"
           id="path709" />
        <path
           d="M 158 441 L 346 0 M 536 441 L 346 0 L 284 -126 L 220 -189 L 158 -220 L 126 -220"
           style="stroke-width:0.2483in"
           transform="matrix(0.0293333 0 0 -0.0293333 349.154 0)"
           id="path710" />
        <path
           d="M 220 662 L 220 0 M 220 315 L 315 410 L 378 441 L 472 441 L 536 410 L 567 315 L 567 0"
           style="stroke-width:0.2483in"
           transform="matrix(0.0293333 0 0 -0.0293333 375.026 0)"
           id="path711" />
        <path
           d="M 346 441 L 284 410 L 220 346 L 189 252 L 189 189 L 220 94.5 L 284 31.5 L 346 0 L 441 0 L 504 31.5 L 567 94.5 L 598 189 L 598 252 L 567 346 L 504 410 L 441 441 L 346 441"
           style="stroke-width:0.2483in"
           transform="matrix(0.0293333 0 0 -0.0293333 392.568 0)"
           id="path712" />
        <path
           d="M 220 662 L 220 0"
           style="stroke-width:0.2483in"
           transform="matrix(0.0293333 0 0 -0.0293333 410.109 0)"
           id="path713" />
        <path
           d="M 158 441 L 346 0 M 536 441 L 346 0 L 284 -126 L 220 -189 L 158 -220 L 126 -220"
           style="stroke-width:0.2483in"
           transform="matrix(0.0293333 0 0 -0.0293333 417.501 0)"
           id="path714" />
        <path
           d="M 220 158 L 189 126 L 220 94.5 L 252 126 L 220 158"
           style="stroke-width:0.2483in"
           transform="matrix(0.0293333 0 0 -0.0293333 432.285 0)"
           id="path715" />
      </g>
      <g
         transform="translate(31.4902, 365.561)"
         id="g739">
        <path
           d="M 567 662 L 252 662 L 220 378 L 252 410 L 346 441 L 441 441 L 536 410 L 598 346 L 630 252 L 630 189 L 598 94.5 L 536 31.5 L 441 0 L 346 0 L 252 31.5 L 220 63 L 189 126"
           style="stroke-width:0.2483in"
           transform="scale(0.0293333, -0.0293333)"
           id="path716" />
        <path
           d="M 220 158 L 189 126 L 220 94.5 L 252 126 L 220 158"
           style="stroke-width:0.2483in"
           transform="matrix(0.0293333 0 0 -0.0293333 18.48 0)"
           id="path717" />
        <path
           d="M 220 662 L 220 0 M 662 662 L 662 0 M 220 346 L 662 346"
           style="stroke-width:0.2483in"
           transform="matrix(0.0293333 0 0 -0.0293333 48.0479 0)"
           id="path718" />
        <path
           d="M 346 441 L 284 410 L 220 346 L 189 252 L 189 189 L 220 94.5 L 284 31.5 L 346 0 L 441 0 L 504 31.5 L 567 94.5 L 598 189 L 598 252 L 567 346 L 504 410 L 441 441 L 346 441"
           style="stroke-width:0.2483in"
           transform="matrix(0.0293333 0 0 -0.0293333 68.3759 0)"
           id="path719" />
        <path
           d="M 220 441 L 220 0 M 220 315 L 315 410 L 378 441 L 472 441 L 536 410 L 567 315 L 567 0"
           style="stroke-width:0.2483in"
           transform="matrix(0.0293333 0 0 -0.0293333 85.9172 0)"
           id="path720" />
        <path
           d="M 346 441 L 284 410 L 220 346 L 189 252 L 189 189 L 220 94.5 L 284 31.5 L 346 0 L 441 0 L 504 31.5 L 567 94.5 L 598 189 L 598 252 L 567 346 L 504 410 L 441 441 L 346 441"
           style="stroke-width:0.2483in"
           transform="matrix(0.0293333 0 0 -0.0293333 103.459 0)"
           id="path721" />
        <path
           d="M 220 441 L 220 0 M 220 252 L 252 346 L 315 410 L 378 441 L 472 441"
           style="stroke-width:0.2483in"
           transform="matrix(0.0293333 0 0 -0.0293333 121 0)"
           id="path722" />
        <path
           d="M 158 441 L 346 0 M 536 441 L 346 0 L 284 -126 L 220 -189 L 158 -220 L 126 -220"
           style="stroke-width:0.2483in"
           transform="matrix(0.0293333 0 0 -0.0293333 144.115 0)"
           id="path723" />
        <path
           d="M 346 441 L 284 410 L 220 346 L 189 252 L 189 189 L 220 94.5 L 284 31.5 L 346 0 L 441 0 L 504 31.5 L 567 94.5 L 598 189 L 598 252 L 567 346 L 504 410 L 441 441 L 346 441"
           style="stroke-width:0.2483in"
           transform="matrix(0.0293333 0 0 -0.0293333 158.898 0)"
           id="path724" />
        <path
           d="M 220 441 L 220 126 L 252 31.5 L 315 0 L 410 0 L 472 31.5 L 567 126 M 567 441 L 567 0"
           style="stroke-width:0.2483in"
           transform="matrix(0.0293333 0 0 -0.0293333 176.44 0)"
           id="path725" />
        <path
           d="M 220 441 L 220 0 M 220 252 L 252 346 L 315 410 L 378 441 L 472 441"
           style="stroke-width:0.2483in"
           transform="matrix(0.0293333 0 0 -0.0293333 193.981 0)"
           id="path726" />
        <path
           d="M 410 662 L 346 662 L 284 630 L 252 536 L 252 0 M 158 441 L 378 441"
           style="stroke-width:0.2483in"
           transform="matrix(0.0293333 0 0 -0.0293333 217.096 0)"
           id="path727" />
        <path
           d="M 567 441 L 567 0 M 567 346 L 504 410 L 441 441 L 346 441 L 284 410 L 220 346 L 189 252 L 189 189 L 220 94.5 L 284 31.5 L 346 0 L 441 0 L 504 31.5 L 567 94.5"
           style="stroke-width:0.2483in"
           transform="matrix(0.0293333 0 0 -0.0293333 228.184 0)"
           id="path728" />
        <path
           d="M 252 662 L 252 126 L 284 31.5 L 346 0 L 410 0 M 158 441 L 378 441"
           style="stroke-width:0.2483in"
           transform="matrix(0.0293333 0 0 -0.0293333 245.725 0)"
           id="path729" />
        <path
           d="M 220 662 L 220 0 M 220 315 L 315 410 L 378 441 L 472 441 L 536 410 L 567 315 L 567 0"
           style="stroke-width:0.2483in"
           transform="matrix(0.0293333 0 0 -0.0293333 256.813 0)"
           id="path730" />
        <path
           d="M 189 252 L 567 252 L 567 315 L 536 378 L 504 410 L 441 441 L 346 441 L 284 410 L 220 346 L 189 252 L 189 189 L 220 94.5 L 284 31.5 L 346 0 L 441 0 L 504 31.5 L 567 94.5"
           style="stroke-width:0.2483in"
           transform="matrix(0.0293333 0 0 -0.0293333 274.354 0)"
           id="path731" />
        <path
           d="M 220 441 L 220 0 M 220 252 L 252 346 L 315 410 L 378 441 L 472 441"
           style="stroke-width:0.2483in"
           transform="matrix(0.0293333 0 0 -0.0293333 290.986 0)"
           id="path732" />
        <path
           d="M 567 441 L 567 0 M 567 346 L 504 410 L 441 441 L 346 441 L 284 410 L 220 346 L 189 252 L 189 189 L 220 94.5 L 284 31.5 L 346 0 L 441 0 L 504 31.5 L 567 94.5"
           style="stroke-width:0.2483in"
           transform="matrix(0.0293333 0 0 -0.0293333 314.101 0)"
           id="path733" />
        <path
           d="M 220 441 L 220 0 M 220 315 L 315 410 L 378 441 L 472 441 L 536 410 L 567 315 L 567 0"
           style="stroke-width:0.2483in"
           transform="matrix(0.0293333 0 0 -0.0293333 331.642 0)"
           id="path734" />
        <path
           d="M 567 662 L 567 0 M 567 346 L 504 410 L 441 441 L 346 441 L 284 410 L 220 346 L 189 252 L 189 189 L 220 94.5 L 284 31.5 L 346 0 L 441 0 L 504 31.5 L 567 94.5"
           style="stroke-width:0.2483in"
           transform="matrix(0.0293333 0 0 -0.0293333 349.184 0)"
           id="path735" />
        <path
           d="M 158 441 L 346 0 M 536 441 L 346 0 L 284 -126 L 220 -189 L 158 -220 L 126 -220"
           style="stroke-width:0.2483in"
           transform="matrix(0.0293333 0 0 -0.0293333 377.813 0)"
           id="path736" />
        <path
           d="M 346 441 L 284 410 L 220 346 L 189 252 L 189 189 L 220 94.5 L 284 31.5 L 346 0 L 441 0 L 504 31.5 L 567 94.5 L 598 189 L 598 252 L 567 346 L 504 410 L 441 441 L 346 441"
           style="stroke-width:0.2483in"
           transform="matrix(0.0293333 0 0 -0.0293333 392.597 0)"
           id="path737" />
        <path
           d="M 220 441 L 220 126 L 252 31.5 L 315 0 L 410 0 L 472 31.5 L 567 126 M 567 441 L 567 0"
           style="stroke-width:0.2483in"
           transform="matrix(0.0293333 0 0 -0.0293333 410.138 0)"
           id="path738" />
        <path
           d="M 220 441 L 220 0 M 220 252 L 252 346 L 315 410 L 378 441 L 472 441"
           style="stroke-width:0.2483in"
           transform="matrix(0.0293333 0 0 -0.0293333 427.68 0)"
           id="path739" />
      </g>
      <g
         transform="translate(31.4902, 415.428)"
         id="g746">
        <path
           d="M 220 441 L 220 0 M 220 315 L 315 410 L 378 441 L 472 441 L 536 410 L 567 315 L 567 0 M 567 315 L 662 410 L 724 441 L 819 441 L 882 410 L 914 315 L 914 0"
           style="stroke-width:0.2483in"
           transform="matrix(0.0293333 0 0 -0.0293333 55.4399 0)"
           id="path740" />
        <path
           d="M 346 441 L 284 410 L 220 346 L 189 252 L 189 189 L 220 94.5 L 284 31.5 L 346 0 L 441 0 L 504 31.5 L 567 94.5 L 598 189 L 598 252 L 567 346 L 504 410 L 441 441 L 346 441"
           style="stroke-width:0.2483in"
           transform="matrix(0.0293333 0 0 -0.0293333 83.1599 0)"
           id="path741" />
        <path
           d="M 252 662 L 252 126 L 284 31.5 L 346 0 L 410 0 M 158 441 L 378 441"
           style="stroke-width:0.2483in"
           transform="matrix(0.0293333 0 0 -0.0293333 100.701 0)"
           id="path742" />
        <path
           d="M 220 662 L 220 0 M 220 315 L 315 410 L 378 441 L 472 441 L 536 410 L 567 315 L 567 0"
           style="stroke-width:0.2483in"
           transform="matrix(0.0293333 0 0 -0.0293333 111.789 0)"
           id="path743" />
        <path
           d="M 189 252 L 567 252 L 567 315 L 536 378 L 504 410 L 441 441 L 346 441 L 284 410 L 220 346 L 189 252 L 189 189 L 220 94.5 L 284 31.5 L 346 0 L 441 0 L 504 31.5 L 567 94.5"
           style="stroke-width:0.2483in"
           transform="matrix(0.0293333 0 0 -0.0293333 129.331 0)"
           id="path744" />
        <path
           d="M 220 441 L 220 0 M 220 252 L 252 346 L 315 410 L 378 441 L 472 441"
           style="stroke-width:0.2483in"
           transform="matrix(0.0293333 0 0 -0.0293333 145.963 0)"
           id="path745" />
        <path
           d="M 220 158 L 189 126 L 220 94.5 L 252 126 L 220 158"
           style="stroke-width:0.2483in"
           transform="matrix(0.0293333 0 0 -0.0293333 157.989 0)"
           id="path746" />
      </g>
      <g
         transform="translate(31.4902, 465.295)"
         id="g766">
        <path
           d="M 598 567 L 567 630 L 472 662 L 410 662 L 315 630 L 252 536 L 220 378 L 220 220 L 252 94.5 L 315 31.5 L 410 0 L 441 0 L 536 31.5 L 598 94.5 L 630 189 L 630 220 L 598 315 L 536 378 L 441 410 L 410 410 L 315 378 L 252 315 L 220 220"
           style="stroke-width:0.2483in"
           transform="scale(0.0293333, -0.0293333)"
           id="path747" />
        <path
           d="M 220 158 L 189 126 L 220 94.5 L 252 126 L 220 158"
           style="stroke-width:0.2483in"
           transform="matrix(0.0293333 0 0 -0.0293333 18.48 0)"
           id="path748" />
        <path
           d="M 126 662 L 378 346 L 378 0 M 630 662 L 378 346"
           style="stroke-width:0.2483in"
           transform="matrix(0.0293333 0 0 -0.0293333 48.0479 0)"
           id="path749" />
        <path
           d="M 346 441 L 284 410 L 220 346 L 189 252 L 189 189 L 220 94.5 L 284 31.5 L 346 0 L 441 0 L 504 31.5 L 567 94.5 L 598 189 L 598 252 L 567 346 L 504 410 L 441 441 L 346 441"
           style="stroke-width:0.2483in"
           transform="matrix(0.0293333 0 0 -0.0293333 64.6799 0)"
           id="path750" />
        <path
           d="M 220 441 L 220 126 L 252 31.5 L 315 0 L 410 0 L 472 31.5 L 567 126 M 567 441 L 567 0"
           style="stroke-width:0.2483in"
           transform="matrix(0.0293333 0 0 -0.0293333 82.2212 0)"
           id="path751" />
        <path
           d="M 536 346 L 504 410 L 410 441 L 315 441 L 220 410 L 189 346 L 220 284 L 284 252 L 441 220 L 504 189 L 536 126 L 536 94.5 L 504 31.5 L 410 0 L 315 0 L 220 31.5 L 189 94.5"
           style="stroke-width:0.2483in"
           transform="matrix(0.0293333 0 0 -0.0293333 110.851 0)"
           id="path752" />
        <path
           d="M 220 662 L 220 0 M 220 315 L 315 410 L 378 441 L 472 441 L 536 410 L 567 315 L 567 0"
           style="stroke-width:0.2483in"
           transform="matrix(0.0293333 0 0 -0.0293333 126.573 0)"
           id="path753" />
        <path
           d="M 567 441 L 567 0 M 567 346 L 504 410 L 441 441 L 346 441 L 284 410 L 220 346 L 189 252 L 189 189 L 220 94.5 L 284 31.5 L 346 0 L 441 0 L 504 31.5 L 567 94.5"
           style="stroke-width:0.2483in"
           transform="matrix(0.0293333 0 0 -0.0293333 144.115 0)"
           id="path754" />
        <path
           d="M 220 662 L 220 0"
           style="stroke-width:0.2483in"
           transform="matrix(0.0293333 0 0 -0.0293333 161.656 0)"
           id="path755" />
        <path
           d="M 220 662 L 220 0"
           style="stroke-width:0.2483in"
           transform="matrix(0.0293333 0 0 -0.0293333 169.048 0)"
           id="path756" />
        <path
           d="M 220 441 L 220 0 M 220 315 L 315 410 L 378 441 L 472 441 L 536 410 L 567 315 L 567 0"
           style="stroke-width:0.2483in"
           transform="matrix(0.0293333 0 0 -0.0293333 187.528 0)"
           id="path757" />
        <path
           d="M 346 441 L 284 410 L 220 346 L 189 252 L 189 189 L 220 94.5 L 284 31.5 L 346 0 L 441 0 L 504 31.5 L 567 94.5 L 598 189 L 598 252 L 567 346 L 504 410 L 441 441 L 346 441"
           style="stroke-width:0.2483in"
           transform="matrix(0.0293333 0 0 -0.0293333 205.069 0)"
           id="path758" />
        <path
           d="M 252 662 L 252 126 L 284 31.5 L 346 0 L 410 0 M 158 441 L 378 441"
           style="stroke-width:0.2483in"
           transform="matrix(0.0293333 0 0 -0.0293333 222.61 0)"
           id="path759" />
        <path
           d="M 220 441 L 220 0 M 220 315 L 315 410 L 378 441 L 472 441 L 536 410 L 567 315 L 567 0 M 567 315 L 662 410 L 724 441 L 819 441 L 882 410 L 914 315 L 914 0"
           style="stroke-width:0.2483in"
           transform="matrix(0.0293333 0 0 -0.0293333 244.786 0)"
           id="path760" />
        <path
           d="M 220 441 L 220 126 L 252 31.5 L 315 0 L 410 0 L 472 31.5 L 567 126 M 567 441 L 567 0"
           style="stroke-width:0.2483in"
           transform="matrix(0.0293333 0 0 -0.0293333 272.506 0)"
           id="path761" />
        <path
           d="M 220 441 L 220 0 M 220 252 L 252 346 L 315 410 L 378 441 L 472 441"
           style="stroke-width:0.2483in"
           transform="matrix(0.0293333 0 0 -0.0293333 290.048 0)"
           id="path762" />
        <path
           d="M 567 662 L 567 0 M 567 346 L 504 410 L 441 441 L 346 441 L 284 410 L 220 346 L 189 252 L 189 189 L 220 94.5 L 284 31.5 L 346 0 L 441 0 L 504 31.5 L 567 94.5"
           style="stroke-width:0.2483in"
           transform="matrix(0.0293333 0 0 -0.0293333 302.074 0)"
           id="path763" />
        <path
           d="M 189 252 L 567 252 L 567 315 L 536 378 L 504 410 L 441 441 L 346 441 L 284 410 L 220 346 L 189 252 L 189 189 L 220 94.5 L 284 31.5 L 346 0 L 441 0 L 504 31.5 L 567 94.5"
           style="stroke-width:0.2483in"
           transform="matrix(0.0293333 0 0 -0.0293333 319.616 0)"
           id="path764" />
        <path
           d="M 220 441 L 220 0 M 220 252 L 252 346 L 315 410 L 378 441 L 472 441"
           style="stroke-width:0.2483in"
           transform="matrix(0.0293333 0 0 -0.0293333 336.248 0)"
           id="path765" />
        <path
           d="M 220 158 L 189 126 L 220 94.5 L 252 126 L 220 158"
           style="stroke-width:0.2483in"
           transform="matrix(0.0293333 0 0 -0.0293333 348.274 0)"
           id="path766" />
      </g>
      <g
         transform="translate(31.4902, 515.161)"
         id="g794">
        <path
           d="M 630 662 L 315 0 M 189 662 L 630 662"
           style="stroke-width:0.2483in"
           transform="scale(0.0293333, -0.0293333)"
           id="path767" />
        <path
           d="M 220 158 L 189 126 L 220 94.5 L 252 126 L 220 158"
           style="stroke-width:0.2483in"
           transform="matrix(0.0293333 0 0 -0.0293333 18.48 0)"
           id="path768" />
        <path
           d="M 126 662 L 378 346 L 378 0 M 630 662 L 378 346"
           style="stroke-width:0.2483in"
           transform="matrix(0.0293333 0 0 -0.0293333 48.0479 0)"
           id="path769" />
        <path
           d="M 346 441 L 284 410 L 220 346 L 189 252 L 189 189 L 220 94.5 L 284 31.5 L 346 0 L 441 0 L 504 31.5 L 567 94.5 L 598 189 L 598 252 L 567 346 L 504 410 L 441 441 L 346 441"
           style="stroke-width:0.2483in"
           transform="matrix(0.0293333 0 0 -0.0293333 64.6799 0)"
           id="path770" />
        <path
           d="M 220 441 L 220 126 L 252 31.5 L 315 0 L 410 0 L 472 31.5 L 567 126 M 567 441 L 567 0"
           style="stroke-width:0.2483in"
           transform="matrix(0.0293333 0 0 -0.0293333 82.2212 0)"
           id="path771" />
        <path
           d="M 536 346 L 504 410 L 410 441 L 315 441 L 220 410 L 189 346 L 220 284 L 284 252 L 441 220 L 504 189 L 536 126 L 536 94.5 L 504 31.5 L 410 0 L 315 0 L 220 31.5 L 189 94.5"
           style="stroke-width:0.2483in"
           transform="matrix(0.0293333 0 0 -0.0293333 110.851 0)"
           id="path772" />
        <path
           d="M 220 662 L 220 0 M 220 315 L 315 410 L 378 441 L 472 441 L 536 410 L 567 315 L 567 0"
           style="stroke-width:0.2483in"
           transform="matrix(0.0293333 0 0 -0.0293333 126.573 0)"
           id="path773" />
        <path
           d="M 567 441 L 567 0 M 567 346 L 504 410 L 441 441 L 346 441 L 284 410 L 220 346 L 189 252 L 189 189 L 220 94.5 L 284 31.5 L 346 0 L 441 0 L 504 31.5 L 567 94.5"
           style="stroke-width:0.2483in"
           transform="matrix(0.0293333 0 0 -0.0293333 144.115 0)"
           id="path774" />
        <path
           d="M 220 662 L 220 0"
           style="stroke-width:0.2483in"
           transform="matrix(0.0293333 0 0 -0.0293333 161.656 0)"
           id="path775" />
        <path
           d="M 220 662 L 220 0"
           style="stroke-width:0.2483in"
           transform="matrix(0.0293333 0 0 -0.0293333 169.048 0)"
           id="path776" />
        <path
           d="M 220 441 L 220 0 M 220 315 L 315 410 L 378 441 L 472 441 L 536 410 L 567 315 L 567 0"
           style="stroke-width:0.2483in"
           transform="matrix(0.0293333 0 0 -0.0293333 187.528 0)"
           id="path777" />
        <path
           d="M 346 441 L 284 410 L 220 346 L 189 252 L 189 189 L 220 94.5 L 284 31.5 L 346 0 L 441 0 L 504 31.5 L 567 94.5 L 598 189 L 598 252 L 567 346 L 504 410 L 441 441 L 346 441"
           style="stroke-width:0.2483in"
           transform="matrix(0.0293333 0 0 -0.0293333 205.069 0)"
           id="path778" />
        <path
           d="M 252 662 L 252 126 L 284 31.5 L 346 0 L 410 0 M 158 441 L 378 441"
           style="stroke-width:0.2483in"
           transform="matrix(0.0293333 0 0 -0.0293333 222.61 0)"
           id="path779" />
        <path
           d="M 567 346 L 504 410 L 441 441 L 346 441 L 284 410 L 220 346 L 189 252 L 189 189 L 220 94.5 L 284 31.5 L 346 0 L 441 0 L 504 31.5 L 567 94.5"
           style="stroke-width:0.2483in"
           transform="matrix(0.0293333 0 0 -0.0293333 244.786 0)"
           id="path780" />
        <path
           d="M 346 441 L 284 410 L 220 346 L 189 252 L 189 189 L 220 94.5 L 284 31.5 L 346 0 L 441 0 L 504 31.5 L 567 94.5 L 598 189 L 598 252 L 567 346 L 504 410 L 441 441 L 346 441"
           style="stroke-width:0.2483in"
           transform="matrix(0.0293333 0 0 -0.0293333 261.418 0)"
           id="path781" />
        <path
           d="M 220 441 L 220 0 M 220 315 L 315 410 L 378 441 L 472 441 L 536 410 L 567 315 L 567 0 M 567 315 L 662 410 L 724 441 L 819 441 L 882 410 L 914 315 L 914 0"
           style="stroke-width:0.2483in"
           transform="matrix(0.0293333 0 0 -0.0293333 278.96 0)"
           id="path782" />
        <path
           d="M 220 441 L 220 0 M 220 315 L 315 410 L 378 441 L 472 441 L 536 410 L 567 315 L 567 0 M 567 315 L 662 410 L 724 441 L 819 441 L 882 410 L 914 315 L 914 0"
           style="stroke-width:0.2483in"
           transform="matrix(0.0293333 0 0 -0.0293333 306.68 0)"
           id="path783" />
        <path
           d="M 189 662 L 220 630 L 252 662 L 220 693 L 189 662 M 220 441 L 220 0"
           style="stroke-width:0.2483in"
           transform="matrix(0.0293333 0 0 -0.0293333 334.4 0)"
           id="path784" />
        <path
           d="M 252 662 L 252 126 L 284 31.5 L 346 0 L 410 0 M 158 441 L 378 441"
           style="stroke-width:0.2483in"
           transform="matrix(0.0293333 0 0 -0.0293333 341.792 0)"
           id="path785" />
        <path
           d="M 567 441 L 567 0 M 567 346 L 504 410 L 441 441 L 346 441 L 284 410 L 220 346 L 189 252 L 189 189 L 220 94.5 L 284 31.5 L 346 0 L 441 0 L 504 31.5 L 567 94.5"
           style="stroke-width:0.2483in"
           transform="matrix(0.0293333 0 0 -0.0293333 363.968 0)"
           id="path786" />
        <path
           d="M 567 662 L 567 0 M 567 346 L 504 410 L 441 441 L 346 441 L 284 410 L 220 346 L 189 252 L 189 189 L 220 94.5 L 284 31.5 L 346 0 L 441 0 L 504 31.5 L 567 94.5"
           style="stroke-width:0.2483in"
           transform="matrix(0.0293333 0 0 -0.0293333 381.509 0)"
           id="path787" />
        <path
           d="M 220 441 L 220 126 L 252 31.5 L 315 0 L 410 0 L 472 31.5 L 567 126 M 567 441 L 567 0"
           style="stroke-width:0.2483in"
           transform="matrix(0.0293333 0 0 -0.0293333 399.05 0)"
           id="path788" />
        <path
           d="M 220 662 L 220 0"
           style="stroke-width:0.2483in"
           transform="matrix(0.0293333 0 0 -0.0293333 416.592 0)"
           id="path789" />
        <path
           d="M 252 662 L 252 126 L 284 31.5 L 346 0 L 410 0 M 158 441 L 378 441"
           style="stroke-width:0.2483in"
           transform="matrix(0.0293333 0 0 -0.0293333 423.984 0)"
           id="path790" />
        <path
           d="M 189 252 L 567 252 L 567 315 L 536 378 L 504 410 L 441 441 L 346 441 L 284 410 L 220 346 L 189 252 L 189 189 L 220 94.5 L 284 31.5 L 346 0 L 441 0 L 504 31.5 L 567 94.5"
           style="stroke-width:0.2483in"
           transform="matrix(0.0293333 0 0 -0.0293333 435.072 0)"
           id="path791" />
        <path
           d="M 220 441 L 220 0 M 220 252 L 252 346 L 315 410 L 378 441 L 472 441"
           style="stroke-width:0.2483in"
           transform="matrix(0.0293333 0 0 -0.0293333 451.703 0)"
           id="path792" />
        <path
           d="M 158 441 L 346 0 M 536 441 L 346 0 L 284 -126 L 220 -189 L 158 -220 L 126 -220"
           style="stroke-width:0.2483in"
           transform="matrix(0.0293333 0 0 -0.0293333 463.73 0)"
           id="path793" />
        <path
           d="M 220 158 L 189 126 L 220 94.5 L 252 126 L 220 158"
           style="stroke-width:0.2483in"
           transform="matrix(0.0293333 0 0 -0.0293333 478.514 0)"
           id="path794" />
      </g>
      <g
         transform="translate(31.4902, 565.028)"
         id="g813">
        <path
           d="M 346 662 L 252 630 L 220 567 L 220 504 L 252 441 L 315 410 L 441 378 L 536 346 L 598 284 L 630 220 L 630 126 L 598 63 L 567 31.5 L 472 0 L 346 0 L 252 31.5 L 220 63 L 189 126 L 189 220 L 220 284 L 284 346 L 378 378 L 504 410 L 567 441 L 598 504 L 598 567 L 567 630 L 472 662 L 346 662"
           style="stroke-width:0.2483in"
           transform="scale(0.0293333, -0.0293333)"
           id="path795" />
        <path
           d="M 220 158 L 189 126 L 220 94.5 L 252 126 L 220 158"
           style="stroke-width:0.2483in"
           transform="matrix(0.0293333 0 0 -0.0293333 18.48 0)"
           id="path796" />
        <path
           d="M 126 662 L 378 346 L 378 0 M 630 662 L 378 346"
           style="stroke-width:0.2483in"
           transform="matrix(0.0293333 0 0 -0.0293333 48.0479 0)"
           id="path797" />
        <path
           d="M 346 441 L 284 410 L 220 346 L 189 252 L 189 189 L 220 94.5 L 284 31.5 L 346 0 L 441 0 L 504 31.5 L 567 94.5 L 598 189 L 598 252 L 567 346 L 504 410 L 441 441 L 346 441"
           style="stroke-width:0.2483in"
           transform="matrix(0.0293333 0 0 -0.0293333 64.6799 0)"
           id="path798" />
        <path
           d="M 220 441 L 220 126 L 252 31.5 L 315 0 L 410 0 L 472 31.5 L 567 126 M 567 441 L 567 0"
           style="stroke-width:0.2483in"
           transform="matrix(0.0293333 0 0 -0.0293333 82.2212 0)"
           id="path799" />
        <path
           d="M 536 346 L 504 410 L 410 441 L 315 441 L 220 410 L 189 346 L 220 284 L 284 252 L 441 220 L 504 189 L 536 126 L 536 94.5 L 504 31.5 L 410 0 L 315 0 L 220 31.5 L 189 94.5"
           style="stroke-width:0.2483in"
           transform="matrix(0.0293333 0 0 -0.0293333 110.851 0)"
           id="path800" />
        <path
           d="M 220 662 L 220 0 M 220 315 L 315 410 L 378 441 L 472 441 L 536 410 L 567 315 L 567 0"
           style="stroke-width:0.2483in"
           transform="matrix(0.0293333 0 0 -0.0293333 126.573 0)"
           id="path801" />
        <path
           d="M 567 441 L 567 0 M 567 346 L 504 410 L 441 441 L 346 441 L 284 410 L 220 346 L 189 252 L 189 189 L 220 94.5 L 284 31.5 L 346 0 L 441 0 L 504 31.5 L 567 94.5"
           style="stroke-width:0.2483in"
           transform="matrix(0.0293333 0 0 -0.0293333 144.115 0)"
           id="path802" />
        <path
           d="M 220 662 L 220 0"
           style="stroke-width:0.2483in"
           transform="matrix(0.0293333 0 0 -0.0293333 161.656 0)"
           id="path803" />
        <path
           d="M 220 662 L 220 0"
           style="stroke-width:0.2483in"
           transform="matrix(0.0293333 0 0 -0.0293333 169.048 0)"
           id="path804" />
        <path
           d="M 220 441 L 220 0 M 220 315 L 315 410 L 378 441 L 472 441 L 536 410 L 567 315 L 567 0"
           style="stroke-width:0.2483in"
           transform="matrix(0.0293333 0 0 -0.0293333 187.528 0)"
           id="path805" />
        <path
           d="M 346 441 L 284 410 L 220 346 L 189 252 L 189 189 L 220 94.5 L 284 31.5 L 346 0 L 441 0 L 504 31.5 L 567 94.5 L 598 189 L 598 252 L 567 346 L 504 410 L 441 441 L 346 441"
           style="stroke-width:0.2483in"
           transform="matrix(0.0293333 0 0 -0.0293333 205.069 0)"
           id="path806" />
        <path
           d="M 252 662 L 252 126 L 284 31.5 L 346 0 L 410 0 M 158 441 L 378 441"
           style="stroke-width:0.2483in"
           transform="matrix(0.0293333 0 0 -0.0293333 222.61 0)"
           id="path807" />
        <path
           d="M 536 346 L 504 410 L 410 441 L 315 441 L 220 410 L 189 346 L 220 284 L 284 252 L 441 220 L 504 189 L 536 126 L 536 94.5 L 504 31.5 L 410 0 L 315 0 L 220 31.5 L 189 94.5"
           style="stroke-width:0.2483in"
           transform="matrix(0.0293333 0 0 -0.0293333 244.786 0)"
           id="path808" />
        <path
           d="M 252 662 L 252 126 L 284 31.5 L 346 0 L 410 0 M 158 441 L 378 441"
           style="stroke-width:0.2483in"
           transform="matrix(0.0293333 0 0 -0.0293333 260.509 0)"
           id="path809" />
        <path
           d="M 189 252 L 567 252 L 567 315 L 536 378 L 504 410 L 441 441 L 346 441 L 284 410 L 220 346 L 189 252 L 189 189 L 220 94.5 L 284 31.5 L 346 0 L 441 0 L 504 31.5 L 567 94.5"
           style="stroke-width:0.2483in"
           transform="matrix(0.0293333 0 0 -0.0293333 271.597 0)"
           id="path810" />
        <path
           d="M 567 441 L 567 0 M 567 346 L 504 410 L 441 441 L 346 441 L 284 410 L 220 346 L 189 252 L 189 189 L 220 94.5 L 284 31.5 L 346 0 L 441 0 L 504 31.5 L 567 94.5"
           style="stroke-width:0.2483in"
           transform="matrix(0.0293333 0 0 -0.0293333 288.229 0)"
           id="path811" />
        <path
           d="M 220 662 L 220 0"
           style="stroke-width:0.2483in"
           transform="matrix(0.0293333 0 0 -0.0293333 305.77 0)"
           id="path812" />
        <path
           d="M 220 158 L 189 126 L 220 94.5 L 252 126 L 220 158"
           style="stroke-width:0.2483in"
           transform="matrix(0.0293333 0 0 -0.0293333 313.162 0)"
           id="path813" />
      </g>
      <g
         transform="translate(31.4902, 614.894)"
         id="g835">
        <path
           d="M 598 441 L 567 346 L 504 284 L 410 252 L 378 252 L 284 284 L 220 346 L 189 441 L 189 472 L 220 567 L 284 630 L 378 662 L 410 662 L 504 630 L 567 567 L 598 441 L 598 284 L 567 126 L 504 31.5 L 410 0 L 346 0 L 252 31.5 L 220 94.5"
           style="stroke-width:0.2483in"
           transform="scale(0.0293333, -0.0293333)"
           id="path814" />
        <path
           d="M 220 158 L 189 126 L 220 94.5 L 252 126 L 220 158"
           style="stroke-width:0.2483in"
           transform="matrix(0.0293333 0 0 -0.0293333 18.48 0)"
           id="path815" />
        <path
           d="M 126 662 L 378 346 L 378 0 M 630 662 L 378 346"
           style="stroke-width:0.2483in"
           transform="matrix(0.0293333 0 0 -0.0293333 48.0479 0)"
           id="path816" />
        <path
           d="M 346 441 L 284 410 L 220 346 L 189 252 L 189 189 L 220 94.5 L 284 31.5 L 346 0 L 441 0 L 504 31.5 L 567 94.5 L 598 189 L 598 252 L 567 346 L 504 410 L 441 441 L 346 441"
           style="stroke-width:0.2483in"
           transform="matrix(0.0293333 0 0 -0.0293333 64.6799 0)"
           id="path817" />
        <path
           d="M 220 441 L 220 126 L 252 31.5 L 315 0 L 410 0 L 472 31.5 L 567 126 M 567 441 L 567 0"
           style="stroke-width:0.2483in"
           transform="matrix(0.0293333 0 0 -0.0293333 82.2212 0)"
           id="path818" />
        <path
           d="M 536 346 L 504 410 L 410 441 L 315 441 L 220 410 L 189 346 L 220 284 L 284 252 L 441 220 L 504 189 L 536 126 L 536 94.5 L 504 31.5 L 410 0 L 315 0 L 220 31.5 L 189 94.5"
           style="stroke-width:0.2483in"
           transform="matrix(0.0293333 0 0 -0.0293333 110.851 0)"
           id="path819" />
        <path
           d="M 220 662 L 220 0 M 220 315 L 315 410 L 378 441 L 472 441 L 536 410 L 567 315 L 567 0"
           style="stroke-width:0.2483in"
           transform="matrix(0.0293333 0 0 -0.0293333 126.573 0)"
           id="path820" />
        <path
           d="M 567 441 L 567 0 M 567 346 L 504 410 L 441 441 L 346 441 L 284 410 L 220 346 L 189 252 L 189 189 L 220 94.5 L 284 31.5 L 346 0 L 441 0 L 504 31.5 L 567 94.5"
           style="stroke-width:0.2483in"
           transform="matrix(0.0293333 0 0 -0.0293333 144.115 0)"
           id="path821" />
        <path
           d="M 220 662 L 220 0"
           style="stroke-width:0.2483in"
           transform="matrix(0.0293333 0 0 -0.0293333 161.656 0)"
           id="path822" />
        <path
           d="M 220 662 L 220 0"
           style="stroke-width:0.2483in"
           transform="matrix(0.0293333 0 0 -0.0293333 169.048 0)"
           id="path823" />
        <path
           d="M 220 441 L 220 0 M 220 315 L 315 410 L 378 441 L 472 441 L 536 410 L 567 315 L 567 0"
           style="stroke-width:0.2483in"
           transform="matrix(0.0293333 0 0 -0.0293333 187.528 0)"
           id="path824" />
        <path
           d="M 346 441 L 284 410 L 220 346 L 189 252 L 189 189 L 220 94.5 L 284 31.5 L 346 0 L 441 0 L 504 31.5 L 567 94.5 L 598 189 L 598 252 L 567 346 L 504 410 L 441 441 L 346 441"
           style="stroke-width:0.2483in"
           transform="matrix(0.0293333 0 0 -0.0293333 205.069 0)"
           id="path825" />
        <path
           d="M 252 662 L 252 126 L 284 31.5 L 346 0 L 410 0 M 158 441 L 378 441"
           style="stroke-width:0.2483in"
           transform="matrix(0.0293333 0 0 -0.0293333 222.61 0)"
           id="path826" />
        <path
           d="M 220 662 L 220 0 M 220 346 L 284 410 L 346 441 L 441 441 L 504 410 L 567 346 L 598 252 L 598 189 L 567 94.5 L 504 31.5 L 441 0 L 346 0 L 284 31.5 L 220 94.5"
           style="stroke-width:0.2483in"
           transform="matrix(0.0293333 0 0 -0.0293333 244.786 0)"
           id="path827" />
        <path
           d="M 189 252 L 567 252 L 567 315 L 536 378 L 504 410 L 441 441 L 346 441 L 284 410 L 220 346 L 189 252 L 189 189 L 220 94.5 L 284 31.5 L 346 0 L 441 0 L 504 31.5 L 567 94.5"
           style="stroke-width:0.2483in"
           transform="matrix(0.0293333 0 0 -0.0293333 262.328 0)"
           id="path828" />
        <path
           d="M 567 441 L 567 0 M 567 346 L 504 410 L 441 441 L 346 441 L 284 410 L 220 346 L 189 252 L 189 189 L 220 94.5 L 284 31.5 L 346 0 L 441 0 L 504 31.5 L 567 94.5"
           style="stroke-width:0.2483in"
           transform="matrix(0.0293333 0 0 -0.0293333 278.96 0)"
           id="path829" />
        <path
           d="M 220 441 L 220 0 M 220 252 L 252 346 L 315 410 L 378 441 L 472 441"
           style="stroke-width:0.2483in"
           transform="matrix(0.0293333 0 0 -0.0293333 296.501 0)"
           id="path830" />
        <path
           d="M 410 662 L 346 662 L 284 630 L 252 536 L 252 0 M 158 441 L 378 441"
           style="stroke-width:0.2483in"
           transform="matrix(0.0293333 0 0 -0.0293333 319.616 0)"
           id="path831" />
        <path
           d="M 567 441 L 567 0 M 567 346 L 504 410 L 441 441 L 346 441 L 284 410 L 220 346 L 189 252 L 189 189 L 220 94.5 L 284 31.5 L 346 0 L 441 0 L 504 31.5 L 567 94.5"
           style="stroke-width:0.2483in"
           transform="matrix(0.0293333 0 0 -0.0293333 330.704 0)"
           id="path832" />
        <path
           d="M 220 662 L 220 0"
           style="stroke-width:0.2483in"
           transform="matrix(0.0293333 0 0 -0.0293333 348.245 0)"
           id="path833" />
        <path
           d="M 536 346 L 504 410 L 410 441 L 315 441 L 220 410 L 189 346 L 220 284 L 284 252 L 441 220 L 504 189 L 536 126 L 536 94.5 L 504 31.5 L 410 0 L 315 0 L 220 31.5 L 189 94.5"
           style="stroke-width:0.2483in"
           transform="matrix(0.0293333 0 0 -0.0293333 355.637 0)"
           id="path834" />
        <path
           d="M 189 252 L 567 252 L 567 315 L 536 378 L 504 410 L 441 441 L 346 441 L 284 410 L 220 346 L 189 252 L 189 189 L 220 94.5 L 284 31.5 L 346 0 L 441 0 L 504 31.5 L 567 94.5"
           style="stroke-width:0.2483in"
           transform="matrix(0.0293333 0 0 -0.0293333 371.36 0)"
           id="path835" />
      </g>
      <g
         transform="translate(31.4902, 664.761)"
         id="g862">
        <path
           d="M 189 441 L 315 0 M 441 441 L 315 0 M 441 441 L 567 0 M 693 441 L 567 0"
           style="stroke-width:0.2483in"
           transform="matrix(0.0293333 0 0 -0.0293333 55.4399 0)"
           id="path836" />
        <path
           d="M 189 662 L 220 630 L 252 662 L 220 693 L 189 662 M 220 441 L 220 0"
           style="stroke-width:0.2483in"
           transform="matrix(0.0293333 0 0 -0.0293333 75.7679 0)"
           id="path837" />
        <path
           d="M 252 662 L 252 126 L 284 31.5 L 346 0 L 410 0 M 158 441 L 378 441"
           style="stroke-width:0.2483in"
           transform="matrix(0.0293333 0 0 -0.0293333 83.1599 0)"
           id="path838" />
        <path
           d="M 220 441 L 220 0 M 220 315 L 315 410 L 378 441 L 472 441 L 536 410 L 567 315 L 567 0"
           style="stroke-width:0.2483in"
           transform="matrix(0.0293333 0 0 -0.0293333 94.2479 0)"
           id="path839" />
        <path
           d="M 189 252 L 567 252 L 567 315 L 536 378 L 504 410 L 441 441 L 346 441 L 284 410 L 220 346 L 189 252 L 189 189 L 220 94.5 L 284 31.5 L 346 0 L 441 0 L 504 31.5 L 567 94.5"
           style="stroke-width:0.2483in"
           transform="matrix(0.0293333 0 0 -0.0293333 111.789 0)"
           id="path840" />
        <path
           d="M 536 346 L 504 410 L 410 441 L 315 441 L 220 410 L 189 346 L 220 284 L 284 252 L 441 220 L 504 189 L 536 126 L 536 94.5 L 504 31.5 L 410 0 L 315 0 L 220 31.5 L 189 94.5"
           style="stroke-width:0.2483in"
           transform="matrix(0.0293333 0 0 -0.0293333 128.421 0)"
           id="path841" />
        <path
           d="M 536 346 L 504 410 L 410 441 L 315 441 L 220 410 L 189 346 L 220 284 L 284 252 L 441 220 L 504 189 L 536 126 L 536 94.5 L 504 31.5 L 410 0 L 315 0 L 220 31.5 L 189 94.5"
           style="stroke-width:0.2483in"
           transform="matrix(0.0293333 0 0 -0.0293333 144.144 0)"
           id="path842" />
        <path
           d="M 567 441 L 567 0 M 567 346 L 504 410 L 441 441 L 346 441 L 284 410 L 220 346 L 189 252 L 189 189 L 220 94.5 L 284 31.5 L 346 0 L 441 0 L 504 31.5 L 567 94.5"
           style="stroke-width:0.2483in"
           transform="matrix(0.0293333 0 0 -0.0293333 170.954 0)"
           id="path843" />
        <path
           d="M 567 441 L 567 -63 L 536 -158 L 504 -189 L 441 -220 L 346 -220 L 284 -189 M 567 346 L 504 410 L 441 441 L 346 441 L 284 410 L 220 346 L 189 252 L 189 189 L 220 94.5 L 284 31.5 L 346 0 L 441 0 L 504 31.5 L 567 94.5"
           style="stroke-width:0.2483in"
           transform="matrix(0.0293333 0 0 -0.0293333 188.496 0)"
           id="path844" />
        <path
           d="M 567 441 L 567 0 M 567 346 L 504 410 L 441 441 L 346 441 L 284 410 L 220 346 L 189 252 L 189 189 L 220 94.5 L 284 31.5 L 346 0 L 441 0 L 504 31.5 L 567 94.5"
           style="stroke-width:0.2483in"
           transform="matrix(0.0293333 0 0 -0.0293333 206.037 0)"
           id="path845" />
        <path
           d="M 189 662 L 220 630 L 252 662 L 220 693 L 189 662 M 220 441 L 220 0"
           style="stroke-width:0.2483in"
           transform="matrix(0.0293333 0 0 -0.0293333 223.578 0)"
           id="path846" />
        <path
           d="M 220 441 L 220 0 M 220 315 L 315 410 L 378 441 L 472 441 L 536 410 L 567 315 L 567 0"
           style="stroke-width:0.2483in"
           transform="matrix(0.0293333 0 0 -0.0293333 230.97 0)"
           id="path847" />
        <path
           d="M 536 346 L 504 410 L 410 441 L 315 441 L 220 410 L 189 346 L 220 284 L 284 252 L 441 220 L 504 189 L 536 126 L 536 94.5 L 504 31.5 L 410 0 L 315 0 L 220 31.5 L 189 94.5"
           style="stroke-width:0.2483in"
           transform="matrix(0.0293333 0 0 -0.0293333 248.512 0)"
           id="path848" />
        <path
           d="M 252 662 L 252 126 L 284 31.5 L 346 0 L 410 0 M 158 441 L 378 441"
           style="stroke-width:0.2483in"
           transform="matrix(0.0293333 0 0 -0.0293333 264.234 0)"
           id="path849" />
        <path
           d="M 158 441 L 346 0 M 536 441 L 346 0 L 284 -126 L 220 -189 L 158 -220 L 126 -220"
           style="stroke-width:0.2483in"
           transform="matrix(0.0293333 0 0 -0.0293333 286.41 0)"
           id="path850" />
        <path
           d="M 346 441 L 284 410 L 220 346 L 189 252 L 189 189 L 220 94.5 L 284 31.5 L 346 0 L 441 0 L 504 31.5 L 567 94.5 L 598 189 L 598 252 L 567 346 L 504 410 L 441 441 L 346 441"
           style="stroke-width:0.2483in"
           transform="matrix(0.0293333 0 0 -0.0293333 301.194 0)"
           id="path851" />
        <path
           d="M 220 441 L 220 126 L 252 31.5 L 315 0 L 410 0 L 472 31.5 L 567 126 M 567 441 L 567 0"
           style="stroke-width:0.2483in"
           transform="matrix(0.0293333 0 0 -0.0293333 318.736 0)"
           id="path852" />
        <path
           d="M 220 441 L 220 0 M 220 252 L 252 346 L 315 410 L 378 441 L 472 441"
           style="stroke-width:0.2483in"
           transform="matrix(0.0293333 0 0 -0.0293333 336.277 0)"
           id="path853" />
        <path
           d="M 220 441 L 220 0 M 220 315 L 315 410 L 378 441 L 472 441 L 536 410 L 567 315 L 567 0"
           style="stroke-width:0.2483in"
           transform="matrix(0.0293333 0 0 -0.0293333 359.392 0)"
           id="path854" />
        <path
           d="M 189 252 L 567 252 L 567 315 L 536 378 L 504 410 L 441 441 L 346 441 L 284 410 L 220 346 L 189 252 L 189 189 L 220 94.5 L 284 31.5 L 346 0 L 441 0 L 504 31.5 L 567 94.5"
           style="stroke-width:0.2483in"
           transform="matrix(0.0293333 0 0 -0.0293333 376.933 0)"
           id="path855" />
        <path
           d="M 189 662 L 220 630 L 252 662 L 220 693 L 189 662 M 220 441 L 220 0"
           style="stroke-width:0.2483in"
           transform="matrix(0.0293333 0 0 -0.0293333 393.565 0)"
           id="path856" />
        <path
           d="M 567 441 L 567 -63 L 536 -158 L 504 -189 L 441 -220 L 346 -220 L 284 -189 M 567 346 L 504 410 L 441 441 L 346 441 L 284 410 L 220 346 L 189 252 L 189 189 L 220 94.5 L 284 31.5 L 346 0 L 441 0 L 504 31.5 L 567 94.5"
           style="stroke-width:0.2483in"
           transform="matrix(0.0293333 0 0 -0.0293333 400.957 0)"
           id="path857" />
        <path
           d="M 220 662 L 220 0 M 220 315 L 315 410 L 378 441 L 472 441 L 536 410 L 567 315 L 567 0"
           style="stroke-width:0.2483in"
           transform="matrix(0.0293333 0 0 -0.0293333 418.498 0)"
           id="path858" />
        <path
           d="M 220 662 L 220 0 M 220 346 L 284 410 L 346 441 L 441 441 L 504 410 L 567 346 L 598 252 L 598 189 L 567 94.5 L 504 31.5 L 441 0 L 346 0 L 284 31.5 L 220 94.5"
           style="stroke-width:0.2483in"
           transform="matrix(0.0293333 0 0 -0.0293333 436.04 0)"
           id="path859" />
        <path
           d="M 346 441 L 284 410 L 220 346 L 189 252 L 189 189 L 220 94.5 L 284 31.5 L 346 0 L 441 0 L 504 31.5 L 567 94.5 L 598 189 L 598 252 L 567 346 L 504 410 L 441 441 L 346 441"
           style="stroke-width:0.2483in"
           transform="matrix(0.0293333 0 0 -0.0293333 453.581 0)"
           id="path860" />
        <path
           d="M 220 441 L 220 0 M 220 252 L 252 346 L 315 410 L 378 441 L 472 441"
           style="stroke-width:0.2483in"
           transform="matrix(0.0293333 0 0 -0.0293333 471.122 0)"
           id="path861" />
        <path
           d="M 220 158 L 189 126 L 220 94.5 L 252 126 L 220 158"
           style="stroke-width:0.2483in"
           transform="matrix(0.0293333 0 0 -0.0293333 483.149 0)"
           id="path862" />
      </g>
      <g
         transform="translate(31.4902, 714.628)"
         id="g882">
        <path
           d="M 284 536 L 346 567 L 441 662 L 441 0"
           style="stroke-width:0.2483in"
           transform="scale(0.0293333, -0.0293333)"
           id="path863" />
        <path
           d="M 378 662 L 284 630 L 220 536 L 189 378 L 189 284 L 220 126 L 284 31.5 L 378 0 L 441 0 L 536 31.5 L 598 126 L 630 284 L 630 378 L 598 536 L 536 630 L 441 662 L 378 662"
           style="stroke-width:0.2483in"
           transform="matrix(0.0293333 0 0 -0.0293333 18.48 0)"
           id="path864" />
        <path
           d="M 220 158 L 189 126 L 220 94.5 L 252 126 L 220 158"
           style="stroke-width:0.2483in"
           transform="matrix(0.0293333 0 0 -0.0293333 36.96 0)"
           id="path865" />
        <path
           d="M 126 662 L 378 346 L 378 0 M 630 662 L 378 346"
           style="stroke-width:0.2483in"
           transform="matrix(0.0293333 0 0 -0.0293333 55.4399 0)"
           id="path866" />
        <path
           d="M 346 441 L 284 410 L 220 346 L 189 252 L 189 189 L 220 94.5 L 284 31.5 L 346 0 L 441 0 L 504 31.5 L 567 94.5 L 598 189 L 598 252 L 567 346 L 504 410 L 441 441 L 346 441"
           style="stroke-width:0.2483in"
           transform="matrix(0.0293333 0 0 -0.0293333 72.0719 0)"
           id="path867" />
        <path
           d="M 220 441 L 220 126 L 252 31.5 L 315 0 L 410 0 L 472 31.5 L 567 126 M 567 441 L 567 0"
           style="stroke-width:0.2483in"
           transform="matrix(0.0293333 0 0 -0.0293333 89.6132 0)"
           id="path868" />
        <path
           d="M 536 346 L 504 410 L 410 441 L 315 441 L 220 410 L 189 346 L 220 284 L 284 252 L 441 220 L 504 189 L 536 126 L 536 94.5 L 504 31.5 L 410 0 L 315 0 L 220 31.5 L 189 94.5"
           style="stroke-width:0.2483in"
           transform="matrix(0.0293333 0 0 -0.0293333 118.243 0)"
           id="path869" />
        <path
           d="M 220 662 L 220 0 M 220 315 L 315 410 L 378 441 L 472 441 L 536 410 L 567 315 L 567 0"
           style="stroke-width:0.2483in"
           transform="matrix(0.0293333 0 0 -0.0293333 133.965 0)"
           id="path870" />
        <path
           d="M 567 441 L 567 0 M 567 346 L 504 410 L 441 441 L 346 441 L 284 410 L 220 346 L 189 252 L 189 189 L 220 94.5 L 284 31.5 L 346 0 L 441 0 L 504 31.5 L 567 94.5"
           style="stroke-width:0.2483in"
           transform="matrix(0.0293333 0 0 -0.0293333 151.506 0)"
           id="path871" />
        <path
           d="M 220 662 L 220 0"
           style="stroke-width:0.2483in"
           transform="matrix(0.0293333 0 0 -0.0293333 169.048 0)"
           id="path872" />
        <path
           d="M 220 662 L 220 0"
           style="stroke-width:0.2483in"
           transform="matrix(0.0293333 0 0 -0.0293333 176.44 0)"
           id="path873" />
        <path
           d="M 220 441 L 220 0 M 220 315 L 315 410 L 378 441 L 472 441 L 536 410 L 567 315 L 567 0"
           style="stroke-width:0.2483in"
           transform="matrix(0.0293333 0 0 -0.0293333 194.92 0)"
           id="path874" />
        <path
           d="M 346 441 L 284 410 L 220 346 L 189 252 L 189 189 L 220 94.5 L 284 31.5 L 346 0 L 441 0 L 504 31.5 L 567 94.5 L 598 189 L 598 252 L 567 346 L 504 410 L 441 441 L 346 441"
           style="stroke-width:0.2483in"
           transform="matrix(0.0293333 0 0 -0.0293333 212.461 0)"
           id="path875" />
        <path
           d="M 252 662 L 252 126 L 284 31.5 L 346 0 L 410 0 M 158 441 L 378 441"
           style="stroke-width:0.2483in"
           transform="matrix(0.0293333 0 0 -0.0293333 230.002 0)"
           id="path876" />
        <path
           d="M 567 346 L 504 410 L 441 441 L 346 441 L 284 410 L 220 346 L 189 252 L 189 189 L 220 94.5 L 284 31.5 L 346 0 L 441 0 L 504 31.5 L 567 94.5"
           style="stroke-width:0.2483in"
           transform="matrix(0.0293333 0 0 -0.0293333 252.178 0)"
           id="path877" />
        <path
           d="M 346 441 L 284 410 L 220 346 L 189 252 L 189 189 L 220 94.5 L 284 31.5 L 346 0 L 441 0 L 504 31.5 L 567 94.5 L 598 189 L 598 252 L 567 346 L 504 410 L 441 441 L 346 441"
           style="stroke-width:0.2483in"
           transform="matrix(0.0293333 0 0 -0.0293333 268.81 0)"
           id="path878" />
        <path
           d="M 158 441 L 346 0 M 536 441 L 346 0"
           style="stroke-width:0.2483in"
           transform="matrix(0.0293333 0 0 -0.0293333 286.352 0)"
           id="path879" />
        <path
           d="M 189 252 L 567 252 L 567 315 L 536 378 L 504 410 L 441 441 L 346 441 L 284 410 L 220 346 L 189 252 L 189 189 L 220 94.5 L 284 31.5 L 346 0 L 441 0 L 504 31.5 L 567 94.5"
           style="stroke-width:0.2483in"
           transform="matrix(0.0293333 0 0 -0.0293333 301.136 0)"
           id="path880" />
        <path
           d="M 252 662 L 252 126 L 284 31.5 L 346 0 L 410 0 M 158 441 L 378 441"
           style="stroke-width:0.2483in"
           transform="matrix(0.0293333 0 0 -0.0293333 317.768 0)"
           id="path881" />
        <path
           d="M 220 158 L 189 126 L 220 94.5 L 252 126 L 220 158"
           style="stroke-width:0.2483in"
           transform="matrix(0.0293333 0 0 -0.0293333 328.856 0)"
           id="path882" />
      </g>
    </g>
  </g>
</svg>
