<?xml version="1.0" encoding="UTF-8" standalone="no"?>
<!-- Created with Inkscape (http://www.inkscape.org/) -->

<svg
   width="148mm"
   height="105mm"
   viewBox="0 0 559.37006 396.85041"
   version="1.1"
   id="svg1"
   inkscape:version="1.3.2 (091e20ef0f, 2023-11-25, custom)"
   sodipodi:docname="eschaton.svg"
   inkscape:export-filename="../../bitmap.png"
   inkscape:export-xdpi="96"
   inkscape:export-ydpi="96"
   xmlns:inkscape="http://www.inkscape.org/namespaces/inkscape"
   xmlns:sodipodi="http://sodipodi.sourceforge.net/DTD/sodipodi-0.dtd"
   xmlns="http://www.w3.org/2000/svg"
   xmlns:svg="http://www.w3.org/2000/svg">
  <sodipodi:namedview
     id="namedview1"
     pagecolor="#ffffff"
     bordercolor="#000000"
     borderopacity="0.25"
     inkscape:showpageshadow="2"
     inkscape:pageopacity="0.0"
     inkscape:pagecheckerboard="0"
     inkscape:deskcolor="#d1d1d1"
     inkscape:document-units="mm"
     inkscape:zoom="1.4980456"
     inkscape:cx="279.36399"
     inkscape:cy="396.85039"
     inkscape:window-width="3440"
     inkscape:window-height="1371"
     inkscape:window-x="0"
     inkscape:window-y="32"
     inkscape:window-maximized="1"
     inkscape:current-layer="layer1"
     inkscape:export-bgcolor="#ffffffff" />
  <defs
     id="defs1">
    <rect
       x="7.9626861"
       y="7.8007417"
       width="543.50354"
       height="373.26819"
       id="rect1" />
  </defs>
  <g
     inkscape:label="Layer 1"
     inkscape:groupmode="layer"
     id="layer1">
    <g
       inkscape:label="Hershey Text"
       style="fill:none;stroke:#000000;stroke-linecap:round;stroke-linejoin:round"
       id="g394">
      <g
         transform="translate(98.3074, 36.1653)"
         id="g277">
        <path
           d="M 220 662 L 220 0"
           style="stroke-width:0.1384in"
           transform="scale(0.0373333, -0.0373333)"
           id="path263" />
        <path
           d="M 567 441 L 567 0 M 567 346 L 504 410 L 441 441 L 346 441 L 284 410 L 220 346 L 189 252 L 189 189 L 220 94.5 L 284 31.5 L 346 0 L 441 0 L 504 31.5 L 567 94.5"
           style="stroke-width:0.1384in"
           transform="matrix(0.0373333 0 0 -0.0373333 23.52 0)"
           id="path264" />
        <path
           d="M 220 441 L 220 0 M 220 315 L 315 410 L 378 441 L 472 441 L 536 410 L 567 315 L 567 0 M 567 315 L 662 410 L 724 441 L 819 441 L 882 410 L 914 315 L 914 0"
           style="stroke-width:0.1384in"
           transform="matrix(0.0373333 0 0 -0.0373333 45.8453 0)"
           id="path265" />
        <path
           d="M 252 662 L 252 126 L 284 31.5 L 346 0 L 410 0 M 158 441 L 378 441"
           style="stroke-width:0.1384in"
           transform="matrix(0.0373333 0 0 -0.0373333 95.2372 0)"
           id="path266" />
        <path
           d="M 220 662 L 220 0 M 220 315 L 315 410 L 378 441 L 472 441 L 536 410 L 567 315 L 567 0"
           style="stroke-width:0.1384in"
           transform="matrix(0.0373333 0 0 -0.0373333 109.349 0)"
           id="path267" />
        <path
           d="M 189 252 L 567 252 L 567 315 L 536 378 L 504 410 L 441 441 L 346 441 L 284 410 L 220 346 L 189 252 L 189 189 L 220 94.5 L 284 31.5 L 346 0 L 441 0 L 504 31.5 L 567 94.5"
           style="stroke-width:0.1384in"
           transform="matrix(0.0373333 0 0 -0.0373333 131.675 0)"
           id="path268" />
        <path
           d="M 220 662 L 220 0 M 220 662 L 630 662 M 220 346 L 472 346 M 220 0 L 630 0"
           style="stroke-width:0.1384in"
           transform="matrix(0.0373333 0 0 -0.0373333 166.955 0)"
           id="path269" />
        <path
           d="M 536 346 L 504 410 L 410 441 L 315 441 L 220 410 L 189 346 L 220 284 L 284 252 L 441 220 L 504 189 L 536 126 L 536 94.5 L 504 31.5 L 410 0 L 315 0 L 220 31.5 L 189 94.5"
           style="stroke-width:0.1384in"
           transform="matrix(0.0373333 0 0 -0.0373333 189.28 0)"
           id="path270" />
        <path
           d="M 567 346 L 504 410 L 441 441 L 346 441 L 284 410 L 220 346 L 189 252 L 189 189 L 220 94.5 L 284 31.5 L 346 0 L 441 0 L 504 31.5 L 567 94.5"
           style="stroke-width:0.1384in"
           transform="matrix(0.0373333 0 0 -0.0373333 209.29 0)"
           id="path271" />
        <path
           d="M 220 662 L 220 0 M 220 315 L 315 410 L 378 441 L 472 441 L 536 410 L 567 315 L 567 0"
           style="stroke-width:0.1384in"
           transform="matrix(0.0373333 0 0 -0.0373333 230.458 0)"
           id="path272" />
        <path
           d="M 567 441 L 567 0 M 567 346 L 504 410 L 441 441 L 346 441 L 284 410 L 220 346 L 189 252 L 189 189 L 220 94.5 L 284 31.5 L 346 0 L 441 0 L 504 31.5 L 567 94.5"
           style="stroke-width:0.1384in"
           transform="matrix(0.0373333 0 0 -0.0373333 252.784 0)"
           id="path273" />
        <path
           d="M 252 662 L 252 126 L 284 31.5 L 346 0 L 410 0 M 158 441 L 378 441"
           style="stroke-width:0.1384in"
           transform="matrix(0.0373333 0 0 -0.0373333 275.109 0)"
           id="path274" />
        <path
           d="M 346 441 L 284 410 L 220 346 L 189 252 L 189 189 L 220 94.5 L 284 31.5 L 346 0 L 441 0 L 504 31.5 L 567 94.5 L 598 189 L 598 252 L 567 346 L 504 410 L 441 441 L 346 441"
           style="stroke-width:0.1384in"
           transform="matrix(0.0373333 0 0 -0.0373333 289.221 0)"
           id="path275" />
        <path
           d="M 220 441 L 220 0 M 220 315 L 315 410 L 378 441 L 472 441 L 536 410 L 567 315 L 567 0"
           style="stroke-width:0.1384in"
           transform="matrix(0.0373333 0 0 -0.0373333 311.546 0)"
           id="path276" />
        <path
           d="M 220 378 L 189 346 L 220 315 L 252 346 L 220 378 M 252 126 L 220 94.5 L 189 126 L 220 158 L 252 126 L 252 63 L 189 0"
           style="stroke-width:0.1384in"
           transform="matrix(0.0373333 0 0 -0.0373333 333.872 0)"
           id="path277" />
      </g>
      <g
         transform="translate(279.715, 73.4986)"
         id="g278" />
      <g
         transform="translate(104.642, 110.832)"
         id="g291">
        <path
           d="M 220 662 L 220 0"
           style="stroke-width:0.1384in"
           transform="scale(0.0373333, -0.0373333)"
           id="path278" />
        <path
           d="M 567 441 L 567 0 M 567 346 L 504 410 L 441 441 L 346 441 L 284 410 L 220 346 L 189 252 L 189 189 L 220 94.5 L 284 31.5 L 346 0 L 441 0 L 504 31.5 L 567 94.5"
           style="stroke-width:0.1384in"
           transform="matrix(0.0373333 0 0 -0.0373333 23.52 0)"
           id="path279" />
        <path
           d="M 220 441 L 220 0 M 220 315 L 315 410 L 378 441 L 472 441 L 536 410 L 567 315 L 567 0 M 567 315 L 662 410 L 724 441 L 819 441 L 882 410 L 914 315 L 914 0"
           style="stroke-width:0.1384in"
           transform="matrix(0.0373333 0 0 -0.0373333 45.8453 0)"
           id="path280" />
        <path
           d="M 220 441 L 220 0 M 220 315 L 315 410 L 378 441 L 472 441 L 536 410 L 567 315 L 567 0"
           style="stroke-width:0.1384in"
           transform="matrix(0.0373333 0 0 -0.0373333 95.2372 0)"
           id="path281" />
        <path
           d="M 346 441 L 284 410 L 220 346 L 189 252 L 189 189 L 220 94.5 L 284 31.5 L 346 0 L 441 0 L 504 31.5 L 567 94.5 L 598 189 L 598 252 L 567 346 L 504 410 L 441 441 L 346 441"
           style="stroke-width:0.1384in"
           transform="matrix(0.0373333 0 0 -0.0373333 117.563 0)"
           id="path282" />
        <path
           d="M 252 662 L 252 126 L 284 31.5 L 346 0 L 410 0 M 158 441 L 378 441"
           style="stroke-width:0.1384in"
           transform="matrix(0.0373333 0 0 -0.0373333 139.888 0)"
           id="path283" />
        <path
           d="M 158 441 L 346 0 M 536 441 L 346 0 L 284 -126 L 220 -189 L 158 -220 L 126 -220"
           style="stroke-width:0.1384in"
           transform="matrix(0.0373333 0 0 -0.0373333 168.112 0)"
           id="path284" />
        <path
           d="M 346 441 L 284 410 L 220 346 L 189 252 L 189 189 L 220 94.5 L 284 31.5 L 346 0 L 441 0 L 504 31.5 L 567 94.5 L 598 189 L 598 252 L 567 346 L 504 410 L 441 441 L 346 441"
           style="stroke-width:0.1384in"
           transform="matrix(0.0373333 0 0 -0.0373333 186.928 0)"
           id="path285" />
        <path
           d="M 220 441 L 220 126 L 252 31.5 L 315 0 L 410 0 L 472 31.5 L 567 126 M 567 441 L 567 0"
           style="stroke-width:0.1384in"
           transform="matrix(0.0373333 0 0 -0.0373333 209.253 0)"
           id="path286" />
        <path
           d="M 220 441 L 220 0 M 220 252 L 252 346 L 315 410 L 378 441 L 472 441"
           style="stroke-width:0.1384in"
           transform="matrix(0.0373333 0 0 -0.0373333 231.578 0)"
           id="path287" />
        <path
           d="M 662 504 L 630 567 L 567 630 L 504 662 L 378 662 L 315 630 L 252 567 L 220 504 L 189 410 L 189 252 L 220 158 L 252 94.5 L 315 31.5 L 378 0 L 504 0 L 567 31.5 L 630 94.5 L 662 158 L 662 252 M 504 252 L 662 252"
           style="stroke-width:0.1384in"
           transform="matrix(0.0373333 0 0 -0.0373333 260.997 0)"
           id="path288" />
        <path
           d="M 346 441 L 284 410 L 220 346 L 189 252 L 189 189 L 220 94.5 L 284 31.5 L 346 0 L 441 0 L 504 31.5 L 567 94.5 L 598 189 L 598 252 L 567 346 L 504 410 L 441 441 L 346 441"
           style="stroke-width:0.1384in"
           transform="matrix(0.0373333 0 0 -0.0373333 285.712 0)"
           id="path289" />
        <path
           d="M 567 662 L 567 0 M 567 346 L 504 410 L 441 441 L 346 441 L 284 410 L 220 346 L 189 252 L 189 189 L 220 94.5 L 284 31.5 L 346 0 L 441 0 L 504 31.5 L 567 94.5"
           style="stroke-width:0.1384in"
           transform="matrix(0.0373333 0 0 -0.0373333 308.037 0)"
           id="path290" />
        <path
           d="M 220 158 L 189 126 L 220 94.5 L 252 126 L 220 158"
           style="stroke-width:0.1384in"
           transform="matrix(0.0373333 0 0 -0.0373333 330.362 0)"
           id="path291" />
      </g>
      <g
         transform="translate(279.715, 148.165)"
         id="g292" />
      <g
         transform="translate(35.3622, 185.499)"
         id="g311">
        <path
           d="M 220 662 L 220 0"
           style="stroke-width:0.1384in"
           transform="scale(0.0373333, -0.0373333)"
           id="path292" />
        <path
           d="M 567 441 L 567 0 M 567 346 L 504 410 L 441 441 L 346 441 L 284 410 L 220 346 L 189 252 L 189 189 L 220 94.5 L 284 31.5 L 346 0 L 441 0 L 504 31.5 L 567 94.5"
           style="stroke-width:0.1384in"
           transform="matrix(0.0373333 0 0 -0.0373333 23.52 0)"
           id="path293" />
        <path
           d="M 220 441 L 220 0 M 220 315 L 315 410 L 378 441 L 472 441 L 536 410 L 567 315 L 567 0 M 567 315 L 662 410 L 724 441 L 819 441 L 882 410 L 914 315 L 914 0"
           style="stroke-width:0.1384in"
           transform="matrix(0.0373333 0 0 -0.0373333 45.8453 0)"
           id="path294" />
        <path
           d="M 567 662 L 567 0 M 567 346 L 504 410 L 441 441 L 346 441 L 284 410 L 220 346 L 189 252 L 189 189 L 220 94.5 L 284 31.5 L 346 0 L 441 0 L 504 31.5 L 567 94.5"
           style="stroke-width:0.1384in"
           transform="matrix(0.0373333 0 0 -0.0373333 95.2372 0)"
           id="path295" />
        <path
           d="M 189 252 L 567 252 L 567 315 L 536 378 L 504 410 L 441 441 L 346 441 L 284 410 L 220 346 L 189 252 L 189 189 L 220 94.5 L 284 31.5 L 346 0 L 441 0 L 504 31.5 L 567 94.5"
           style="stroke-width:0.1384in"
           transform="matrix(0.0373333 0 0 -0.0373333 117.563 0)"
           id="path296" />
        <path
           d="M 536 346 L 504 410 L 410 441 L 315 441 L 220 410 L 189 346 L 220 284 L 284 252 L 441 220 L 504 189 L 536 126 L 536 94.5 L 504 31.5 L 410 0 L 315 0 L 220 31.5 L 189 94.5"
           style="stroke-width:0.1384in"
           transform="matrix(0.0373333 0 0 -0.0373333 138.731 0)"
           id="path297" />
        <path
           d="M 567 346 L 504 410 L 441 441 L 346 441 L 284 410 L 220 346 L 189 252 L 189 189 L 220 94.5 L 284 31.5 L 346 0 L 441 0 L 504 31.5 L 567 94.5"
           style="stroke-width:0.1384in"
           transform="matrix(0.0373333 0 0 -0.0373333 158.741 0)"
           id="path298" />
        <path
           d="M 189 252 L 567 252 L 567 315 L 536 378 L 504 410 L 441 441 L 346 441 L 284 410 L 220 346 L 189 252 L 189 189 L 220 94.5 L 284 31.5 L 346 0 L 441 0 L 504 31.5 L 567 94.5"
           style="stroke-width:0.1384in"
           transform="matrix(0.0373333 0 0 -0.0373333 179.909 0)"
           id="path299" />
        <path
           d="M 220 441 L 220 0 M 220 315 L 315 410 L 378 441 L 472 441 L 536 410 L 567 315 L 567 0"
           style="stroke-width:0.1384in"
           transform="matrix(0.0373333 0 0 -0.0373333 201.077 0)"
           id="path300" />
        <path
           d="M 567 662 L 567 0 M 567 346 L 504 410 L 441 441 L 346 441 L 284 410 L 220 346 L 189 252 L 189 189 L 220 94.5 L 284 31.5 L 346 0 L 441 0 L 504 31.5 L 567 94.5"
           style="stroke-width:0.1384in"
           transform="matrix(0.0373333 0 0 -0.0373333 223.402 0)"
           id="path301" />
        <path
           d="M 189 252 L 567 252 L 567 315 L 536 378 L 504 410 L 441 441 L 346 441 L 284 410 L 220 346 L 189 252 L 189 189 L 220 94.5 L 284 31.5 L 346 0 L 441 0 L 504 31.5 L 567 94.5"
           style="stroke-width:0.1384in"
           transform="matrix(0.0373333 0 0 -0.0373333 245.728 0)"
           id="path302" />
        <path
           d="M 567 662 L 567 0 M 567 346 L 504 410 L 441 441 L 346 441 L 284 410 L 220 346 L 189 252 L 189 189 L 220 94.5 L 284 31.5 L 346 0 L 441 0 L 504 31.5 L 567 94.5"
           style="stroke-width:0.1384in"
           transform="matrix(0.0373333 0 0 -0.0373333 266.896 0)"
           id="path303" />
        <path
           d="M 410 662 L 346 662 L 284 630 L 252 536 L 252 0 M 158 441 L 378 441"
           style="stroke-width:0.1384in"
           transform="matrix(0.0373333 0 0 -0.0373333 303.333 0)"
           id="path304" />
        <path
           d="M 220 441 L 220 0 M 220 252 L 252 346 L 315 410 L 378 441 L 472 441"
           style="stroke-width:0.1384in"
           transform="matrix(0.0373333 0 0 -0.0373333 317.445 0)"
           id="path305" />
        <path
           d="M 346 441 L 284 410 L 220 346 L 189 252 L 189 189 L 220 94.5 L 284 31.5 L 346 0 L 441 0 L 504 31.5 L 567 94.5 L 598 189 L 598 252 L 567 346 L 504 410 L 441 441 L 346 441"
           style="stroke-width:0.1384in"
           transform="matrix(0.0373333 0 0 -0.0373333 332.752 0)"
           id="path306" />
        <path
           d="M 220 441 L 220 0 M 220 315 L 315 410 L 378 441 L 472 441 L 536 410 L 567 315 L 567 0 M 567 315 L 662 410 L 724 441 L 819 441 L 882 410 L 914 315 L 914 0"
           style="stroke-width:0.1384in"
           transform="matrix(0.0373333 0 0 -0.0373333 355.077 0)"
           id="path307" />
        <path
           d="M 158 441 L 346 0 M 536 441 L 346 0 L 284 -126 L 220 -189 L 158 -220 L 126 -220"
           style="stroke-width:0.1384in"
           transform="matrix(0.0373333 0 0 -0.0373333 404.469 0)"
           id="path308" />
        <path
           d="M 346 441 L 284 410 L 220 346 L 189 252 L 189 189 L 220 94.5 L 284 31.5 L 346 0 L 441 0 L 504 31.5 L 567 94.5 L 598 189 L 598 252 L 567 346 L 504 410 L 441 441 L 346 441"
           style="stroke-width:0.1384in"
           transform="matrix(0.0373333 0 0 -0.0373333 423.285 0)"
           id="path309" />
        <path
           d="M 220 441 L 220 126 L 252 31.5 L 315 0 L 410 0 L 472 31.5 L 567 126 M 567 441 L 567 0"
           style="stroke-width:0.1384in"
           transform="matrix(0.0373333 0 0 -0.0373333 445.61 0)"
           id="path310" />
        <path
           d="M 252 126 L 220 94.5 L 189 126 L 220 158 L 252 126 L 252 63 L 189 0"
           style="stroke-width:0.1384in"
           transform="matrix(0.0373333 0 0 -0.0373333 467.936 0)"
           id="path311" />
      </g>
      <g
         transform="translate(55.2046, 222.832)"
         id="g332">
        <path
           d="M 567 441 L 567 0 M 567 346 L 504 410 L 441 441 L 346 441 L 284 410 L 220 346 L 189 252 L 189 189 L 220 94.5 L 284 31.5 L 346 0 L 441 0 L 504 31.5 L 567 94.5"
           style="stroke-width:0.1384in"
           transform="scale(0.0373333, -0.0373333)"
           id="path312" />
        <path
           d="M 220 441 L 220 0 M 220 315 L 315 410 L 378 441 L 472 441 L 536 410 L 567 315 L 567 0"
           style="stroke-width:0.1384in"
           transform="matrix(0.0373333 0 0 -0.0373333 22.3253 0)"
           id="path313" />
        <path
           d="M 567 662 L 567 0 M 567 346 L 504 410 L 441 441 L 346 441 L 284 410 L 220 346 L 189 252 L 189 189 L 220 94.5 L 284 31.5 L 346 0 L 441 0 L 504 31.5 L 567 94.5"
           style="stroke-width:0.1384in"
           transform="matrix(0.0373333 0 0 -0.0373333 44.6506 0)"
           id="path314" />
        <path
           d="M 189 252 L 567 252 L 567 315 L 536 378 L 504 410 L 441 441 L 346 441 L 284 410 L 220 346 L 189 252 L 189 189 L 220 94.5 L 284 31.5 L 346 0 L 441 0 L 504 31.5 L 567 94.5"
           style="stroke-width:0.1384in"
           transform="matrix(0.0373333 0 0 -0.0373333 81.0879 0)"
           id="path315" />
        <path
           d="M 189 441 L 536 0 M 536 441 L 189 0"
           style="stroke-width:0.1384in"
           transform="matrix(0.0373333 0 0 -0.0373333 102.256 0)"
           id="path316" />
        <path
           d="M 189 662 L 220 630 L 252 662 L 220 693 L 189 662 M 220 441 L 220 0"
           style="stroke-width:0.1384in"
           transform="matrix(0.0373333 0 0 -0.0373333 122.267 0)"
           id="path317" />
        <path
           d="M 536 346 L 504 410 L 410 441 L 315 441 L 220 410 L 189 346 L 220 284 L 284 252 L 441 220 L 504 189 L 536 126 L 536 94.5 L 504 31.5 L 410 0 L 315 0 L 220 31.5 L 189 94.5"
           style="stroke-width:0.1384in"
           transform="matrix(0.0373333 0 0 -0.0373333 131.675 0)"
           id="path318" />
        <path
           d="M 252 662 L 252 126 L 284 31.5 L 346 0 L 410 0 M 158 441 L 378 441"
           style="stroke-width:0.1384in"
           transform="matrix(0.0373333 0 0 -0.0373333 151.685 0)"
           id="path319" />
        <path
           d="M 189 662 L 220 630 L 252 662 L 220 693 L 189 662 M 220 441 L 220 0"
           style="stroke-width:0.1384in"
           transform="matrix(0.0373333 0 0 -0.0373333 179.909 0)"
           id="path320" />
        <path
           d="M 220 441 L 220 0 M 220 315 L 315 410 L 378 441 L 472 441 L 536 410 L 567 315 L 567 0"
           style="stroke-width:0.1384in"
           transform="matrix(0.0373333 0 0 -0.0373333 189.317 0)"
           id="path321" />
        <path
           d="M 158 441 L 346 0 M 536 441 L 346 0 L 284 -126 L 220 -189 L 158 -220 L 126 -220"
           style="stroke-width:0.1384in"
           transform="matrix(0.0373333 0 0 -0.0373333 225.754 0)"
           id="path322" />
        <path
           d="M 346 441 L 284 410 L 220 346 L 189 252 L 189 189 L 220 94.5 L 284 31.5 L 346 0 L 441 0 L 504 31.5 L 567 94.5 L 598 189 L 598 252 L 567 346 L 504 410 L 441 441 L 346 441"
           style="stroke-width:0.1384in"
           transform="matrix(0.0373333 0 0 -0.0373333 244.57 0)"
           id="path323" />
        <path
           d="M 220 441 L 220 126 L 252 31.5 L 315 0 L 410 0 L 472 31.5 L 567 126 M 567 441 L 567 0"
           style="stroke-width:0.1384in"
           transform="matrix(0.0373333 0 0 -0.0373333 266.896 0)"
           id="path324" />
        <path
           d="M 220 441 L 220 0 M 220 252 L 252 346 L 315 410 L 378 441 L 472 441"
           style="stroke-width:0.1384in"
           transform="matrix(0.0373333 0 0 -0.0373333 289.221 0)"
           id="path325" />
        <path
           d="M 410 662 L 346 662 L 284 630 L 252 536 L 252 0 M 158 441 L 378 441"
           style="stroke-width:0.1384in"
           transform="matrix(0.0373333 0 0 -0.0373333 318.64 0)"
           id="path326" />
        <path
           d="M 220 441 L 220 126 L 252 31.5 L 315 0 L 410 0 L 472 31.5 L 567 126 M 567 441 L 567 0"
           style="stroke-width:0.1384in"
           transform="matrix(0.0373333 0 0 -0.0373333 332.752 0)"
           id="path327" />
        <path
           d="M 252 662 L 252 126 L 284 31.5 L 346 0 L 410 0 M 158 441 L 378 441"
           style="stroke-width:0.1384in"
           transform="matrix(0.0373333 0 0 -0.0373333 355.077 0)"
           id="path328" />
        <path
           d="M 220 441 L 220 126 L 252 31.5 L 315 0 L 410 0 L 472 31.5 L 567 126 M 567 441 L 567 0"
           style="stroke-width:0.1384in"
           transform="matrix(0.0373333 0 0 -0.0373333 369.189 0)"
           id="path329" />
        <path
           d="M 220 441 L 220 0 M 220 252 L 252 346 L 315 410 L 378 441 L 472 441"
           style="stroke-width:0.1384in"
           transform="matrix(0.0373333 0 0 -0.0373333 391.514 0)"
           id="path330" />
        <path
           d="M 189 252 L 567 252 L 567 315 L 536 378 L 504 410 L 441 441 L 346 441 L 284 410 L 220 346 L 189 252 L 189 189 L 220 94.5 L 284 31.5 L 346 0 L 441 0 L 504 31.5 L 567 94.5"
           style="stroke-width:0.1384in"
           transform="matrix(0.0373333 0 0 -0.0373333 406.821 0)"
           id="path331" />
        <path
           d="M 220 158 L 189 126 L 220 94.5 L 252 126 L 220 158"
           style="stroke-width:0.1384in"
           transform="matrix(0.0373333 0 0 -0.0373333 427.989 0)"
           id="path332" />
      </g>
      <g
         transform="translate(279.715, 260.165)"
         id="g333" />
      <g
         transform="translate(76.2775, 297.498)"
         id="g351">
        <path
           d="M 346 662 L 346 0 M 126 662 L 567 662"
           style="stroke-width:0.1384in"
           transform="scale(0.0373333, -0.0373333)"
           id="path333" />
        <path
           d="M 220 662 L 220 0 M 220 315 L 315 410 L 378 441 L 472 441 L 536 410 L 567 315 L 567 0"
           style="stroke-width:0.1384in"
           transform="matrix(0.0373333 0 0 -0.0373333 18.816 0)"
           id="path334" />
        <path
           d="M 346 441 L 284 410 L 220 346 L 189 252 L 189 189 L 220 94.5 L 284 31.5 L 346 0 L 441 0 L 504 31.5 L 567 94.5 L 598 189 L 598 252 L 567 346 L 504 410 L 441 441 L 346 441"
           style="stroke-width:0.1384in"
           transform="matrix(0.0373333 0 0 -0.0373333 41.1413 0)"
           id="path335" />
        <path
           d="M 220 441 L 220 126 L 252 31.5 L 315 0 L 410 0 L 472 31.5 L 567 126 M 567 441 L 567 0"
           style="stroke-width:0.1384in"
           transform="matrix(0.0373333 0 0 -0.0373333 63.4666 0)"
           id="path336" />
        <path
           d="M 536 346 L 504 410 L 410 441 L 315 441 L 220 410 L 189 346 L 220 284 L 284 252 L 441 220 L 504 189 L 536 126 L 536 94.5 L 504 31.5 L 410 0 L 315 0 L 220 31.5 L 189 94.5"
           style="stroke-width:0.1384in"
           transform="matrix(0.0373333 0 0 -0.0373333 99.9039 0)"
           id="path337" />
        <path
           d="M 220 662 L 220 0 M 220 315 L 315 410 L 378 441 L 472 441 L 536 410 L 567 315 L 567 0"
           style="stroke-width:0.1384in"
           transform="matrix(0.0373333 0 0 -0.0373333 119.915 0)"
           id="path338" />
        <path
           d="M 567 441 L 567 0 M 567 346 L 504 410 L 441 441 L 346 441 L 284 410 L 220 346 L 189 252 L 189 189 L 220 94.5 L 284 31.5 L 346 0 L 441 0 L 504 31.5 L 567 94.5"
           style="stroke-width:0.1384in"
           transform="matrix(0.0373333 0 0 -0.0373333 142.24 0)"
           id="path339" />
        <path
           d="M 220 662 L 220 0"
           style="stroke-width:0.1384in"
           transform="matrix(0.0373333 0 0 -0.0373333 164.565 0)"
           id="path340" />
        <path
           d="M 252 662 L 252 126 L 284 31.5 L 346 0 L 410 0 M 158 441 L 378 441"
           style="stroke-width:0.1384in"
           transform="matrix(0.0373333 0 0 -0.0373333 173.973 0)"
           id="path341" />
        <path
           d="M 220 441 L 220 0 M 220 315 L 315 410 L 378 441 L 472 441 L 536 410 L 567 315 L 567 0"
           style="stroke-width:0.1384in"
           transform="matrix(0.0373333 0 0 -0.0373333 202.197 0)"
           id="path342" />
        <path
           d="M 346 441 L 284 410 L 220 346 L 189 252 L 189 189 L 220 94.5 L 284 31.5 L 346 0 L 441 0 L 504 31.5 L 567 94.5 L 598 189 L 598 252 L 567 346 L 504 410 L 441 441 L 346 441"
           style="stroke-width:0.1384in"
           transform="matrix(0.0373333 0 0 -0.0373333 224.522 0)"
           id="path343" />
        <path
           d="M 252 662 L 252 126 L 284 31.5 L 346 0 L 410 0 M 158 441 L 378 441"
           style="stroke-width:0.1384in"
           transform="matrix(0.0373333 0 0 -0.0373333 246.848 0)"
           id="path344" />
        <path
           d="M 158 441 L 346 0 M 536 441 L 346 0"
           style="stroke-width:0.1384in"
           transform="matrix(0.0373333 0 0 -0.0373333 275.072 0)"
           id="path345" />
        <path
           d="M 189 662 L 220 630 L 252 662 L 220 693 L 189 662 M 220 441 L 220 0"
           style="stroke-width:0.1384in"
           transform="matrix(0.0373333 0 0 -0.0373333 293.888 0)"
           id="path346" />
        <path
           d="M 346 441 L 284 410 L 220 346 L 189 252 L 189 189 L 220 94.5 L 284 31.5 L 346 0 L 441 0 L 504 31.5 L 567 94.5 L 598 189 L 598 252 L 567 346 L 504 410 L 441 441 L 346 441"
           style="stroke-width:0.1384in"
           transform="matrix(0.0373333 0 0 -0.0373333 303.296 0)"
           id="path347" />
        <path
           d="M 220 662 L 220 0"
           style="stroke-width:0.1384in"
           transform="matrix(0.0373333 0 0 -0.0373333 325.621 0)"
           id="path348" />
        <path
           d="M 567 441 L 567 0 M 567 346 L 504 410 L 441 441 L 346 441 L 284 410 L 220 346 L 189 252 L 189 189 L 220 94.5 L 284 31.5 L 346 0 L 441 0 L 504 31.5 L 567 94.5"
           style="stroke-width:0.1384in"
           transform="matrix(0.0373333 0 0 -0.0373333 335.029 0)"
           id="path349" />
        <path
           d="M 252 662 L 252 126 L 284 31.5 L 346 0 L 410 0 M 158 441 L 378 441"
           style="stroke-width:0.1384in"
           transform="matrix(0.0373333 0 0 -0.0373333 357.354 0)"
           id="path350" />
        <path
           d="M 189 252 L 567 252 L 567 315 L 536 378 L 504 410 L 441 441 L 346 441 L 284 410 L 220 346 L 189 252 L 189 189 L 220 94.5 L 284 31.5 L 346 0 L 441 0 L 504 31.5 L 567 94.5"
           style="stroke-width:0.1384in"
           transform="matrix(0.0373333 0 0 -0.0373333 371.466 0)"
           id="path351" />
      </g>
      <g
         transform="translate(24.0237, 334.832)"
         id="g376">
        <path
           d="M 567 346 L 504 410 L 441 441 L 346 441 L 284 410 L 220 346 L 189 252 L 189 189 L 220 94.5 L 284 31.5 L 346 0 L 441 0 L 504 31.5 L 567 94.5"
           style="stroke-width:0.1384in"
           transform="scale(0.0373333, -0.0373333)"
           id="path352" />
        <path
           d="M 567 441 L 567 0 M 567 346 L 504 410 L 441 441 L 346 441 L 284 410 L 220 346 L 189 252 L 189 189 L 220 94.5 L 284 31.5 L 346 0 L 441 0 L 504 31.5 L 567 94.5"
           style="stroke-width:0.1384in"
           transform="matrix(0.0373333 0 0 -0.0373333 21.168 0)"
           id="path353" />
        <path
           d="M 220 441 L 220 126 L 252 31.5 L 315 0 L 410 0 L 472 31.5 L 567 126 M 567 441 L 567 0"
           style="stroke-width:0.1384in"
           transform="matrix(0.0373333 0 0 -0.0373333 43.4933 0)"
           id="path354" />
        <path
           d="M 536 346 L 504 410 L 410 441 L 315 441 L 220 410 L 189 346 L 220 284 L 284 252 L 441 220 L 504 189 L 536 126 L 536 94.5 L 504 31.5 L 410 0 L 315 0 L 220 31.5 L 189 94.5"
           style="stroke-width:0.1384in"
           transform="matrix(0.0373333 0 0 -0.0373333 65.8186 0)"
           id="path355" />
        <path
           d="M 567 441 L 567 0 M 567 346 L 504 410 L 441 441 L 346 441 L 284 410 L 220 346 L 189 252 L 189 189 L 220 94.5 L 284 31.5 L 346 0 L 441 0 L 504 31.5 L 567 94.5"
           style="stroke-width:0.1384in"
           transform="matrix(0.0373333 0 0 -0.0373333 85.8293 0)"
           id="path356" />
        <path
           d="M 220 662 L 220 0"
           style="stroke-width:0.1384in"
           transform="matrix(0.0373333 0 0 -0.0373333 108.155 0)"
           id="path357" />
        <path
           d="M 189 662 L 220 630 L 252 662 L 220 693 L 189 662 M 220 441 L 220 0"
           style="stroke-width:0.1384in"
           transform="matrix(0.0373333 0 0 -0.0373333 117.563 0)"
           id="path358" />
        <path
           d="M 252 662 L 252 126 L 284 31.5 L 346 0 L 410 0 M 158 441 L 378 441"
           style="stroke-width:0.1384in"
           transform="matrix(0.0373333 0 0 -0.0373333 126.971 0)"
           id="path359" />
        <path
           d="M 158 441 L 346 0 M 536 441 L 346 0 L 284 -126 L 220 -189 L 158 -220 L 126 -220"
           style="stroke-width:0.1384in"
           transform="matrix(0.0373333 0 0 -0.0373333 141.083 0)"
           id="path360" />
        <path
           d="M 189 441 L 315 0 M 441 441 L 315 0 M 441 441 L 567 0 M 693 441 L 567 0"
           style="stroke-width:0.1384in"
           transform="matrix(0.0373333 0 0 -0.0373333 174.011 0)"
           id="path361" />
        <path
           d="M 189 662 L 220 630 L 252 662 L 220 693 L 189 662 M 220 441 L 220 0"
           style="stroke-width:0.1384in"
           transform="matrix(0.0373333 0 0 -0.0373333 199.882 0)"
           id="path362" />
        <path
           d="M 252 662 L 252 126 L 284 31.5 L 346 0 L 410 0 M 158 441 L 378 441"
           style="stroke-width:0.1384in"
           transform="matrix(0.0373333 0 0 -0.0373333 209.29 0)"
           id="path363" />
        <path
           d="M 220 662 L 220 0 M 220 315 L 315 410 L 378 441 L 472 441 L 536 410 L 567 315 L 567 0"
           style="stroke-width:0.1384in"
           transform="matrix(0.0373333 0 0 -0.0373333 223.402 0)"
           id="path364" />
        <path
           d="M 189 662 L 220 630 L 252 662 L 220 693 L 189 662 M 220 441 L 220 0"
           style="stroke-width:0.1384in"
           transform="matrix(0.0373333 0 0 -0.0373333 245.728 0)"
           id="path365" />
        <path
           d="M 220 441 L 220 0 M 220 315 L 315 410 L 378 441 L 472 441 L 536 410 L 567 315 L 567 0"
           style="stroke-width:0.1384in"
           transform="matrix(0.0373333 0 0 -0.0373333 255.136 0)"
           id="path366" />
        <path
           d="M 220 441 L 220 0 M 220 315 L 315 410 L 378 441 L 472 441 L 536 410 L 567 315 L 567 0 M 567 315 L 662 410 L 724 441 L 819 441 L 882 410 L 914 315 L 914 0"
           style="stroke-width:0.1384in"
           transform="matrix(0.0373333 0 0 -0.0373333 291.573 0)"
           id="path367" />
        <path
           d="M 158 441 L 346 0 M 536 441 L 346 0 L 284 -126 L 220 -189 L 158 -220 L 126 -220"
           style="stroke-width:0.1384in"
           transform="matrix(0.0373333 0 0 -0.0373333 326.853 0)"
           id="path368" />
        <path
           d="M 220 662 L 220 0 M 220 315 L 315 410 L 378 441 L 472 441 L 536 410 L 567 315 L 567 0"
           style="stroke-width:0.1384in"
           transform="matrix(0.0373333 0 0 -0.0373333 359.781 0)"
           id="path369" />
        <path
           d="M 189 662 L 220 630 L 252 662 L 220 693 L 189 662 M 220 441 L 220 0"
           style="stroke-width:0.1384in"
           transform="matrix(0.0373333 0 0 -0.0373333 382.106 0)"
           id="path370" />
        <path
           d="M 536 346 L 504 410 L 410 441 L 315 441 L 220 410 L 189 346 L 220 284 L 284 252 L 441 220 L 504 189 L 536 126 L 536 94.5 L 504 31.5 L 410 0 L 315 0 L 220 31.5 L 189 94.5"
           style="stroke-width:0.1384in"
           transform="matrix(0.0373333 0 0 -0.0373333 391.514 0)"
           id="path371" />
        <path
           d="M 252 662 L 252 126 L 284 31.5 L 346 0 L 410 0 M 158 441 L 378 441"
           style="stroke-width:0.1384in"
           transform="matrix(0.0373333 0 0 -0.0373333 411.525 0)"
           id="path372" />
        <path
           d="M 346 441 L 284 410 L 220 346 L 189 252 L 189 189 L 220 94.5 L 284 31.5 L 346 0 L 441 0 L 504 31.5 L 567 94.5 L 598 189 L 598 252 L 567 346 L 504 410 L 441 441 L 346 441"
           style="stroke-width:0.1384in"
           transform="matrix(0.0373333 0 0 -0.0373333 425.637 0)"
           id="path373" />
        <path
           d="M 220 441 L 220 0 M 220 252 L 252 346 L 315 410 L 378 441 L 472 441"
           style="stroke-width:0.1384in"
           transform="matrix(0.0373333 0 0 -0.0373333 447.962 0)"
           id="path374" />
        <path
           d="M 189 662 L 220 630 L 252 662 L 220 693 L 189 662 M 220 441 L 220 0"
           style="stroke-width:0.1384in"
           transform="matrix(0.0373333 0 0 -0.0373333 463.269 0)"
           id="path375" />
        <path
           d="M 567 346 L 504 410 L 441 441 L 346 441 L 284 410 L 220 346 L 189 252 L 189 189 L 220 94.5 L 284 31.5 L 346 0 L 441 0 L 504 31.5 L 567 94.5"
           style="stroke-width:0.1384in"
           transform="matrix(0.0373333 0 0 -0.0373333 472.677 0)"
           id="path376" />
      </g>
      <g
         transform="translate(103.43, 372.165)"
         id="g393">
        <path
           d="M 220 662 L 220 0"
           style="stroke-width:0.1384in"
           transform="scale(0.0373333, -0.0373333)"
           id="path377" />
        <path
           d="M 189 662 L 220 630 L 252 662 L 220 693 L 189 662 M 220 441 L 220 0"
           style="stroke-width:0.1384in"
           transform="matrix(0.0373333 0 0 -0.0373333 9.40799 0)"
           id="path378" />
        <path
           d="M 567 441 L 567 -63 L 536 -158 L 504 -189 L 441 -220 L 346 -220 L 284 -189 M 567 346 L 504 410 L 441 441 L 346 441 L 284 410 L 220 346 L 189 252 L 189 189 L 220 94.5 L 284 31.5 L 346 0 L 441 0 L 504 31.5 L 567 94.5"
           style="stroke-width:0.1384in"
           transform="matrix(0.0373333 0 0 -0.0373333 18.816 0)"
           id="path379" />
        <path
           d="M 220 662 L 220 0 M 220 315 L 315 410 L 378 441 L 472 441 L 536 410 L 567 315 L 567 0"
           style="stroke-width:0.1384in"
           transform="matrix(0.0373333 0 0 -0.0373333 41.1413 0)"
           id="path380" />
        <path
           d="M 252 662 L 252 126 L 284 31.5 L 346 0 L 410 0 M 158 441 L 378 441"
           style="stroke-width:0.1384in"
           transform="matrix(0.0373333 0 0 -0.0373333 63.4666 0)"
           id="path381" />
        <path
           d="M 567 346 L 504 410 L 441 441 L 346 441 L 284 410 L 220 346 L 189 252 L 189 189 L 220 94.5 L 284 31.5 L 346 0 L 441 0 L 504 31.5 L 567 94.5"
           style="stroke-width:0.1384in"
           transform="matrix(0.0373333 0 0 -0.0373333 91.6906 0)"
           id="path382" />
        <path
           d="M 346 441 L 284 410 L 220 346 L 189 252 L 189 189 L 220 94.5 L 284 31.5 L 346 0 L 441 0 L 504 31.5 L 567 94.5 L 598 189 L 598 252 L 567 346 L 504 410 L 441 441 L 346 441"
           style="stroke-width:0.1384in"
           transform="matrix(0.0373333 0 0 -0.0373333 112.859 0)"
           id="path383" />
        <path
           d="M 220 441 L 220 0 M 220 315 L 315 410 L 378 441 L 472 441 L 536 410 L 567 315 L 567 0"
           style="stroke-width:0.1384in"
           transform="matrix(0.0373333 0 0 -0.0373333 135.184 0)"
           id="path384" />
        <path
           d="M 189 252 L 567 252 L 567 315 L 536 378 L 504 410 L 441 441 L 346 441 L 284 410 L 220 346 L 189 252 L 189 189 L 220 94.5 L 284 31.5 L 346 0 L 441 0 L 504 31.5 L 567 94.5"
           style="stroke-width:0.1384in"
           transform="matrix(0.0373333 0 0 -0.0373333 157.509 0)"
           id="path385" />
        <path
           d="M 220 158 L 189 126 L 220 94.5 L 252 126 L 220 158"
           style="stroke-width:0.1384in"
           transform="matrix(0.0373333 0 0 -0.0373333 178.677 0)"
           id="path386" />
        <path
           d="M 378 662 L 315 630 L 252 567 L 220 504 L 189 410 L 189 252 L 220 158 L 252 94.5 L 315 31.5 L 378 0 L 504 0 L 567 31.5 L 630 94.5 L 662 158 L 693 252 L 693 410 L 662 504 L 630 567 L 567 630 L 504 662 L 378 662"
           style="stroke-width:0.1384in"
           transform="matrix(0.0373333 0 0 -0.0373333 202.197 0)"
           id="path387" />
        <path
           d="M 220 441 L 220 0 M 220 252 L 252 346 L 315 410 L 378 441 L 472 441"
           style="stroke-width:0.1384in"
           transform="matrix(0.0373333 0 0 -0.0373333 228.069 0)"
           id="path388" />
        <path
           d="M 189 252 L 567 252 L 567 315 L 536 378 L 504 410 L 441 441 L 346 441 L 284 410 L 220 346 L 189 252 L 189 189 L 220 94.5 L 284 31.5 L 346 0 L 441 0 L 504 31.5 L 567 94.5"
           style="stroke-width:0.1384in"
           transform="matrix(0.0373333 0 0 -0.0373333 257.488 0)"
           id="path389" />
        <path
           d="M 220 662 L 220 0"
           style="stroke-width:0.1384in"
           transform="matrix(0.0373333 0 0 -0.0373333 278.656 0)"
           id="path390" />
        <path
           d="M 536 346 L 504 410 L 410 441 L 315 441 L 220 410 L 189 346 L 220 284 L 284 252 L 441 220 L 504 189 L 536 126 L 536 94.5 L 504 31.5 L 410 0 L 315 0 L 220 31.5 L 189 94.5"
           style="stroke-width:0.1384in"
           transform="matrix(0.0373333 0 0 -0.0373333 288.064 0)"
           id="path391" />
        <path
           d="M 189 252 L 567 252 L 567 315 L 536 378 L 504 410 L 441 441 L 346 441 L 284 410 L 220 346 L 189 252 L 189 189 L 220 94.5 L 284 31.5 L 346 0 L 441 0 L 504 31.5 L 567 94.5"
           style="stroke-width:0.1384in"
           transform="matrix(0.0373333 0 0 -0.0373333 308.074 0)"
           id="path392" />
        <path
           d="M 220 158 L 189 126 L 220 94.5 L 252 126 L 220 158"
           style="stroke-width:0.1384in"
           transform="matrix(0.0373333 0 0 -0.0373333 329.242 0)"
           id="path393" />
      </g>
    </g>
  </g>
</svg>
