<?xml version="1.0" encoding="UTF-8" standalone="no"?>
<!-- Created with Inkscape (http://www.inkscape.org/) -->

<svg
   width="148mm"
   height="210mm"
   viewBox="0 0 559.37006 793.70081"
   version="1.1"
   id="svg1"
   inkscape:version="1.3.2 (091e20ef0f, 2023-11-25, custom)"
   sodipodi:docname="hobbit.svg"
   inkscape:export-filename="../../bitmap.png"
   inkscape:export-xdpi="96"
   inkscape:export-ydpi="96"
   xmlns:inkscape="http://www.inkscape.org/namespaces/inkscape"
   xmlns:sodipodi="http://sodipodi.sourceforge.net/DTD/sodipodi-0.dtd"
   xmlns="http://www.w3.org/2000/svg"
   xmlns:svg="http://www.w3.org/2000/svg">
  <sodipodi:namedview
     id="namedview1"
     pagecolor="#ffffff"
     bordercolor="#000000"
     borderopacity="0.25"
     inkscape:showpageshadow="2"
     inkscape:pageopacity="0.0"
     inkscape:pagecheckerboard="0"
     inkscape:deskcolor="#d1d1d1"
     inkscape:document-units="mm"
     inkscape:zoom="1.4980456"
     inkscape:cx="279.36399"
     inkscape:cy="396.85039"
     inkscape:window-width="3440"
     inkscape:window-height="1371"
     inkscape:window-x="0"
     inkscape:window-y="32"
     inkscape:window-maximized="1"
     inkscape:current-layer="layer1"
     inkscape:export-bgcolor="#ffffffff" />
  <defs
     id="defs1">
    <rect
       x="16.068543"
       y="18.211879"
       width="527.29827"
       height="760.76375"
       id="rect1" />
  </defs>
  <g
     inkscape:label="Layer 1"
     inkscape:groupmode="layer"
     id="layer1">
    <g
       inkscape:label="Hershey Text"
       style="fill:none;stroke:#000000;stroke-linecap:round;stroke-linejoin:round"
       transform="translate(-3.14668, 29.143)"
       id="g1374">
      <g
         transform="translate(49.6112, 47.5228)"
         id="g1050">
        <path
           d="M 213 652 L 184 595 L 184 539 L 198 510 L 213 539 L 198 567 L 184 539 M 354 652 L 326 595 L 326 539 L 340 510 L 354 539 L 340 567 L 326 539"
           style="stroke-width:0.1951in"
           transform="scale(0.0373333, -0.0373333)"
           id="path1031" />
        <path
           d="M 378 662 L 126 0 M 378 662 L 630 0 M 220 220 L 536 220"
           style="stroke-width:0.1951in"
           transform="matrix(0.0373333 0 0 -0.0373333 15.008 0)"
           id="path1032" />
        <path
           d="M 536 346 L 504 410 L 410 441 L 315 441 L 220 410 L 189 346 L 220 284 L 284 252 L 441 220 L 504 189 L 536 126 L 536 94.5 L 504 31.5 L 410 0 L 315 0 L 220 31.5 L 189 94.5"
           style="stroke-width:0.1951in"
           transform="matrix(0.0373333 0 0 -0.0373333 36.176 0)"
           id="path1033" />
        <path
           d="M 252 662 L 252 126 L 284 31.5 L 346 0 L 410 0 M 158 441 L 378 441"
           style="stroke-width:0.1951in"
           transform="matrix(0.0373333 0 0 -0.0373333 70.2986 0)"
           id="path1034" />
        <path
           d="M 220 662 L 220 0 M 220 315 L 315 410 L 378 441 L 472 441 L 536 410 L 567 315 L 567 0"
           style="stroke-width:0.1951in"
           transform="matrix(0.0373333 0 0 -0.0373333 84.4106 0)"
           id="path1035" />
        <path
           d="M 189 252 L 567 252 L 567 315 L 536 378 L 504 410 L 441 441 L 346 441 L 284 410 L 220 346 L 189 252 L 189 189 L 220 94.5 L 284 31.5 L 346 0 L 441 0 L 504 31.5 L 567 94.5"
           style="stroke-width:0.1951in"
           transform="matrix(0.0373333 0 0 -0.0373333 106.736 0)"
           id="path1036" />
        <path
           d="M 158 441 L 346 0 M 536 441 L 346 0 L 284 -126 L 220 -189 L 158 -220 L 126 -220"
           style="stroke-width:0.1951in"
           transform="matrix(0.0373333 0 0 -0.0373333 127.904 0)"
           id="path1037" />
        <path
           d="M 536 346 L 504 410 L 410 441 L 315 441 L 220 410 L 189 346 L 220 284 L 284 252 L 441 220 L 504 189 L 536 126 L 536 94.5 L 504 31.5 L 410 0 L 315 0 L 220 31.5 L 189 94.5"
           style="stroke-width:0.1951in"
           transform="matrix(0.0373333 0 0 -0.0373333 160.832 0)"
           id="path1038" />
        <path
           d="M 567 441 L 567 0 M 567 346 L 504 410 L 441 441 L 346 441 L 284 410 L 220 346 L 189 252 L 189 189 L 220 94.5 L 284 31.5 L 346 0 L 441 0 L 504 31.5 L 567 94.5"
           style="stroke-width:0.1951in"
           transform="matrix(0.0373333 0 0 -0.0373333 180.843 0)"
           id="path1039" />
        <path
           d="M 220 441 L 220 0 M 220 315 L 315 410 L 378 441 L 472 441 L 536 410 L 567 315 L 567 0"
           style="stroke-width:0.1951in"
           transform="matrix(0.0373333 0 0 -0.0373333 203.168 0)"
           id="path1040" />
        <path
           d="M 567 441 L 567 -63 L 536 -158 L 504 -189 L 441 -220 L 346 -220 L 284 -189 M 567 346 L 504 410 L 441 441 L 346 441 L 284 410 L 220 346 L 189 252 L 189 189 L 220 94.5 L 284 31.5 L 346 0 L 441 0 L 504 31.5 L 567 94.5"
           style="stroke-width:0.1951in"
           transform="matrix(0.0373333 0 0 -0.0373333 225.493 0)"
           id="path1041" />
        <path
           d="M 252 662 L 252 126 L 284 31.5 L 346 0 L 410 0 M 158 441 L 378 441"
           style="stroke-width:0.1951in"
           transform="matrix(0.0373333 0 0 -0.0373333 261.93 0)"
           id="path1042" />
        <path
           d="M 220 662 L 220 0 M 220 315 L 315 410 L 378 441 L 472 441 L 536 410 L 567 315 L 567 0"
           style="stroke-width:0.1951in"
           transform="matrix(0.0373333 0 0 -0.0373333 276.042 0)"
           id="path1043" />
        <path
           d="M 189 252 L 567 252 L 567 315 L 536 378 L 504 410 L 441 441 L 346 441 L 284 410 L 220 346 L 189 252 L 189 189 L 220 94.5 L 284 31.5 L 346 0 L 441 0 L 504 31.5 L 567 94.5"
           style="stroke-width:0.1951in"
           transform="matrix(0.0373333 0 0 -0.0373333 298.368 0)"
           id="path1044" />
        <path
           d="M 220 662 L 220 0 M 220 315 L 315 410 L 378 441 L 472 441 L 536 410 L 567 315 L 567 0"
           style="stroke-width:0.1951in"
           transform="matrix(0.0373333 0 0 -0.0373333 333.648 0)"
           id="path1045" />
        <path
           d="M 346 441 L 284 410 L 220 346 L 189 252 L 189 189 L 220 94.5 L 284 31.5 L 346 0 L 441 0 L 504 31.5 L 567 94.5 L 598 189 L 598 252 L 567 346 L 504 410 L 441 441 L 346 441"
           style="stroke-width:0.1951in"
           transform="matrix(0.0373333 0 0 -0.0373333 355.973 0)"
           id="path1046" />
        <path
           d="M 220 662 L 220 0 M 220 346 L 284 410 L 346 441 L 441 441 L 504 410 L 567 346 L 598 252 L 598 189 L 567 94.5 L 504 31.5 L 441 0 L 346 0 L 284 31.5 L 220 94.5"
           style="stroke-width:0.1951in"
           transform="matrix(0.0373333 0 0 -0.0373333 378.298 0)"
           id="path1047" />
        <path
           d="M 220 662 L 220 0 M 220 346 L 284 410 L 346 441 L 441 441 L 504 410 L 567 346 L 598 252 L 598 189 L 567 94.5 L 504 31.5 L 441 0 L 346 0 L 284 31.5 L 220 94.5"
           style="stroke-width:0.1951in"
           transform="matrix(0.0373333 0 0 -0.0373333 400.624 0)"
           id="path1048" />
        <path
           d="M 189 662 L 220 630 L 252 662 L 220 693 L 189 662 M 220 441 L 220 0"
           style="stroke-width:0.1951in"
           transform="matrix(0.0373333 0 0 -0.0373333 422.949 0)"
           id="path1049" />
        <path
           d="M 252 662 L 252 126 L 284 31.5 L 346 0 L 410 0 M 158 441 L 378 441"
           style="stroke-width:0.1951in"
           transform="matrix(0.0373333 0 0 -0.0373333 432.357 0)"
           id="path1050" />
      </g>
      <g
         transform="translate(54.9615, 84.8561)"
         id="g1072">
        <path
           d="M 410 662 L 346 662 L 284 630 L 252 536 L 252 0 M 158 441 L 378 441"
           style="stroke-width:0.1951in"
           transform="scale(0.0373333, -0.0373333)"
           id="path1051" />
        <path
           d="M 189 252 L 567 252 L 567 315 L 536 378 L 504 410 L 441 441 L 346 441 L 284 410 L 220 346 L 189 252 L 189 189 L 220 94.5 L 284 31.5 L 346 0 L 441 0 L 504 31.5 L 567 94.5"
           style="stroke-width:0.1951in"
           transform="matrix(0.0373333 0 0 -0.0373333 14.112 0)"
           id="path1052" />
        <path
           d="M 220 662 L 220 0"
           style="stroke-width:0.1951in"
           transform="matrix(0.0373333 0 0 -0.0373333 35.28 0)"
           id="path1053" />
        <path
           d="M 252 662 L 252 126 L 284 31.5 L 346 0 L 410 0 M 158 441 L 378 441"
           style="stroke-width:0.1951in"
           transform="matrix(0.0373333 0 0 -0.0373333 44.688 0)"
           id="path1054" />
        <path
           d="M 252 662 L 252 126 L 284 31.5 L 346 0 L 410 0 M 158 441 L 378 441"
           style="stroke-width:0.1951in"
           transform="matrix(0.0373333 0 0 -0.0373333 72.9119 0)"
           id="path1055" />
        <path
           d="M 220 662 L 220 0 M 220 315 L 315 410 L 378 441 L 472 441 L 536 410 L 567 315 L 567 0"
           style="stroke-width:0.1951in"
           transform="matrix(0.0373333 0 0 -0.0373333 87.0239 0)"
           id="path1056" />
        <path
           d="M 189 252 L 567 252 L 567 315 L 536 378 L 504 410 L 441 441 L 346 441 L 284 410 L 220 346 L 189 252 L 189 189 L 220 94.5 L 284 31.5 L 346 0 L 441 0 L 504 31.5 L 567 94.5"
           style="stroke-width:0.1951in"
           transform="matrix(0.0373333 0 0 -0.0373333 109.349 0)"
           id="path1057" />
        <path
           d="M 220 662 L 220 0"
           style="stroke-width:0.1951in"
           transform="matrix(0.0373333 0 0 -0.0373333 144.629 0)"
           id="path1058" />
        <path
           d="M 346 441 L 284 410 L 220 346 L 189 252 L 189 189 L 220 94.5 L 284 31.5 L 346 0 L 441 0 L 504 31.5 L 567 94.5 L 598 189 L 598 252 L 567 346 L 504 410 L 441 441 L 346 441"
           style="stroke-width:0.1951in"
           transform="matrix(0.0373333 0 0 -0.0373333 154.037 0)"
           id="path1059" />
        <path
           d="M 158 441 L 346 0 M 536 441 L 346 0"
           style="stroke-width:0.1951in"
           transform="matrix(0.0373333 0 0 -0.0373333 176.363 0)"
           id="path1060" />
        <path
           d="M 189 252 L 567 252 L 567 315 L 536 378 L 504 410 L 441 441 L 346 441 L 284 410 L 220 346 L 189 252 L 189 189 L 220 94.5 L 284 31.5 L 346 0 L 441 0 L 504 31.5 L 567 94.5"
           style="stroke-width:0.1951in"
           transform="matrix(0.0373333 0 0 -0.0373333 195.178 0)"
           id="path1061" />
        <path
           d="M 346 441 L 284 410 L 220 346 L 189 252 L 189 189 L 220 94.5 L 284 31.5 L 346 0 L 441 0 L 504 31.5 L 567 94.5 L 598 189 L 598 252 L 567 346 L 504 410 L 441 441 L 346 441"
           style="stroke-width:0.1951in"
           transform="matrix(0.0373333 0 0 -0.0373333 230.458 0)"
           id="path1062" />
        <path
           d="M 410 662 L 346 662 L 284 630 L 252 536 L 252 0 M 158 441 L 378 441"
           style="stroke-width:0.1951in"
           transform="matrix(0.0373333 0 0 -0.0373333 252.784 0)"
           id="path1063" />
        <path
           d="M 220 662 L 220 0 M 220 346 L 284 410 L 346 441 L 441 441 L 504 410 L 567 346 L 598 252 L 598 189 L 567 94.5 L 504 31.5 L 441 0 L 346 0 L 284 31.5 L 220 94.5"
           style="stroke-width:0.1951in"
           transform="matrix(0.0373333 0 0 -0.0373333 281.008 0)"
           id="path1064" />
        <path
           d="M 189 252 L 567 252 L 567 315 L 536 378 L 504 410 L 441 441 L 346 441 L 284 410 L 220 346 L 189 252 L 189 189 L 220 94.5 L 284 31.5 L 346 0 L 441 0 L 504 31.5 L 567 94.5"
           style="stroke-width:0.1951in"
           transform="matrix(0.0373333 0 0 -0.0373333 303.333 0)"
           id="path1065" />
        <path
           d="M 567 441 L 567 0 M 567 346 L 504 410 L 441 441 L 346 441 L 284 410 L 220 346 L 189 252 L 189 189 L 220 94.5 L 284 31.5 L 346 0 L 441 0 L 504 31.5 L 567 94.5"
           style="stroke-width:0.1951in"
           transform="matrix(0.0373333 0 0 -0.0373333 324.501 0)"
           id="path1066" />
        <path
           d="M 220 441 L 220 126 L 252 31.5 L 315 0 L 410 0 L 472 31.5 L 567 126 M 567 441 L 567 0"
           style="stroke-width:0.1951in"
           transform="matrix(0.0373333 0 0 -0.0373333 346.826 0)"
           id="path1067" />
        <path
           d="M 252 662 L 252 126 L 284 31.5 L 346 0 L 410 0 M 158 441 L 378 441"
           style="stroke-width:0.1951in"
           transform="matrix(0.0373333 0 0 -0.0373333 369.152 0)"
           id="path1068" />
        <path
           d="M 189 662 L 220 630 L 252 662 L 220 693 L 189 662 M 220 441 L 220 0"
           style="stroke-width:0.1951in"
           transform="matrix(0.0373333 0 0 -0.0373333 383.264 0)"
           id="path1069" />
        <path
           d="M 410 662 L 346 662 L 284 630 L 252 536 L 252 0 M 158 441 L 378 441"
           style="stroke-width:0.1951in"
           transform="matrix(0.0373333 0 0 -0.0373333 392.672 0)"
           id="path1070" />
        <path
           d="M 220 441 L 220 126 L 252 31.5 L 315 0 L 410 0 L 472 31.5 L 567 126 M 567 441 L 567 0"
           style="stroke-width:0.1951in"
           transform="matrix(0.0373333 0 0 -0.0373333 406.784 0)"
           id="path1071" />
        <path
           d="M 220 662 L 220 0"
           style="stroke-width:0.1951in"
           transform="matrix(0.0373333 0 0 -0.0373333 429.109 0)"
           id="path1072" />
      </g>
      <g
         transform="translate(30.5982, 122.189)"
         id="g1092">
        <path
           d="M 252 662 L 252 126 L 284 31.5 L 346 0 L 410 0 M 158 441 L 378 441"
           style="stroke-width:0.1951in"
           transform="scale(0.0373333, -0.0373333)"
           id="path1073" />
        <path
           d="M 220 662 L 220 0 M 220 315 L 315 410 L 378 441 L 472 441 L 536 410 L 567 315 L 567 0"
           style="stroke-width:0.1951in"
           transform="matrix(0.0373333 0 0 -0.0373333 14.112 0)"
           id="path1074" />
        <path
           d="M 189 662 L 220 630 L 252 662 L 220 693 L 189 662 M 220 441 L 220 0"
           style="stroke-width:0.1951in"
           transform="matrix(0.0373333 0 0 -0.0373333 36.4373 0)"
           id="path1075" />
        <path
           d="M 220 441 L 220 0 M 220 315 L 315 410 L 378 441 L 472 441 L 536 410 L 567 315 L 567 0"
           style="stroke-width:0.1951in"
           transform="matrix(0.0373333 0 0 -0.0373333 45.8453 0)"
           id="path1076" />
        <path
           d="M 567 441 L 567 -63 L 536 -158 L 504 -189 L 441 -220 L 346 -220 L 284 -189 M 567 346 L 504 410 L 441 441 L 346 441 L 284 410 L 220 346 L 189 252 L 189 189 L 220 94.5 L 284 31.5 L 346 0 L 441 0 L 504 31.5 L 567 94.5"
           style="stroke-width:0.1951in"
           transform="matrix(0.0373333 0 0 -0.0373333 68.1706 0)"
           id="path1077" />
        <path
           d="M 536 346 L 504 410 L 410 441 L 315 441 L 220 410 L 189 346 L 220 284 L 284 252 L 441 220 L 504 189 L 536 126 L 536 94.5 L 504 31.5 L 410 0 L 315 0 L 220 31.5 L 189 94.5"
           style="stroke-width:0.1951in"
           transform="matrix(0.0373333 0 0 -0.0373333 90.4959 0)"
           id="path1078" />
        <path
           d="M 220 441 L 220 0 M 220 315 L 315 410 L 378 441 L 472 441 L 536 410 L 567 315 L 567 0 M 567 315 L 662 410 L 724 441 L 819 441 L 882 410 L 914 315 L 914 0"
           style="stroke-width:0.1951in"
           transform="matrix(0.0373333 0 0 -0.0373333 124.619 0)"
           id="path1079" />
        <path
           d="M 567 441 L 567 0 M 567 346 L 504 410 L 441 441 L 346 441 L 284 410 L 220 346 L 189 252 L 189 189 L 220 94.5 L 284 31.5 L 346 0 L 441 0 L 504 31.5 L 567 94.5"
           style="stroke-width:0.1951in"
           transform="matrix(0.0373333 0 0 -0.0373333 159.899 0)"
           id="path1080" />
        <path
           d="M 567 662 L 567 0 M 567 346 L 504 410 L 441 441 L 346 441 L 284 410 L 220 346 L 189 252 L 189 189 L 220 94.5 L 284 31.5 L 346 0 L 441 0 L 504 31.5 L 567 94.5"
           style="stroke-width:0.1951in"
           transform="matrix(0.0373333 0 0 -0.0373333 182.224 0)"
           id="path1081" />
        <path
           d="M 189 252 L 567 252 L 567 315 L 536 378 L 504 410 L 441 441 L 346 441 L 284 410 L 220 346 L 189 252 L 189 189 L 220 94.5 L 284 31.5 L 346 0 L 441 0 L 504 31.5 L 567 94.5"
           style="stroke-width:0.1951in"
           transform="matrix(0.0373333 0 0 -0.0373333 204.549 0)"
           id="path1082" />
        <path
           d="M 220 662 L 220 0 M 220 346 L 284 410 L 346 441 L 441 441 L 504 410 L 567 346 L 598 252 L 598 189 L 567 94.5 L 504 31.5 L 441 0 L 346 0 L 284 31.5 L 220 94.5"
           style="stroke-width:0.1951in"
           transform="matrix(0.0373333 0 0 -0.0373333 239.829 0)"
           id="path1083" />
        <path
           d="M 158 441 L 346 0 M 536 441 L 346 0 L 284 -126 L 220 -189 L 158 -220 L 126 -220"
           style="stroke-width:0.1951in"
           transform="matrix(0.0373333 0 0 -0.0373333 262.154 0)"
           id="path1084" />
        <path
           d="M 220 662 L 220 0 M 220 315 L 315 410 L 378 441 L 472 441 L 536 410 L 567 315 L 567 0"
           style="stroke-width:0.1951in"
           transform="matrix(0.0373333 0 0 -0.0373333 295.082 0)"
           id="path1085" />
        <path
           d="M 567 441 L 567 0 M 567 346 L 504 410 L 441 441 L 346 441 L 284 410 L 220 346 L 189 252 L 189 189 L 220 94.5 L 284 31.5 L 346 0 L 441 0 L 504 31.5 L 567 94.5"
           style="stroke-width:0.1951in"
           transform="matrix(0.0373333 0 0 -0.0373333 317.408 0)"
           id="path1086" />
        <path
           d="M 220 441 L 220 0 M 220 315 L 315 410 L 378 441 L 472 441 L 536 410 L 567 315 L 567 0"
           style="stroke-width:0.1951in"
           transform="matrix(0.0373333 0 0 -0.0373333 339.733 0)"
           id="path1087" />
        <path
           d="M 567 662 L 567 0 M 567 346 L 504 410 L 441 441 L 346 441 L 284 410 L 220 346 L 189 252 L 189 189 L 220 94.5 L 284 31.5 L 346 0 L 441 0 L 504 31.5 L 567 94.5"
           style="stroke-width:0.1951in"
           transform="matrix(0.0373333 0 0 -0.0373333 362.058 0)"
           id="path1088" />
        <path
           d="M 536 346 L 504 410 L 410 441 L 315 441 L 220 410 L 189 346 L 220 284 L 284 252 L 441 220 L 504 189 L 536 126 L 536 94.5 L 504 31.5 L 410 0 L 315 0 L 220 31.5 L 189 94.5"
           style="stroke-width:0.1951in"
           transform="matrix(0.0373333 0 0 -0.0373333 384.384 0)"
           id="path1089" />
        <path
           d="M 567 441 L 567 0 M 567 346 L 504 410 L 441 441 L 346 441 L 284 410 L 220 346 L 189 252 L 189 189 L 220 94.5 L 284 31.5 L 346 0 L 441 0 L 504 31.5 L 567 94.5"
           style="stroke-width:0.1951in"
           transform="matrix(0.0373333 0 0 -0.0373333 418.506 0)"
           id="path1090" />
        <path
           d="M 220 441 L 220 0 M 220 315 L 315 410 L 378 441 L 472 441 L 536 410 L 567 315 L 567 0"
           style="stroke-width:0.1951in"
           transform="matrix(0.0373333 0 0 -0.0373333 440.832 0)"
           id="path1091" />
        <path
           d="M 567 662 L 567 0 M 567 346 L 504 410 L 441 441 L 346 441 L 284 410 L 220 346 L 189 252 L 189 189 L 220 94.5 L 284 31.5 L 346 0 L 441 0 L 504 31.5 L 567 94.5"
           style="stroke-width:0.1951in"
           transform="matrix(0.0373333 0 0 -0.0373333 463.157 0)"
           id="path1092" />
      </g>
      <g
         transform="translate(43.5318, 159.523)"
         id="g1111">
        <path
           d="M 220 662 L 220 0 M 220 346 L 284 410 L 346 441 L 441 441 L 504 410 L 567 346 L 598 252 L 598 189 L 567 94.5 L 504 31.5 L 441 0 L 346 0 L 284 31.5 L 220 94.5"
           style="stroke-width:0.1951in"
           transform="scale(0.0373333, -0.0373333)"
           id="path1093" />
        <path
           d="M 158 441 L 346 0 M 536 441 L 346 0 L 284 -126 L 220 -189 L 158 -220 L 126 -220"
           style="stroke-width:0.1951in"
           transform="matrix(0.0373333 0 0 -0.0373333 22.3253 0)"
           id="path1094" />
        <path
           d="M 567 346 L 504 410 L 441 441 L 346 441 L 284 410 L 220 346 L 189 252 L 189 189 L 220 94.5 L 284 31.5 L 346 0 L 441 0 L 504 31.5 L 567 94.5"
           style="stroke-width:0.1951in"
           transform="matrix(0.0373333 0 0 -0.0373333 55.2533 0)"
           id="path1095" />
        <path
           d="M 220 441 L 220 126 L 252 31.5 L 315 0 L 410 0 L 472 31.5 L 567 126 M 567 441 L 567 0"
           style="stroke-width:0.1951in"
           transform="matrix(0.0373333 0 0 -0.0373333 76.4213 0)"
           id="path1096" />
        <path
           d="M 220 441 L 220 0 M 220 315 L 315 410 L 378 441 L 472 441 L 536 410 L 567 315 L 567 0"
           style="stroke-width:0.1951in"
           transform="matrix(0.0373333 0 0 -0.0373333 98.7466 0)"
           id="path1097" />
        <path
           d="M 220 441 L 220 0 M 220 315 L 315 410 L 378 441 L 472 441 L 536 410 L 567 315 L 567 0"
           style="stroke-width:0.1951in"
           transform="matrix(0.0373333 0 0 -0.0373333 121.072 0)"
           id="path1098" />
        <path
           d="M 189 662 L 220 630 L 252 662 L 220 693 L 189 662 M 220 441 L 220 0"
           style="stroke-width:0.1951in"
           transform="matrix(0.0373333 0 0 -0.0373333 143.397 0)"
           id="path1099" />
        <path
           d="M 220 441 L 220 0 M 220 315 L 315 410 L 378 441 L 472 441 L 536 410 L 567 315 L 567 0"
           style="stroke-width:0.1951in"
           transform="matrix(0.0373333 0 0 -0.0373333 152.805 0)"
           id="path1100" />
        <path
           d="M 567 441 L 567 -63 L 536 -158 L 504 -189 L 441 -220 L 346 -220 L 284 -189 M 567 346 L 504 410 L 441 441 L 346 441 L 284 410 L 220 346 L 189 252 L 189 189 L 220 94.5 L 284 31.5 L 346 0 L 441 0 L 504 31.5 L 567 94.5"
           style="stroke-width:0.1951in"
           transform="matrix(0.0373333 0 0 -0.0373333 175.131 0)"
           id="path1101" />
        <path
           d="M 567 441 L 567 0 M 567 346 L 504 410 L 441 441 L 346 441 L 284 410 L 220 346 L 189 252 L 189 189 L 220 94.5 L 284 31.5 L 346 0 L 441 0 L 504 31.5 L 567 94.5"
           style="stroke-width:0.1951in"
           transform="matrix(0.0373333 0 0 -0.0373333 211.568 0)"
           id="path1102" />
        <path
           d="M 220 441 L 220 0 M 220 315 L 315 410 L 378 441 L 472 441 L 536 410 L 567 315 L 567 0"
           style="stroke-width:0.1951in"
           transform="matrix(0.0373333 0 0 -0.0373333 233.893 0)"
           id="path1103" />
        <path
           d="M 567 662 L 567 0 M 567 346 L 504 410 L 441 441 L 346 441 L 284 410 L 220 346 L 189 252 L 189 189 L 220 94.5 L 284 31.5 L 346 0 L 441 0 L 504 31.5 L 567 94.5"
           style="stroke-width:0.1951in"
           transform="matrix(0.0373333 0 0 -0.0373333 256.218 0)"
           id="path1104" />
        <path
           d="M 220 662 L 220 0 M 220 346 L 284 410 L 346 441 L 441 441 L 504 410 L 567 346 L 598 252 L 598 189 L 567 94.5 L 504 31.5 L 441 0 L 346 0 L 284 31.5 L 220 94.5"
           style="stroke-width:0.1951in"
           transform="matrix(0.0373333 0 0 -0.0373333 292.656 0)"
           id="path1105" />
        <path
           d="M 158 441 L 346 0 M 536 441 L 346 0 L 284 -126 L 220 -189 L 158 -220 L 126 -220"
           style="stroke-width:0.1951in"
           transform="matrix(0.0373333 0 0 -0.0373333 314.981 0)"
           id="path1106" />
        <path
           d="M 220 441 L 220 0 M 220 315 L 315 410 L 378 441 L 472 441 L 536 410 L 567 315 L 567 0 M 567 315 L 662 410 L 724 441 L 819 441 L 882 410 L 914 315 L 914 0"
           style="stroke-width:0.1951in"
           transform="matrix(0.0373333 0 0 -0.0373333 347.909 0)"
           id="path1107" />
        <path
           d="M 567 441 L 567 0 M 567 346 L 504 410 L 441 441 L 346 441 L 284 410 L 220 346 L 189 252 L 189 189 L 220 94.5 L 284 31.5 L 346 0 L 441 0 L 504 31.5 L 567 94.5"
           style="stroke-width:0.1951in"
           transform="matrix(0.0373333 0 0 -0.0373333 383.189 0)"
           id="path1108" />
        <path
           d="M 567 441 L 567 -63 L 536 -158 L 504 -189 L 441 -220 L 346 -220 L 284 -189 M 567 346 L 504 410 L 441 441 L 346 441 L 284 410 L 220 346 L 189 252 L 189 189 L 220 94.5 L 284 31.5 L 346 0 L 441 0 L 504 31.5 L 567 94.5"
           style="stroke-width:0.1951in"
           transform="matrix(0.0373333 0 0 -0.0373333 405.514 0)"
           id="path1109" />
        <path
           d="M 189 662 L 220 630 L 252 662 L 220 693 L 189 662 M 220 441 L 220 0"
           style="stroke-width:0.1951in"
           transform="matrix(0.0373333 0 0 -0.0373333 427.84 0)"
           id="path1110" />
        <path
           d="M 567 346 L 504 410 L 441 441 L 346 441 L 284 410 L 220 346 L 189 252 L 189 189 L 220 94.5 L 284 31.5 L 346 0 L 441 0 L 504 31.5 L 567 94.5"
           style="stroke-width:0.1951in"
           transform="matrix(0.0373333 0 0 -0.0373333 437.248 0)"
           id="path1111" />
      </g>
      <g
         transform="translate(66.4823, 196.856)"
         id="g1129">
        <path
           d="M 220 441 L 220 0 M 220 315 L 315 410 L 378 441 L 472 441 L 536 410 L 567 315 L 567 0 M 567 315 L 662 410 L 724 441 L 819 441 L 882 410 L 914 315 L 914 0"
           style="stroke-width:0.1951in"
           transform="scale(0.0373333, -0.0373333)"
           id="path1112" />
        <path
           d="M 346 441 L 284 410 L 220 346 L 189 252 L 189 189 L 220 94.5 L 284 31.5 L 346 0 L 441 0 L 504 31.5 L 567 94.5 L 598 189 L 598 252 L 567 346 L 504 410 L 441 441 L 346 441"
           style="stroke-width:0.1951in"
           transform="matrix(0.0373333 0 0 -0.0373333 35.28 0)"
           id="path1113" />
        <path
           d="M 158 441 L 346 0 M 536 441 L 346 0"
           style="stroke-width:0.1951in"
           transform="matrix(0.0373333 0 0 -0.0373333 57.6053 0)"
           id="path1114" />
        <path
           d="M 189 662 L 220 630 L 252 662 L 220 693 L 189 662 M 220 441 L 220 0"
           style="stroke-width:0.1951in"
           transform="matrix(0.0373333 0 0 -0.0373333 76.4213 0)"
           id="path1115" />
        <path
           d="M 220 441 L 220 0 M 220 315 L 315 410 L 378 441 L 472 441 L 536 410 L 567 315 L 567 0"
           style="stroke-width:0.1951in"
           transform="matrix(0.0373333 0 0 -0.0373333 85.8293 0)"
           id="path1116" />
        <path
           d="M 567 441 L 567 -63 L 536 -158 L 504 -189 L 441 -220 L 346 -220 L 284 -189 M 567 346 L 504 410 L 441 441 L 346 441 L 284 410 L 220 346 L 189 252 L 189 189 L 220 94.5 L 284 31.5 L 346 0 L 441 0 L 504 31.5 L 567 94.5"
           style="stroke-width:0.1951in"
           transform="matrix(0.0373333 0 0 -0.0373333 108.155 0)"
           id="path1117" />
        <path
           d="M 252 662 L 252 126 L 284 31.5 L 346 0 L 410 0 M 158 441 L 378 441"
           style="stroke-width:0.1951in"
           transform="matrix(0.0373333 0 0 -0.0373333 144.592 0)"
           id="path1118" />
        <path
           d="M 220 662 L 220 0 M 220 315 L 315 410 L 378 441 L 472 441 L 536 410 L 567 315 L 567 0"
           style="stroke-width:0.1951in"
           transform="matrix(0.0373333 0 0 -0.0373333 158.704 0)"
           id="path1119" />
        <path
           d="M 220 441 L 220 0 M 220 252 L 252 346 L 315 410 L 378 441 L 472 441"
           style="stroke-width:0.1951in"
           transform="matrix(0.0373333 0 0 -0.0373333 181.029 0)"
           id="path1120" />
        <path
           d="M 346 441 L 284 410 L 220 346 L 189 252 L 189 189 L 220 94.5 L 284 31.5 L 346 0 L 441 0 L 504 31.5 L 567 94.5 L 598 189 L 598 252 L 567 346 L 504 410 L 441 441 L 346 441"
           style="stroke-width:0.1951in"
           transform="matrix(0.0373333 0 0 -0.0373333 196.336 0)"
           id="path1121" />
        <path
           d="M 220 441 L 220 126 L 252 31.5 L 315 0 L 410 0 L 472 31.5 L 567 126 M 567 441 L 567 0"
           style="stroke-width:0.1951in"
           transform="matrix(0.0373333 0 0 -0.0373333 218.661 0)"
           id="path1122" />
        <path
           d="M 567 441 L 567 -63 L 536 -158 L 504 -189 L 441 -220 L 346 -220 L 284 -189 M 567 346 L 504 410 L 441 441 L 346 441 L 284 410 L 220 346 L 189 252 L 189 189 L 220 94.5 L 284 31.5 L 346 0 L 441 0 L 504 31.5 L 567 94.5"
           style="stroke-width:0.1951in"
           transform="matrix(0.0373333 0 0 -0.0373333 240.986 0)"
           id="path1123" />
        <path
           d="M 220 662 L 220 0 M 220 315 L 315 410 L 378 441 L 472 441 L 536 410 L 567 315 L 567 0"
           style="stroke-width:0.1951in"
           transform="matrix(0.0373333 0 0 -0.0373333 263.312 0)"
           id="path1124" />
        <path
           d="M 220 662 L 220 0 M 220 315 L 315 410 L 378 441 L 472 441 L 536 410 L 567 315 L 567 0"
           style="stroke-width:0.1951in"
           transform="matrix(0.0373333 0 0 -0.0373333 299.749 0)"
           id="path1125" />
        <path
           d="M 189 662 L 220 630 L 252 662 L 220 693 L 189 662 M 220 441 L 220 0"
           style="stroke-width:0.1951in"
           transform="matrix(0.0373333 0 0 -0.0373333 322.074 0)"
           id="path1126" />
        <path
           d="M 220 441 L 220 0 M 220 315 L 315 410 L 378 441 L 472 441 L 536 410 L 567 315 L 567 0 M 567 315 L 662 410 L 724 441 L 819 441 L 882 410 L 914 315 L 914 0"
           style="stroke-width:0.1951in"
           transform="matrix(0.0373333 0 0 -0.0373333 331.482 0)"
           id="path1127" />
        <path
           d="M 252 126 L 220 94.5 L 189 126 L 220 158 L 252 126 L 252 63 L 189 0"
           style="stroke-width:0.1951in"
           transform="matrix(0.0373333 0 0 -0.0373333 366.762 0)"
           id="path1128" />
        <path
           d="M 567 441 L 567 0 M 567 346 L 504 410 L 441 441 L 346 441 L 284 410 L 220 346 L 189 252 L 189 189 L 220 94.5 L 284 31.5 L 346 0 L 441 0 L 504 31.5 L 567 94.5"
           style="stroke-width:0.1951in"
           transform="matrix(0.0373333 0 0 -0.0373333 390.282 0)"
           id="path1129" />
      </g>
      <g
         transform="translate(26.6334, 234.189)"
         id="g1153">
        <path
           d="M 410 662 L 346 662 L 284 630 L 252 536 L 252 0 M 158 441 L 378 441"
           style="stroke-width:0.1951in"
           transform="scale(0.0373333, -0.0373333)"
           id="path1130" />
        <path
           d="M 189 662 L 220 630 L 252 662 L 220 693 L 189 662 M 220 441 L 220 0"
           style="stroke-width:0.1951in"
           transform="matrix(0.0373333 0 0 -0.0373333 14.112 0)"
           id="path1131" />
        <path
           d="M 189 252 L 567 252 L 567 315 L 536 378 L 504 410 L 441 441 L 346 441 L 284 410 L 220 346 L 189 252 L 189 189 L 220 94.5 L 284 31.5 L 346 0 L 441 0 L 504 31.5 L 567 94.5"
           style="stroke-width:0.1951in"
           transform="matrix(0.0373333 0 0 -0.0373333 23.52 0)"
           id="path1132" />
        <path
           d="M 220 441 L 220 0 M 220 252 L 252 346 L 315 410 L 378 441 L 472 441"
           style="stroke-width:0.1951in"
           transform="matrix(0.0373333 0 0 -0.0373333 44.688 0)"
           id="path1133" />
        <path
           d="M 567 346 L 504 410 L 441 441 L 346 441 L 284 410 L 220 346 L 189 252 L 189 189 L 220 94.5 L 284 31.5 L 346 0 L 441 0 L 504 31.5 L 567 94.5"
           style="stroke-width:0.1951in"
           transform="matrix(0.0373333 0 0 -0.0373333 59.9946 0)"
           id="path1134" />
        <path
           d="M 189 252 L 567 252 L 567 315 L 536 378 L 504 410 L 441 441 L 346 441 L 284 410 L 220 346 L 189 252 L 189 189 L 220 94.5 L 284 31.5 L 346 0 L 441 0 L 504 31.5 L 567 94.5"
           style="stroke-width:0.1951in"
           transform="matrix(0.0373333 0 0 -0.0373333 81.1626 0)"
           id="path1135" />
        <path
           d="M 567 441 L 567 0 M 567 346 L 504 410 L 441 441 L 346 441 L 284 410 L 220 346 L 189 252 L 189 189 L 220 94.5 L 284 31.5 L 346 0 L 441 0 L 504 31.5 L 567 94.5"
           style="stroke-width:0.1951in"
           transform="matrix(0.0373333 0 0 -0.0373333 116.443 0)"
           id="path1136" />
        <path
           d="M 220 441 L 220 0 M 220 315 L 315 410 L 378 441 L 472 441 L 536 410 L 567 315 L 567 0"
           style="stroke-width:0.1951in"
           transform="matrix(0.0373333 0 0 -0.0373333 138.768 0)"
           id="path1137" />
        <path
           d="M 567 662 L 567 0 M 567 346 L 504 410 L 441 441 L 346 441 L 284 410 L 220 346 L 189 252 L 189 189 L 220 94.5 L 284 31.5 L 346 0 L 441 0 L 504 31.5 L 567 94.5"
           style="stroke-width:0.1951in"
           transform="matrix(0.0373333 0 0 -0.0373333 161.093 0)"
           id="path1138" />
        <path
           d="M 252 662 L 284 630 L 315 662 L 284 693 L 252 662 M 284 441 L 284 -94.5 L 252 -189 L 189 -220 L 126 -220"
           style="stroke-width:0.1951in"
           transform="matrix(0.0373333 0 0 -0.0373333 197.53 0)"
           id="path1139" />
        <path
           d="M 189 252 L 567 252 L 567 315 L 536 378 L 504 410 L 441 441 L 346 441 L 284 410 L 220 346 L 189 252 L 189 189 L 220 94.5 L 284 31.5 L 346 0 L 441 0 L 504 31.5 L 567 94.5"
           style="stroke-width:0.1951in"
           transform="matrix(0.0373333 0 0 -0.0373333 209.29 0)"
           id="path1140" />
        <path
           d="M 567 441 L 567 0 M 567 346 L 504 410 L 441 441 L 346 441 L 284 410 L 220 346 L 189 252 L 189 189 L 220 94.5 L 284 31.5 L 346 0 L 441 0 L 504 31.5 L 567 94.5"
           style="stroke-width:0.1951in"
           transform="matrix(0.0373333 0 0 -0.0373333 230.458 0)"
           id="path1141" />
        <path
           d="M 220 662 L 220 0"
           style="stroke-width:0.1951in"
           transform="matrix(0.0373333 0 0 -0.0373333 252.784 0)"
           id="path1142" />
        <path
           d="M 346 441 L 284 410 L 220 346 L 189 252 L 189 189 L 220 94.5 L 284 31.5 L 346 0 L 441 0 L 504 31.5 L 567 94.5 L 598 189 L 598 252 L 567 346 L 504 410 L 441 441 L 346 441"
           style="stroke-width:0.1951in"
           transform="matrix(0.0373333 0 0 -0.0373333 262.192 0)"
           id="path1143" />
        <path
           d="M 220 441 L 220 126 L 252 31.5 L 315 0 L 410 0 L 472 31.5 L 567 126 M 567 441 L 567 0"
           style="stroke-width:0.1951in"
           transform="matrix(0.0373333 0 0 -0.0373333 284.517 0)"
           id="path1144" />
        <path
           d="M 536 346 L 504 410 L 410 441 L 315 441 L 220 410 L 189 346 L 220 284 L 284 252 L 441 220 L 504 189 L 536 126 L 536 94.5 L 504 31.5 L 410 0 L 315 0 L 220 31.5 L 189 94.5"
           style="stroke-width:0.1951in"
           transform="matrix(0.0373333 0 0 -0.0373333 306.842 0)"
           id="path1145" />
        <path
           d="M 220 662 L 220 0"
           style="stroke-width:0.1951in"
           transform="matrix(0.0373333 0 0 -0.0373333 340.965 0)"
           id="path1146" />
        <path
           d="M 346 441 L 284 410 L 220 346 L 189 252 L 189 189 L 220 94.5 L 284 31.5 L 346 0 L 441 0 L 504 31.5 L 567 94.5 L 598 189 L 598 252 L 567 346 L 504 410 L 441 441 L 346 441"
           style="stroke-width:0.1951in"
           transform="matrix(0.0373333 0 0 -0.0373333 350.373 0)"
           id="path1147" />
        <path
           d="M 158 441 L 346 0 M 536 441 L 346 0"
           style="stroke-width:0.1951in"
           transform="matrix(0.0373333 0 0 -0.0373333 372.698 0)"
           id="path1148" />
        <path
           d="M 189 252 L 567 252 L 567 315 L 536 378 L 504 410 L 441 441 L 346 441 L 284 410 L 220 346 L 189 252 L 189 189 L 220 94.5 L 284 31.5 L 346 0 L 441 0 L 504 31.5 L 567 94.5"
           style="stroke-width:0.1951in"
           transform="matrix(0.0373333 0 0 -0.0373333 391.514 0)"
           id="path1149" />
        <path
           d="M 252 126 L 220 94.5 L 189 126 L 220 158 L 252 126 L 252 63 L 189 0"
           style="stroke-width:0.1951in"
           transform="matrix(0.0373333 0 0 -0.0373333 412.682 0)"
           id="path1150" />
        <path
           d="M 252 662 L 252 126 L 284 31.5 L 346 0 L 410 0 M 158 441 L 378 441"
           style="stroke-width:0.1951in"
           transform="matrix(0.0373333 0 0 -0.0373333 436.202 0)"
           id="path1151" />
        <path
           d="M 220 662 L 220 0 M 220 315 L 315 410 L 378 441 L 472 441 L 536 410 L 567 315 L 567 0"
           style="stroke-width:0.1951in"
           transform="matrix(0.0373333 0 0 -0.0373333 450.314 0)"
           id="path1152" />
        <path
           d="M 189 252 L 567 252 L 567 315 L 536 378 L 504 410 L 441 441 L 346 441 L 284 410 L 220 346 L 189 252 L 189 189 L 220 94.5 L 284 31.5 L 346 0 L 441 0 L 504 31.5 L 567 94.5"
           style="stroke-width:0.1951in"
           transform="matrix(0.0373333 0 0 -0.0373333 472.64 0)"
           id="path1153" />
      </g>
      <g
         transform="translate(72.8989, 271.523)"
         id="g1172">
        <path
           d="M 567 662 L 567 0 M 567 346 L 504 410 L 441 441 L 346 441 L 284 410 L 220 346 L 189 252 L 189 189 L 220 94.5 L 284 31.5 L 346 0 L 441 0 L 504 31.5 L 567 94.5"
           style="stroke-width:0.1951in"
           transform="scale(0.0373333, -0.0373333)"
           id="path1154" />
        <path
           d="M 189 252 L 567 252 L 567 315 L 536 378 L 504 410 L 441 441 L 346 441 L 284 410 L 220 346 L 189 252 L 189 189 L 220 94.5 L 284 31.5 L 346 0 L 441 0 L 504 31.5 L 567 94.5"
           style="stroke-width:0.1951in"
           transform="matrix(0.0373333 0 0 -0.0373333 22.3253 0)"
           id="path1155" />
        <path
           d="M 536 346 L 504 410 L 410 441 L 315 441 L 220 410 L 189 346 L 220 284 L 284 252 L 441 220 L 504 189 L 536 126 L 536 94.5 L 504 31.5 L 410 0 L 315 0 L 220 31.5 L 189 94.5"
           style="stroke-width:0.1951in"
           transform="matrix(0.0373333 0 0 -0.0373333 43.4933 0)"
           id="path1156" />
        <path
           d="M 189 662 L 220 630 L 252 662 L 220 693 L 189 662 M 220 441 L 220 0"
           style="stroke-width:0.1951in"
           transform="matrix(0.0373333 0 0 -0.0373333 63.5039 0)"
           id="path1157" />
        <path
           d="M 220 441 L 220 0 M 220 252 L 252 346 L 315 410 L 378 441 L 472 441"
           style="stroke-width:0.1951in"
           transform="matrix(0.0373333 0 0 -0.0373333 72.9119 0)"
           id="path1158" />
        <path
           d="M 189 252 L 567 252 L 567 315 L 536 378 L 504 410 L 441 441 L 346 441 L 284 410 L 220 346 L 189 252 L 189 189 L 220 94.5 L 284 31.5 L 346 0 L 441 0 L 504 31.5 L 567 94.5"
           style="stroke-width:0.1951in"
           transform="matrix(0.0373333 0 0 -0.0373333 88.2186 0)"
           id="path1159" />
        <path
           d="M 346 441 L 284 410 L 220 346 L 189 252 L 189 189 L 220 94.5 L 284 31.5 L 346 0 L 441 0 L 504 31.5 L 567 94.5 L 598 189 L 598 252 L 567 346 L 504 410 L 441 441 L 346 441"
           style="stroke-width:0.1951in"
           transform="matrix(0.0373333 0 0 -0.0373333 123.499 0)"
           id="path1160" />
        <path
           d="M 410 662 L 346 662 L 284 630 L 252 536 L 252 0 M 158 441 L 378 441"
           style="stroke-width:0.1951in"
           transform="matrix(0.0373333 0 0 -0.0373333 145.824 0)"
           id="path1161" />
        <path
           d="M 252 662 L 252 126 L 284 31.5 L 346 0 L 410 0 M 158 441 L 378 441"
           style="stroke-width:0.1951in"
           transform="matrix(0.0373333 0 0 -0.0373333 174.048 0)"
           id="path1162" />
        <path
           d="M 220 662 L 220 0 M 220 315 L 315 410 L 378 441 L 472 441 L 536 410 L 567 315 L 567 0"
           style="stroke-width:0.1951in"
           transform="matrix(0.0373333 0 0 -0.0373333 188.16 0)"
           id="path1163" />
        <path
           d="M 189 252 L 567 252 L 567 315 L 536 378 L 504 410 L 441 441 L 346 441 L 284 410 L 220 346 L 189 252 L 189 189 L 220 94.5 L 284 31.5 L 346 0 L 441 0 L 504 31.5 L 567 94.5"
           style="stroke-width:0.1951in"
           transform="matrix(0.0373333 0 0 -0.0373333 210.485 0)"
           id="path1164" />
        <path
           d="M 220 662 L 220 0 M 220 315 L 315 410 L 378 441 L 472 441 L 536 410 L 567 315 L 567 0"
           style="stroke-width:0.1951in"
           transform="matrix(0.0373333 0 0 -0.0373333 245.765 0)"
           id="path1165" />
        <path
           d="M 189 252 L 567 252 L 567 315 L 536 378 L 504 410 L 441 441 L 346 441 L 284 410 L 220 346 L 189 252 L 189 189 L 220 94.5 L 284 31.5 L 346 0 L 441 0 L 504 31.5 L 567 94.5"
           style="stroke-width:0.1951in"
           transform="matrix(0.0373333 0 0 -0.0373333 268.09 0)"
           id="path1166" />
        <path
           d="M 567 441 L 567 0 M 567 346 L 504 410 L 441 441 L 346 441 L 284 410 L 220 346 L 189 252 L 189 189 L 220 94.5 L 284 31.5 L 346 0 L 441 0 L 504 31.5 L 567 94.5"
           style="stroke-width:0.1951in"
           transform="matrix(0.0373333 0 0 -0.0373333 289.258 0)"
           id="path1167" />
        <path
           d="M 220 441 L 220 0 M 220 252 L 252 346 L 315 410 L 378 441 L 472 441"
           style="stroke-width:0.1951in"
           transform="matrix(0.0373333 0 0 -0.0373333 311.584 0)"
           id="path1168" />
        <path
           d="M 252 662 L 252 126 L 284 31.5 L 346 0 L 410 0 M 158 441 L 378 441"
           style="stroke-width:0.1951in"
           transform="matrix(0.0373333 0 0 -0.0373333 326.89 0)"
           id="path1169" />
        <path
           d="M 536 346 L 504 410 L 410 441 L 315 441 L 220 410 L 189 346 L 220 284 L 284 252 L 441 220 L 504 189 L 536 126 L 536 94.5 L 504 31.5 L 410 0 L 315 0 L 220 31.5 L 189 94.5"
           style="stroke-width:0.1951in"
           transform="matrix(0.0373333 0 0 -0.0373333 341.002 0)"
           id="path1170" />
        <path
           d="M 346 441 L 284 410 L 220 346 L 189 252 L 189 189 L 220 94.5 L 284 31.5 L 346 0 L 441 0 L 504 31.5 L 567 94.5 L 598 189 L 598 252 L 567 346 L 504 410 L 441 441 L 346 441"
           style="stroke-width:0.1951in"
           transform="matrix(0.0373333 0 0 -0.0373333 375.125 0)"
           id="path1171" />
        <path
           d="M 410 662 L 346 662 L 284 630 L 252 536 L 252 0 M 158 441 L 378 441"
           style="stroke-width:0.1951in"
           transform="matrix(0.0373333 0 0 -0.0373333 397.45 0)"
           id="path1172" />
      </g>
      <g
         transform="translate(38.0539, 308.856)"
         id="g1193">
        <path
           d="M 567 662 L 567 0 M 567 346 L 504 410 L 441 441 L 346 441 L 284 410 L 220 346 L 189 252 L 189 189 L 220 94.5 L 284 31.5 L 346 0 L 441 0 L 504 31.5 L 567 94.5"
           style="stroke-width:0.1951in"
           transform="scale(0.0373333, -0.0373333)"
           id="path1173" />
        <path
           d="M 189 441 L 315 0 M 441 441 L 315 0 M 441 441 L 567 0 M 693 441 L 567 0"
           style="stroke-width:0.1951in"
           transform="matrix(0.0373333 0 0 -0.0373333 22.3253 0)"
           id="path1174" />
        <path
           d="M 567 441 L 567 0 M 567 346 L 504 410 L 441 441 L 346 441 L 284 410 L 220 346 L 189 252 L 189 189 L 220 94.5 L 284 31.5 L 346 0 L 441 0 L 504 31.5 L 567 94.5"
           style="stroke-width:0.1951in"
           transform="matrix(0.0373333 0 0 -0.0373333 48.1973 0)"
           id="path1175" />
        <path
           d="M 220 441 L 220 0 M 220 252 L 252 346 L 315 410 L 378 441 L 472 441"
           style="stroke-width:0.1951in"
           transform="matrix(0.0373333 0 0 -0.0373333 70.5226 0)"
           id="path1176" />
        <path
           d="M 158 441 L 346 0 M 536 441 L 346 0"
           style="stroke-width:0.1951in"
           transform="matrix(0.0373333 0 0 -0.0373333 85.8293 0)"
           id="path1177" />
        <path
           d="M 189 252 L 567 252 L 567 315 L 536 378 L 504 410 L 441 441 L 346 441 L 284 410 L 220 346 L 189 252 L 189 189 L 220 94.5 L 284 31.5 L 346 0 L 441 0 L 504 31.5 L 567 94.5"
           style="stroke-width:0.1951in"
           transform="matrix(0.0373333 0 0 -0.0373333 104.645 0)"
           id="path1178" />
        <path
           d="M 536 346 L 504 410 L 410 441 L 315 441 L 220 410 L 189 346 L 220 284 L 284 252 L 441 220 L 504 189 L 536 126 L 536 94.5 L 504 31.5 L 410 0 L 315 0 L 220 31.5 L 189 94.5"
           style="stroke-width:0.1951in"
           transform="matrix(0.0373333 0 0 -0.0373333 125.813 0)"
           id="path1179" />
        <path
           d="M 220 158 L 189 126 L 220 94.5 L 252 126 L 220 158"
           style="stroke-width:0.1951in"
           transform="matrix(0.0373333 0 0 -0.0373333 145.824 0)"
           id="path1180" />
        <path
           d="M 346 662 L 346 0 M 126 662 L 567 662"
           style="stroke-width:0.1951in"
           transform="matrix(0.0373333 0 0 -0.0373333 169.344 0)"
           id="path1181" />
        <path
           d="M 220 662 L 220 0 M 220 315 L 315 410 L 378 441 L 472 441 L 536 410 L 567 315 L 567 0"
           style="stroke-width:0.1951in"
           transform="matrix(0.0373333 0 0 -0.0373333 188.16 0)"
           id="path1182" />
        <path
           d="M 189 252 L 567 252 L 567 315 L 536 378 L 504 410 L 441 441 L 346 441 L 284 410 L 220 346 L 189 252 L 189 189 L 220 94.5 L 284 31.5 L 346 0 L 441 0 L 504 31.5 L 567 94.5"
           style="stroke-width:0.1951in"
           transform="matrix(0.0373333 0 0 -0.0373333 210.485 0)"
           id="path1183" />
        <path
           d="M 220 441 L 220 0 M 220 315 L 315 410 L 378 441 L 472 441 L 536 410 L 567 315 L 567 0"
           style="stroke-width:0.1951in"
           transform="matrix(0.0373333 0 0 -0.0373333 231.653 0)"
           id="path1184" />
        <path
           d="M 536 346 L 504 410 L 410 441 L 315 441 L 220 410 L 189 346 L 220 284 L 284 252 L 441 220 L 504 189 L 536 126 L 536 94.5 L 504 31.5 L 410 0 L 315 0 L 220 31.5 L 189 94.5"
           style="stroke-width:0.1951in"
           transform="matrix(0.0373333 0 0 -0.0373333 268.09 0)"
           id="path1185" />
        <path
           d="M 346 441 L 284 410 L 220 346 L 189 252 L 189 189 L 220 94.5 L 284 31.5 L 346 0 L 441 0 L 504 31.5 L 567 94.5 L 598 189 L 598 252 L 567 346 L 504 410 L 441 441 L 346 441"
           style="stroke-width:0.1951in"
           transform="matrix(0.0373333 0 0 -0.0373333 288.101 0)"
           id="path1186" />
        <path
           d="M 220 441 L 220 0 M 220 315 L 315 410 L 378 441 L 472 441 L 536 410 L 567 315 L 567 0 M 567 315 L 662 410 L 724 441 L 819 441 L 882 410 L 914 315 L 914 0"
           style="stroke-width:0.1951in"
           transform="matrix(0.0373333 0 0 -0.0373333 310.426 0)"
           id="path1187" />
        <path
           d="M 189 252 L 567 252 L 567 315 L 536 378 L 504 410 L 441 441 L 346 441 L 284 410 L 220 346 L 189 252 L 189 189 L 220 94.5 L 284 31.5 L 346 0 L 441 0 L 504 31.5 L 567 94.5"
           style="stroke-width:0.1951in"
           transform="matrix(0.0373333 0 0 -0.0373333 345.706 0)"
           id="path1188" />
        <path
           d="M 252 662 L 252 126 L 284 31.5 L 346 0 L 410 0 M 158 441 L 378 441"
           style="stroke-width:0.1951in"
           transform="matrix(0.0373333 0 0 -0.0373333 366.874 0)"
           id="path1189" />
        <path
           d="M 220 662 L 220 0 M 220 315 L 315 410 L 378 441 L 472 441 L 536 410 L 567 315 L 567 0"
           style="stroke-width:0.1951in"
           transform="matrix(0.0373333 0 0 -0.0373333 380.986 0)"
           id="path1190" />
        <path
           d="M 189 662 L 220 630 L 252 662 L 220 693 L 189 662 M 220 441 L 220 0"
           style="stroke-width:0.1951in"
           transform="matrix(0.0373333 0 0 -0.0373333 403.312 0)"
           id="path1191" />
        <path
           d="M 220 441 L 220 0 M 220 315 L 315 410 L 378 441 L 472 441 L 536 410 L 567 315 L 567 0"
           style="stroke-width:0.1951in"
           transform="matrix(0.0373333 0 0 -0.0373333 412.72 0)"
           id="path1192" />
        <path
           d="M 567 441 L 567 -63 L 536 -158 L 504 -189 L 441 -220 L 346 -220 L 284 -189 M 567 346 L 504 410 L 441 441 L 346 441 L 284 410 L 220 346 L 189 252 L 189 189 L 220 94.5 L 284 31.5 L 346 0 L 441 0 L 504 31.5 L 567 94.5"
           style="stroke-width:0.1951in"
           transform="matrix(0.0373333 0 0 -0.0373333 435.045 0)"
           id="path1193" />
      </g>
      <g
         transform="translate(18.968, 346.189)"
         id="g1216">
        <path
           d="M 346 662 L 346 0 M 126 662 L 567 662"
           style="stroke-width:0.1951in"
           transform="scale(0.0373333, -0.0373333)"
           id="path1194" />
        <path
           d="M 346 441 L 284 410 L 220 346 L 189 252 L 189 189 L 220 94.5 L 284 31.5 L 346 0 L 441 0 L 504 31.5 L 567 94.5 L 598 189 L 598 252 L 567 346 L 504 410 L 441 441 L 346 441"
           style="stroke-width:0.1951in"
           transform="matrix(0.0373333 0 0 -0.0373333 18.816 0)"
           id="path1195" />
        <path
           d="M 346 441 L 284 410 L 220 346 L 189 252 L 189 189 L 220 94.5 L 284 31.5 L 346 0 L 441 0 L 504 31.5 L 567 94.5 L 598 189 L 598 252 L 567 346 L 504 410 L 441 441 L 346 441"
           style="stroke-width:0.1951in"
           transform="matrix(0.0373333 0 0 -0.0373333 41.1413 0)"
           id="path1196" />
        <path
           d="M 220 662 L 220 0 M 536 441 L 220 126 M 346 252 L 567 0"
           style="stroke-width:0.1951in"
           transform="matrix(0.0373333 0 0 -0.0373333 63.4666 0)"
           id="path1197" />
        <path
           d="M 189 662 L 220 630 L 252 662 L 220 693 L 189 662 M 220 441 L 220 0"
           style="stroke-width:0.1951in"
           transform="matrix(0.0373333 0 0 -0.0373333 83.4773 0)"
           id="path1198" />
        <path
           d="M 536 346 L 504 410 L 410 441 L 315 441 L 220 410 L 189 346 L 220 284 L 284 252 L 441 220 L 504 189 L 536 126 L 536 94.5 L 504 31.5 L 410 0 L 315 0 L 220 31.5 L 189 94.5"
           style="stroke-width:0.1951in"
           transform="matrix(0.0373333 0 0 -0.0373333 92.8853 0)"
           id="path1199" />
        <path
           d="M 220 662 L 220 0 M 220 315 L 315 410 L 378 441 L 472 441 L 536 410 L 567 315 L 567 0"
           style="stroke-width:0.1951in"
           transform="matrix(0.0373333 0 0 -0.0373333 112.896 0)"
           id="path1200" />
        <path
           d="M 189 441 L 315 0 M 441 441 L 315 0 M 441 441 L 567 0 M 693 441 L 567 0"
           style="stroke-width:0.1951in"
           transform="matrix(0.0373333 0 0 -0.0373333 149.333 0)"
           id="path1201" />
        <path
           d="M 346 441 L 284 410 L 220 346 L 189 252 L 189 189 L 220 94.5 L 284 31.5 L 346 0 L 441 0 L 504 31.5 L 567 94.5 L 598 189 L 598 252 L 567 346 L 504 410 L 441 441 L 346 441"
           style="stroke-width:0.1951in"
           transform="matrix(0.0373333 0 0 -0.0373333 175.205 0)"
           id="path1202" />
        <path
           d="M 220 662 L 220 0 M 536 441 L 220 126 M 346 252 L 567 0"
           style="stroke-width:0.1951in"
           transform="matrix(0.0373333 0 0 -0.0373333 197.53 0)"
           id="path1203" />
        <path
           d="M 189 252 L 567 252 L 567 315 L 536 378 L 504 410 L 441 441 L 346 441 L 284 410 L 220 346 L 189 252 L 189 189 L 220 94.5 L 284 31.5 L 346 0 L 441 0 L 504 31.5 L 567 94.5"
           style="stroke-width:0.1951in"
           transform="matrix(0.0373333 0 0 -0.0373333 217.541 0)"
           id="path1204" />
        <path
           d="M 220 441 L 220 126 L 252 31.5 L 315 0 L 410 0 L 472 31.5 L 567 126 M 567 441 L 567 0"
           style="stroke-width:0.1951in"
           transform="matrix(0.0373333 0 0 -0.0373333 252.821 0)"
           id="path1205" />
        <path
           d="M 220 441 L 220 -220 M 220 346 L 284 410 L 346 441 L 441 441 L 504 410 L 567 346 L 598 252 L 598 189 L 567 94.5 L 504 31.5 L 441 0 L 346 0 L 284 31.5 L 220 94.5"
           style="stroke-width:0.1951in"
           transform="matrix(0.0373333 0 0 -0.0373333 275.146 0)"
           id="path1206" />
        <path
           d="M 189 662 L 220 630 L 252 662 L 220 693 L 189 662 M 220 441 L 220 0"
           style="stroke-width:0.1951in"
           transform="matrix(0.0373333 0 0 -0.0373333 311.584 0)"
           id="path1207" />
        <path
           d="M 220 441 L 220 0 M 220 315 L 315 410 L 378 441 L 472 441 L 536 410 L 567 315 L 567 0"
           style="stroke-width:0.1951in"
           transform="matrix(0.0373333 0 0 -0.0373333 320.992 0)"
           id="path1208" />
        <path
           d="M 536 346 L 504 410 L 410 441 L 315 441 L 220 410 L 189 346 L 220 284 L 284 252 L 441 220 L 504 189 L 536 126 L 536 94.5 L 504 31.5 L 410 0 L 315 0 L 220 31.5 L 189 94.5"
           style="stroke-width:0.1951in"
           transform="matrix(0.0373333 0 0 -0.0373333 343.317 0)"
           id="path1209" />
        <path
           d="M 189 662 L 220 630 L 252 662 L 220 693 L 189 662 M 220 441 L 220 0"
           style="stroke-width:0.1951in"
           transform="matrix(0.0373333 0 0 -0.0373333 363.328 0)"
           id="path1210" />
        <path
           d="M 567 662 L 567 0 M 567 346 L 504 410 L 441 441 L 346 441 L 284 410 L 220 346 L 189 252 L 189 189 L 220 94.5 L 284 31.5 L 346 0 L 441 0 L 504 31.5 L 567 94.5"
           style="stroke-width:0.1951in"
           transform="matrix(0.0373333 0 0 -0.0373333 372.736 0)"
           id="path1211" />
        <path
           d="M 189 252 L 567 252 L 567 315 L 536 378 L 504 410 L 441 441 L 346 441 L 284 410 L 220 346 L 189 252 L 189 189 L 220 94.5 L 284 31.5 L 346 0 L 441 0 L 504 31.5 L 567 94.5"
           style="stroke-width:0.1951in"
           transform="matrix(0.0373333 0 0 -0.0373333 395.061 0)"
           id="path1212" />
        <path
           d="M 220 662 L 220 0 M 220 315 L 315 410 L 378 441 L 472 441 L 536 410 L 567 315 L 567 0"
           style="stroke-width:0.1951in"
           transform="matrix(0.0373333 0 0 -0.0373333 430.341 0)"
           id="path1213" />
        <path
           d="M 189 662 L 220 630 L 252 662 L 220 693 L 189 662 M 220 441 L 220 0"
           style="stroke-width:0.1951in"
           transform="matrix(0.0373333 0 0 -0.0373333 452.666 0)"
           id="path1214" />
        <path
           d="M 220 441 L 220 0 M 220 315 L 315 410 L 378 441 L 472 441 L 536 410 L 567 315 L 567 0 M 567 315 L 662 410 L 724 441 L 819 441 L 882 410 L 914 315 L 914 0"
           style="stroke-width:0.1951in"
           transform="matrix(0.0373333 0 0 -0.0373333 462.074 0)"
           id="path1215" />
        <path
           d="M 252 126 L 220 94.5 L 189 126 L 220 158 L 252 126 L 252 63 L 189 0"
           style="stroke-width:0.1951in"
           transform="matrix(0.0373333 0 0 -0.0373333 497.354 0)"
           id="path1216" />
      </g>
      <g
         transform="translate(49.1464, 383.522)"
         id="g1234">
        <path
           d="M 567 441 L 567 0 M 567 346 L 504 410 L 441 441 L 346 441 L 284 410 L 220 346 L 189 252 L 189 189 L 220 94.5 L 284 31.5 L 346 0 L 441 0 L 504 31.5 L 567 94.5"
           style="stroke-width:0.1951in"
           transform="scale(0.0373333, -0.0373333)"
           id="path1217" />
        <path
           d="M 220 441 L 220 0 M 220 315 L 315 410 L 378 441 L 472 441 L 536 410 L 567 315 L 567 0"
           style="stroke-width:0.1951in"
           transform="matrix(0.0373333 0 0 -0.0373333 22.3253 0)"
           id="path1218" />
        <path
           d="M 567 662 L 567 0 M 567 346 L 504 410 L 441 441 L 346 441 L 284 410 L 220 346 L 189 252 L 189 189 L 220 94.5 L 284 31.5 L 346 0 L 441 0 L 504 31.5 L 567 94.5"
           style="stroke-width:0.1951in"
           transform="matrix(0.0373333 0 0 -0.0373333 44.6506 0)"
           id="path1219" />
        <path
           d="M 220 662 L 220 0 M 220 315 L 315 410 L 378 441 L 472 441 L 536 410 L 567 315 L 567 0"
           style="stroke-width:0.1951in"
           transform="matrix(0.0373333 0 0 -0.0373333 81.0879 0)"
           id="path1220" />
        <path
           d="M 189 252 L 567 252 L 567 315 L 536 378 L 504 410 L 441 441 L 346 441 L 284 410 L 220 346 L 189 252 L 189 189 L 220 94.5 L 284 31.5 L 346 0 L 441 0 L 504 31.5 L 567 94.5"
           style="stroke-width:0.1951in"
           transform="matrix(0.0373333 0 0 -0.0373333 103.413 0)"
           id="path1221" />
        <path
           d="M 189 441 L 315 0 M 441 441 L 315 0 M 441 441 L 567 0 M 693 441 L 567 0"
           style="stroke-width:0.1951in"
           transform="matrix(0.0373333 0 0 -0.0373333 138.693 0)"
           id="path1222" />
        <path
           d="M 189 662 L 220 630 L 252 662 L 220 693 L 189 662 M 220 441 L 220 0"
           style="stroke-width:0.1951in"
           transform="matrix(0.0373333 0 0 -0.0373333 164.565 0)"
           id="path1223" />
        <path
           d="M 536 346 L 504 410 L 410 441 L 315 441 L 220 410 L 189 346 L 220 284 L 284 252 L 441 220 L 504 189 L 536 126 L 536 94.5 L 504 31.5 L 410 0 L 315 0 L 220 31.5 L 189 94.5"
           style="stroke-width:0.1951in"
           transform="matrix(0.0373333 0 0 -0.0373333 173.973 0)"
           id="path1224" />
        <path
           d="M 220 662 L 220 0 M 220 315 L 315 410 L 378 441 L 472 441 L 536 410 L 567 315 L 567 0"
           style="stroke-width:0.1951in"
           transform="matrix(0.0373333 0 0 -0.0373333 193.984 0)"
           id="path1225" />
        <path
           d="M 189 252 L 567 252 L 567 315 L 536 378 L 504 410 L 441 441 L 346 441 L 284 410 L 220 346 L 189 252 L 189 189 L 220 94.5 L 284 31.5 L 346 0 L 441 0 L 504 31.5 L 567 94.5"
           style="stroke-width:0.1951in"
           transform="matrix(0.0373333 0 0 -0.0373333 216.309 0)"
           id="path1226" />
        <path
           d="M 567 662 L 567 0 M 567 346 L 504 410 L 441 441 L 346 441 L 284 410 L 220 346 L 189 252 L 189 189 L 220 94.5 L 284 31.5 L 346 0 L 441 0 L 504 31.5 L 567 94.5"
           style="stroke-width:0.1951in"
           transform="matrix(0.0373333 0 0 -0.0373333 237.477 0)"
           id="path1227" />
        <path
           d="M 252 662 L 252 126 L 284 31.5 L 346 0 L 410 0 M 158 441 L 378 441"
           style="stroke-width:0.1951in"
           transform="matrix(0.0373333 0 0 -0.0373333 273.914 0)"
           id="path1228" />
        <path
           d="M 346 441 L 284 410 L 220 346 L 189 252 L 189 189 L 220 94.5 L 284 31.5 L 346 0 L 441 0 L 504 31.5 L 567 94.5 L 598 189 L 598 252 L 567 346 L 504 410 L 441 441 L 346 441"
           style="stroke-width:0.1951in"
           transform="matrix(0.0373333 0 0 -0.0373333 288.026 0)"
           id="path1229" />
        <path
           d="M 567 441 L 567 -63 L 536 -158 L 504 -189 L 441 -220 L 346 -220 L 284 -189 M 567 346 L 504 410 L 441 441 L 346 441 L 284 410 L 220 346 L 189 252 L 189 189 L 220 94.5 L 284 31.5 L 346 0 L 441 0 L 504 31.5 L 567 94.5"
           style="stroke-width:0.1951in"
           transform="matrix(0.0373333 0 0 -0.0373333 324.464 0)"
           id="path1230" />
        <path
           d="M 346 441 L 284 410 L 220 346 L 189 252 L 189 189 L 220 94.5 L 284 31.5 L 346 0 L 441 0 L 504 31.5 L 567 94.5 L 598 189 L 598 252 L 567 346 L 504 410 L 441 441 L 346 441"
           style="stroke-width:0.1951in"
           transform="matrix(0.0373333 0 0 -0.0373333 346.789 0)"
           id="path1231" />
        <path
           d="M 567 441 L 567 0 M 567 346 L 504 410 L 441 441 L 346 441 L 284 410 L 220 346 L 189 252 L 189 189 L 220 94.5 L 284 31.5 L 346 0 L 441 0 L 504 31.5 L 567 94.5"
           style="stroke-width:0.1951in"
           transform="matrix(0.0373333 0 0 -0.0373333 383.226 0)"
           id="path1232" />
        <path
           d="M 220 441 L 220 0 M 220 315 L 315 410 L 378 441 L 472 441 L 536 410 L 567 315 L 567 0"
           style="stroke-width:0.1951in"
           transform="matrix(0.0373333 0 0 -0.0373333 405.552 0)"
           id="path1233" />
        <path
           d="M 567 662 L 567 0 M 567 346 L 504 410 L 441 441 L 346 441 L 284 410 L 220 346 L 189 252 L 189 189 L 220 94.5 L 284 31.5 L 346 0 L 441 0 L 504 31.5 L 567 94.5"
           style="stroke-width:0.1951in"
           transform="matrix(0.0373333 0 0 -0.0373333 427.877 0)"
           id="path1234" />
      </g>
      <g
         transform="translate(44.5344, 420.856)"
         id="g1255">
        <path
           d="M 536 346 L 504 410 L 410 441 L 315 441 L 220 410 L 189 346 L 220 284 L 284 252 L 441 220 L 504 189 L 536 126 L 536 94.5 L 504 31.5 L 410 0 L 315 0 L 220 31.5 L 189 94.5"
           style="stroke-width:0.1951in"
           transform="scale(0.0373333, -0.0373333)"
           id="path1235" />
        <path
           d="M 189 252 L 567 252 L 567 315 L 536 378 L 504 410 L 441 441 L 346 441 L 284 410 L 220 346 L 189 252 L 189 189 L 220 94.5 L 284 31.5 L 346 0 L 441 0 L 504 31.5 L 567 94.5"
           style="stroke-width:0.1951in"
           transform="matrix(0.0373333 0 0 -0.0373333 20.0106 0)"
           id="path1236" />
        <path
           d="M 189 252 L 567 252 L 567 315 L 536 378 L 504 410 L 441 441 L 346 441 L 284 410 L 220 346 L 189 252 L 189 189 L 220 94.5 L 284 31.5 L 346 0 L 441 0 L 504 31.5 L 567 94.5"
           style="stroke-width:0.1951in"
           transform="matrix(0.0373333 0 0 -0.0373333 41.1786 0)"
           id="path1237" />
        <path
           d="M 252 662 L 252 126 L 284 31.5 L 346 0 L 410 0 M 158 441 L 378 441"
           style="stroke-width:0.1951in"
           transform="matrix(0.0373333 0 0 -0.0373333 76.4586 0)"
           id="path1238" />
        <path
           d="M 220 662 L 220 0 M 220 315 L 315 410 L 378 441 L 472 441 L 536 410 L 567 315 L 567 0"
           style="stroke-width:0.1951in"
           transform="matrix(0.0373333 0 0 -0.0373333 90.5706 0)"
           id="path1239" />
        <path
           d="M 189 252 L 567 252 L 567 315 L 536 378 L 504 410 L 441 441 L 346 441 L 284 410 L 220 346 L 189 252 L 189 189 L 220 94.5 L 284 31.5 L 346 0 L 441 0 L 504 31.5 L 567 94.5"
           style="stroke-width:0.1951in"
           transform="matrix(0.0373333 0 0 -0.0373333 112.896 0)"
           id="path1240" />
        <path
           d="M 567 441 L 567 -63 L 536 -158 L 504 -189 L 441 -220 L 346 -220 L 284 -189 M 567 346 L 504 410 L 441 441 L 346 441 L 284 410 L 220 346 L 189 252 L 189 189 L 220 94.5 L 284 31.5 L 346 0 L 441 0 L 504 31.5 L 567 94.5"
           style="stroke-width:0.1951in"
           transform="matrix(0.0373333 0 0 -0.0373333 148.176 0)"
           id="path1241" />
        <path
           d="M 220 441 L 220 0 M 220 252 L 252 346 L 315 410 L 378 441 L 472 441"
           style="stroke-width:0.1951in"
           transform="matrix(0.0373333 0 0 -0.0373333 170.501 0)"
           id="path1242" />
        <path
           d="M 189 252 L 567 252 L 567 315 L 536 378 L 504 410 L 441 441 L 346 441 L 284 410 L 220 346 L 189 252 L 189 189 L 220 94.5 L 284 31.5 L 346 0 L 441 0 L 504 31.5 L 567 94.5"
           style="stroke-width:0.1951in"
           transform="matrix(0.0373333 0 0 -0.0373333 185.808 0)"
           id="path1243" />
        <path
           d="M 567 441 L 567 0 M 567 346 L 504 410 L 441 441 L 346 441 L 284 410 L 220 346 L 189 252 L 189 189 L 220 94.5 L 284 31.5 L 346 0 L 441 0 L 504 31.5 L 567 94.5"
           style="stroke-width:0.1951in"
           transform="matrix(0.0373333 0 0 -0.0373333 206.976 0)"
           id="path1244" />
        <path
           d="M 252 662 L 252 126 L 284 31.5 L 346 0 L 410 0 M 158 441 L 378 441"
           style="stroke-width:0.1951in"
           transform="matrix(0.0373333 0 0 -0.0373333 229.301 0)"
           id="path1245" />
        <path
           d="M 220 441 L 220 0 M 220 315 L 315 410 L 378 441 L 472 441 L 536 410 L 567 315 L 567 0 M 567 315 L 662 410 L 724 441 L 819 441 L 882 410 L 914 315 L 914 0"
           style="stroke-width:0.1951in"
           transform="matrix(0.0373333 0 0 -0.0373333 257.525 0)"
           id="path1246" />
        <path
           d="M 346 441 L 284 410 L 220 346 L 189 252 L 189 189 L 220 94.5 L 284 31.5 L 346 0 L 441 0 L 504 31.5 L 567 94.5 L 598 189 L 598 252 L 567 346 L 504 410 L 441 441 L 346 441"
           style="stroke-width:0.1951in"
           transform="matrix(0.0373333 0 0 -0.0373333 292.805 0)"
           id="path1247" />
        <path
           d="M 220 441 L 220 126 L 252 31.5 L 315 0 L 410 0 L 472 31.5 L 567 126 M 567 441 L 567 0"
           style="stroke-width:0.1951in"
           transform="matrix(0.0373333 0 0 -0.0373333 315.13 0)"
           id="path1248" />
        <path
           d="M 220 441 L 220 0 M 220 315 L 315 410 L 378 441 L 472 441 L 536 410 L 567 315 L 567 0"
           style="stroke-width:0.1951in"
           transform="matrix(0.0373333 0 0 -0.0373333 337.456 0)"
           id="path1249" />
        <path
           d="M 252 662 L 252 126 L 284 31.5 L 346 0 L 410 0 M 158 441 L 378 441"
           style="stroke-width:0.1951in"
           transform="matrix(0.0373333 0 0 -0.0373333 359.781 0)"
           id="path1250" />
        <path
           d="M 567 441 L 567 0 M 567 346 L 504 410 L 441 441 L 346 441 L 284 410 L 220 346 L 189 252 L 189 189 L 220 94.5 L 284 31.5 L 346 0 L 441 0 L 504 31.5 L 567 94.5"
           style="stroke-width:0.1951in"
           transform="matrix(0.0373333 0 0 -0.0373333 373.893 0)"
           id="path1251" />
        <path
           d="M 189 662 L 220 630 L 252 662 L 220 693 L 189 662 M 220 441 L 220 0"
           style="stroke-width:0.1951in"
           transform="matrix(0.0373333 0 0 -0.0373333 396.218 0)"
           id="path1252" />
        <path
           d="M 220 441 L 220 0 M 220 315 L 315 410 L 378 441 L 472 441 L 536 410 L 567 315 L 567 0"
           style="stroke-width:0.1951in"
           transform="matrix(0.0373333 0 0 -0.0373333 405.626 0)"
           id="path1253" />
        <path
           d="M 536 346 L 504 410 L 410 441 L 315 441 L 220 410 L 189 346 L 220 284 L 284 252 L 441 220 L 504 189 L 536 126 L 536 94.5 L 504 31.5 L 410 0 L 315 0 L 220 31.5 L 189 94.5"
           style="stroke-width:0.1951in"
           transform="matrix(0.0373333 0 0 -0.0373333 427.952 0)"
           id="path1254" />
        <path
           d="M 252 126 L 220 94.5 L 189 126 L 220 158 L 252 126 L 252 63 L 189 0"
           style="stroke-width:0.1951in"
           transform="matrix(0.0373333 0 0 -0.0373333 447.962 0)"
           id="path1255" />
      </g>
      <g
         transform="translate(18.3209, 458.189)"
         id="g1278">
        <path
           d="M 567 441 L 567 0 M 567 346 L 504 410 L 441 441 L 346 441 L 284 410 L 220 346 L 189 252 L 189 189 L 220 94.5 L 284 31.5 L 346 0 L 441 0 L 504 31.5 L 567 94.5"
           style="stroke-width:0.1951in"
           transform="scale(0.0373333, -0.0373333)"
           id="path1256" />
        <path
           d="M 220 441 L 220 0 M 220 315 L 315 410 L 378 441 L 472 441 L 536 410 L 567 315 L 567 0"
           style="stroke-width:0.1951in"
           transform="matrix(0.0373333 0 0 -0.0373333 22.3253 0)"
           id="path1257" />
        <path
           d="M 567 662 L 567 0 M 567 346 L 504 410 L 441 441 L 346 441 L 284 410 L 220 346 L 189 252 L 189 189 L 220 94.5 L 284 31.5 L 346 0 L 441 0 L 504 31.5 L 567 94.5"
           style="stroke-width:0.1951in"
           transform="matrix(0.0373333 0 0 -0.0373333 44.6506 0)"
           id="path1258" />
        <path
           d="M 220 662 L 220 0 M 220 315 L 315 410 L 378 441 L 472 441 L 536 410 L 567 315 L 567 0"
           style="stroke-width:0.1951in"
           transform="matrix(0.0373333 0 0 -0.0373333 81.0879 0)"
           id="path1259" />
        <path
           d="M 189 252 L 567 252 L 567 315 L 536 378 L 504 410 L 441 441 L 346 441 L 284 410 L 220 346 L 189 252 L 189 189 L 220 94.5 L 284 31.5 L 346 0 L 441 0 L 504 31.5 L 567 94.5"
           style="stroke-width:0.1951in"
           transform="matrix(0.0373333 0 0 -0.0373333 103.413 0)"
           id="path1260" />
        <path
           d="M 567 441 L 567 0 M 567 346 L 504 410 L 441 441 L 346 441 L 284 410 L 220 346 L 189 252 L 189 189 L 220 94.5 L 284 31.5 L 346 0 L 441 0 L 504 31.5 L 567 94.5"
           style="stroke-width:0.1951in"
           transform="matrix(0.0373333 0 0 -0.0373333 124.581 0)"
           id="path1261" />
        <path
           d="M 220 441 L 220 0 M 220 252 L 252 346 L 315 410 L 378 441 L 472 441"
           style="stroke-width:0.1951in"
           transform="matrix(0.0373333 0 0 -0.0373333 146.907 0)"
           id="path1262" />
        <path
           d="M 252 662 L 252 126 L 284 31.5 L 346 0 L 410 0 M 158 441 L 378 441"
           style="stroke-width:0.1951in"
           transform="matrix(0.0373333 0 0 -0.0373333 176.325 0)"
           id="path1263" />
        <path
           d="M 220 662 L 220 0 M 220 315 L 315 410 L 378 441 L 472 441 L 536 410 L 567 315 L 567 0"
           style="stroke-width:0.1951in"
           transform="matrix(0.0373333 0 0 -0.0373333 190.437 0)"
           id="path1264" />
        <path
           d="M 189 252 L 567 252 L 567 315 L 536 378 L 504 410 L 441 441 L 346 441 L 284 410 L 220 346 L 189 252 L 189 189 L 220 94.5 L 284 31.5 L 346 0 L 441 0 L 504 31.5 L 567 94.5"
           style="stroke-width:0.1951in"
           transform="matrix(0.0373333 0 0 -0.0373333 212.762 0)"
           id="path1265" />
        <path
           d="M 220 441 L 220 -220 M 220 346 L 284 410 L 346 441 L 441 441 L 504 410 L 567 346 L 598 252 L 598 189 L 567 94.5 L 504 31.5 L 441 0 L 346 0 L 284 31.5 L 220 94.5"
           style="stroke-width:0.1951in"
           transform="matrix(0.0373333 0 0 -0.0373333 248.042 0)"
           id="path1266" />
        <path
           d="M 189 662 L 220 630 L 252 662 L 220 693 L 189 662 M 220 441 L 220 0"
           style="stroke-width:0.1951in"
           transform="matrix(0.0373333 0 0 -0.0373333 270.368 0)"
           id="path1267" />
        <path
           d="M 220 441 L 220 0 M 220 315 L 315 410 L 378 441 L 472 441 L 536 410 L 567 315 L 567 0"
           style="stroke-width:0.1951in"
           transform="matrix(0.0373333 0 0 -0.0373333 279.776 0)"
           id="path1268" />
        <path
           d="M 189 252 L 567 252 L 567 315 L 536 378 L 504 410 L 441 441 L 346 441 L 284 410 L 220 346 L 189 252 L 189 189 L 220 94.5 L 284 31.5 L 346 0 L 441 0 L 504 31.5 L 567 94.5"
           style="stroke-width:0.1951in"
           transform="matrix(0.0373333 0 0 -0.0373333 302.101 0)"
           id="path1269" />
        <path
           d="M 220 284 L 788 284"
           style="stroke-width:0.1951in"
           transform="matrix(0.0373333 0 0 -0.0373333 323.269 0)"
           id="path1270" />
        <path
           d="M 252 662 L 252 126 L 284 31.5 L 346 0 L 410 0 M 158 441 L 378 441"
           style="stroke-width:0.1951in"
           transform="matrix(0.0373333 0 0 -0.0373333 353.845 0)"
           id="path1271" />
        <path
           d="M 220 441 L 220 0 M 220 252 L 252 346 L 315 410 L 378 441 L 472 441"
           style="stroke-width:0.1951in"
           transform="matrix(0.0373333 0 0 -0.0373333 367.957 0)"
           id="path1272" />
        <path
           d="M 189 252 L 567 252 L 567 315 L 536 378 L 504 410 L 441 441 L 346 441 L 284 410 L 220 346 L 189 252 L 189 189 L 220 94.5 L 284 31.5 L 346 0 L 441 0 L 504 31.5 L 567 94.5"
           style="stroke-width:0.1951in"
           transform="matrix(0.0373333 0 0 -0.0373333 383.264 0)"
           id="path1273" />
        <path
           d="M 189 252 L 567 252 L 567 315 L 536 378 L 504 410 L 441 441 L 346 441 L 284 410 L 220 346 L 189 252 L 189 189 L 220 94.5 L 284 31.5 L 346 0 L 441 0 L 504 31.5 L 567 94.5"
           style="stroke-width:0.1951in"
           transform="matrix(0.0373333 0 0 -0.0373333 404.432 0)"
           id="path1274" />
        <path
           d="M 536 346 L 504 410 L 410 441 L 315 441 L 220 410 L 189 346 L 220 284 L 284 252 L 441 220 L 504 189 L 536 126 L 536 94.5 L 504 31.5 L 410 0 L 315 0 L 220 31.5 L 189 94.5"
           style="stroke-width:0.1951in"
           transform="matrix(0.0373333 0 0 -0.0373333 425.6 0)"
           id="path1275" />
        <path
           d="M 567 441 L 567 0 M 567 346 L 504 410 L 441 441 L 346 441 L 284 410 L 220 346 L 189 252 L 189 189 L 220 94.5 L 284 31.5 L 346 0 L 441 0 L 504 31.5 L 567 94.5"
           style="stroke-width:0.1951in"
           transform="matrix(0.0373333 0 0 -0.0373333 459.722 0)"
           id="path1276" />
        <path
           d="M 220 441 L 220 0 M 220 315 L 315 410 L 378 441 L 472 441 L 536 410 L 567 315 L 567 0"
           style="stroke-width:0.1951in"
           transform="matrix(0.0373333 0 0 -0.0373333 482.048 0)"
           id="path1277" />
        <path
           d="M 567 662 L 567 0 M 567 346 L 504 410 L 441 441 L 346 441 L 284 410 L 220 346 L 189 252 L 189 189 L 220 94.5 L 284 31.5 L 346 0 L 441 0 L 504 31.5 L 567 94.5"
           style="stroke-width:0.1951in"
           transform="matrix(0.0373333 0 0 -0.0373333 504.373 0)"
           id="path1278" />
      </g>
      <g
         transform="translate(29.5318, 495.522)"
         id="g1302">
        <path
           d="M 252 662 L 252 126 L 284 31.5 L 346 0 L 410 0 M 158 441 L 378 441"
           style="stroke-width:0.1951in"
           transform="scale(0.0373333, -0.0373333)"
           id="path1279" />
        <path
           d="M 220 662 L 220 0 M 220 315 L 315 410 L 378 441 L 472 441 L 536 410 L 567 315 L 567 0"
           style="stroke-width:0.1951in"
           transform="matrix(0.0373333 0 0 -0.0373333 14.112 0)"
           id="path1280" />
        <path
           d="M 189 252 L 567 252 L 567 315 L 536 378 L 504 410 L 441 441 L 346 441 L 284 410 L 220 346 L 189 252 L 189 189 L 220 94.5 L 284 31.5 L 346 0 L 441 0 L 504 31.5 L 567 94.5"
           style="stroke-width:0.1951in"
           transform="matrix(0.0373333 0 0 -0.0373333 36.4373 0)"
           id="path1281" />
        <path
           d="M 189 441 L 315 0 M 441 441 L 315 0 M 441 441 L 567 0 M 693 441 L 567 0"
           style="stroke-width:0.1951in"
           transform="matrix(0.0373333 0 0 -0.0373333 71.7173 0)"
           id="path1282" />
        <path
           d="M 567 441 L 567 0 M 567 346 L 504 410 L 441 441 L 346 441 L 284 410 L 220 346 L 189 252 L 189 189 L 220 94.5 L 284 31.5 L 346 0 L 441 0 L 504 31.5 L 567 94.5"
           style="stroke-width:0.1951in"
           transform="matrix(0.0373333 0 0 -0.0373333 97.5892 0)"
           id="path1283" />
        <path
           d="M 252 662 L 252 126 L 284 31.5 L 346 0 L 410 0 M 158 441 L 378 441"
           style="stroke-width:0.1951in"
           transform="matrix(0.0373333 0 0 -0.0373333 119.915 0)"
           id="path1284" />
        <path
           d="M 189 252 L 567 252 L 567 315 L 536 378 L 504 410 L 441 441 L 346 441 L 284 410 L 220 346 L 189 252 L 189 189 L 220 94.5 L 284 31.5 L 346 0 L 441 0 L 504 31.5 L 567 94.5"
           style="stroke-width:0.1951in"
           transform="matrix(0.0373333 0 0 -0.0373333 134.027 0)"
           id="path1285" />
        <path
           d="M 220 441 L 220 0 M 220 252 L 252 346 L 315 410 L 378 441 L 472 441"
           style="stroke-width:0.1951in"
           transform="matrix(0.0373333 0 0 -0.0373333 155.195 0)"
           id="path1286" />
        <path
           d="M 410 662 L 346 662 L 284 630 L 252 536 L 252 0 M 158 441 L 378 441"
           style="stroke-width:0.1951in"
           transform="matrix(0.0373333 0 0 -0.0373333 170.501 0)"
           id="path1287" />
        <path
           d="M 567 441 L 567 0 M 567 346 L 504 410 L 441 441 L 346 441 L 284 410 L 220 346 L 189 252 L 189 189 L 220 94.5 L 284 31.5 L 346 0 L 441 0 L 504 31.5 L 567 94.5"
           style="stroke-width:0.1951in"
           transform="matrix(0.0373333 0 0 -0.0373333 184.613 0)"
           id="path1288" />
        <path
           d="M 220 662 L 220 0"
           style="stroke-width:0.1951in"
           transform="matrix(0.0373333 0 0 -0.0373333 206.938 0)"
           id="path1289" />
        <path
           d="M 220 662 L 220 0"
           style="stroke-width:0.1951in"
           transform="matrix(0.0373333 0 0 -0.0373333 216.346 0)"
           id="path1290" />
        <path
           d="M 536 346 L 504 410 L 410 441 L 315 441 L 220 410 L 189 346 L 220 284 L 284 252 L 441 220 L 504 189 L 536 126 L 536 94.5 L 504 31.5 L 410 0 L 315 0 L 220 31.5 L 189 94.5"
           style="stroke-width:0.1951in"
           transform="matrix(0.0373333 0 0 -0.0373333 225.754 0)"
           id="path1291" />
        <path
           d="M 252 126 L 220 94.5 L 189 126 L 220 158 L 252 126 L 252 63 L 189 0"
           style="stroke-width:0.1951in"
           transform="matrix(0.0373333 0 0 -0.0373333 245.765 0)"
           id="path1292" />
        <path
           d="M 567 441 L 567 0 M 567 346 L 504 410 L 441 441 L 346 441 L 284 410 L 220 346 L 189 252 L 189 189 L 220 94.5 L 284 31.5 L 346 0 L 441 0 L 504 31.5 L 567 94.5"
           style="stroke-width:0.1951in"
           transform="matrix(0.0373333 0 0 -0.0373333 269.285 0)"
           id="path1293" />
        <path
           d="M 220 441 L 220 0 M 220 315 L 315 410 L 378 441 L 472 441 L 536 410 L 567 315 L 567 0"
           style="stroke-width:0.1951in"
           transform="matrix(0.0373333 0 0 -0.0373333 291.61 0)"
           id="path1294" />
        <path
           d="M 567 662 L 567 0 M 567 346 L 504 410 L 441 441 L 346 441 L 284 410 L 220 346 L 189 252 L 189 189 L 220 94.5 L 284 31.5 L 346 0 L 441 0 L 504 31.5 L 567 94.5"
           style="stroke-width:0.1951in"
           transform="matrix(0.0373333 0 0 -0.0373333 313.936 0)"
           id="path1295" />
        <path
           d="M 189 252 L 567 252 L 567 315 L 536 378 L 504 410 L 441 441 L 346 441 L 284 410 L 220 346 L 189 252 L 189 189 L 220 94.5 L 284 31.5 L 346 0 L 441 0 L 504 31.5 L 567 94.5"
           style="stroke-width:0.1951in"
           transform="matrix(0.0373333 0 0 -0.0373333 350.373 0)"
           id="path1296" />
        <path
           d="M 189 441 L 536 0 M 536 441 L 189 0"
           style="stroke-width:0.1951in"
           transform="matrix(0.0373333 0 0 -0.0373333 371.541 0)"
           id="path1297" />
        <path
           d="M 220 441 L 220 -220 M 220 346 L 284 410 L 346 441 L 441 441 L 504 410 L 567 346 L 598 252 L 598 189 L 567 94.5 L 504 31.5 L 441 0 L 346 0 L 284 31.5 L 220 94.5"
           style="stroke-width:0.1951in"
           transform="matrix(0.0373333 0 0 -0.0373333 391.552 0)"
           id="path1298" />
        <path
           d="M 220 662 L 220 0"
           style="stroke-width:0.1951in"
           transform="matrix(0.0373333 0 0 -0.0373333 413.877 0)"
           id="path1299" />
        <path
           d="M 346 441 L 284 410 L 220 346 L 189 252 L 189 189 L 220 94.5 L 284 31.5 L 346 0 L 441 0 L 504 31.5 L 567 94.5 L 598 189 L 598 252 L 567 346 L 504 410 L 441 441 L 346 441"
           style="stroke-width:0.1951in"
           transform="matrix(0.0373333 0 0 -0.0373333 423.285 0)"
           id="path1300" />
        <path
           d="M 220 441 L 220 0 M 220 252 L 252 346 L 315 410 L 378 441 L 472 441"
           style="stroke-width:0.1951in"
           transform="matrix(0.0373333 0 0 -0.0373333 445.61 0)"
           id="path1301" />
        <path
           d="M 189 252 L 567 252 L 567 315 L 536 378 L 504 410 L 441 441 L 346 441 L 284 410 L 220 346 L 189 252 L 189 189 L 220 94.5 L 284 31.5 L 346 0 L 441 0 L 504 31.5 L 567 94.5"
           style="stroke-width:0.1951in"
           transform="matrix(0.0373333 0 0 -0.0373333 460.917 0)"
           id="path1302" />
      </g>
      <g
         transform="translate(73.0357, 532.856)"
         id="g1319">
        <path
           d="M 252 662 L 252 126 L 284 31.5 L 346 0 L 410 0 M 158 441 L 378 441"
           style="stroke-width:0.1951in"
           transform="scale(0.0373333, -0.0373333)"
           id="path1303" />
        <path
           d="M 220 662 L 220 0 M 220 315 L 315 410 L 378 441 L 472 441 L 536 410 L 567 315 L 567 0"
           style="stroke-width:0.1951in"
           transform="matrix(0.0373333 0 0 -0.0373333 14.112 0)"
           id="path1304" />
        <path
           d="M 189 252 L 567 252 L 567 315 L 536 378 L 504 410 L 441 441 L 346 441 L 284 410 L 220 346 L 189 252 L 189 189 L 220 94.5 L 284 31.5 L 346 0 L 441 0 L 504 31.5 L 567 94.5"
           style="stroke-width:0.1951in"
           transform="matrix(0.0373333 0 0 -0.0373333 36.4373 0)"
           id="path1305" />
        <path
           d="M 567 346 L 504 410 L 441 441 L 346 441 L 284 410 L 220 346 L 189 252 L 189 189 L 220 94.5 L 284 31.5 L 346 0 L 441 0 L 504 31.5 L 567 94.5"
           style="stroke-width:0.1951in"
           transform="matrix(0.0373333 0 0 -0.0373333 71.7173 0)"
           id="path1306" />
        <path
           d="M 567 441 L 567 0 M 567 346 L 504 410 L 441 441 L 346 441 L 284 410 L 220 346 L 189 252 L 189 189 L 220 94.5 L 284 31.5 L 346 0 L 441 0 L 504 31.5 L 567 94.5"
           style="stroke-width:0.1951in"
           transform="matrix(0.0373333 0 0 -0.0373333 92.8853 0)"
           id="path1307" />
        <path
           d="M 158 441 L 346 0 M 536 441 L 346 0"
           style="stroke-width:0.1951in"
           transform="matrix(0.0373333 0 0 -0.0373333 115.211 0)"
           id="path1308" />
        <path
           d="M 189 252 L 567 252 L 567 315 L 536 378 L 504 410 L 441 441 L 346 441 L 284 410 L 220 346 L 189 252 L 189 189 L 220 94.5 L 284 31.5 L 346 0 L 441 0 L 504 31.5 L 567 94.5"
           style="stroke-width:0.1951in"
           transform="matrix(0.0373333 0 0 -0.0373333 134.027 0)"
           id="path1309" />
        <path
           d="M 536 346 L 504 410 L 410 441 L 315 441 L 220 410 L 189 346 L 220 284 L 284 252 L 441 220 L 504 189 L 536 126 L 536 94.5 L 504 31.5 L 410 0 L 315 0 L 220 31.5 L 189 94.5"
           style="stroke-width:0.1951in"
           transform="matrix(0.0373333 0 0 -0.0373333 155.195 0)"
           id="path1310" />
        <path
           d="M 252 126 L 220 94.5 L 189 126 L 220 158 L 252 126 L 252 63 L 189 0"
           style="stroke-width:0.1951in"
           transform="matrix(0.0373333 0 0 -0.0373333 175.205 0)"
           id="path1311" />
        <path
           d="M 567 441 L 567 0 M 567 346 L 504 410 L 441 441 L 346 441 L 284 410 L 220 346 L 189 252 L 189 189 L 220 94.5 L 284 31.5 L 346 0 L 441 0 L 504 31.5 L 567 94.5"
           style="stroke-width:0.1951in"
           transform="matrix(0.0373333 0 0 -0.0373333 198.725 0)"
           id="path1312" />
        <path
           d="M 220 441 L 220 0 M 220 315 L 315 410 L 378 441 L 472 441 L 536 410 L 567 315 L 567 0"
           style="stroke-width:0.1951in"
           transform="matrix(0.0373333 0 0 -0.0373333 221.05 0)"
           id="path1313" />
        <path
           d="M 567 662 L 567 0 M 567 346 L 504 410 L 441 441 L 346 441 L 284 410 L 220 346 L 189 252 L 189 189 L 220 94.5 L 284 31.5 L 346 0 L 441 0 L 504 31.5 L 567 94.5"
           style="stroke-width:0.1951in"
           transform="matrix(0.0373333 0 0 -0.0373333 243.376 0)"
           id="path1314" />
        <path
           d="M 189 441 L 315 0 M 441 441 L 315 0 M 441 441 L 567 0 M 693 441 L 567 0"
           style="stroke-width:0.1951in"
           transform="matrix(0.0373333 0 0 -0.0373333 279.813 0)"
           id="path1315" />
        <path
           d="M 189 252 L 567 252 L 567 315 L 536 378 L 504 410 L 441 441 L 346 441 L 284 410 L 220 346 L 189 252 L 189 189 L 220 94.5 L 284 31.5 L 346 0 L 441 0 L 504 31.5 L 567 94.5"
           style="stroke-width:0.1951in"
           transform="matrix(0.0373333 0 0 -0.0373333 305.685 0)"
           id="path1316" />
        <path
           d="M 567 441 L 567 0 M 567 346 L 504 410 L 441 441 L 346 441 L 284 410 L 220 346 L 189 252 L 189 189 L 220 94.5 L 284 31.5 L 346 0 L 441 0 L 504 31.5 L 567 94.5"
           style="stroke-width:0.1951in"
           transform="matrix(0.0373333 0 0 -0.0373333 326.853 0)"
           id="path1317" />
        <path
           d="M 220 441 L 220 0 M 220 252 L 252 346 L 315 410 L 378 441 L 472 441"
           style="stroke-width:0.1951in"
           transform="matrix(0.0373333 0 0 -0.0373333 349.178 0)"
           id="path1318" />
        <path
           d="M 567 441 L 567 0 M 567 346 L 504 410 L 441 441 L 346 441 L 284 410 L 220 346 L 189 252 L 189 189 L 220 94.5 L 284 31.5 L 346 0 L 441 0 L 504 31.5 L 567 94.5"
           style="stroke-width:0.1951in"
           transform="matrix(0.0373333 0 0 -0.0373333 378.597 0)"
           id="path1319" />
      </g>
      <g
         transform="translate(23.8078, 570.189)"
         id="g1342">
        <path
           d="M 536 346 L 504 410 L 410 441 L 315 441 L 220 410 L 189 346 L 220 284 L 284 252 L 441 220 L 504 189 L 536 126 L 536 94.5 L 504 31.5 L 410 0 L 315 0 L 220 31.5 L 189 94.5"
           style="stroke-width:0.1951in"
           transform="scale(0.0373333, -0.0373333)"
           id="path1320" />
        <path
           d="M 189 441 L 315 0 M 441 441 L 315 0 M 441 441 L 567 0 M 693 441 L 567 0"
           style="stroke-width:0.1951in"
           transform="matrix(0.0373333 0 0 -0.0373333 20.0106 0)"
           id="path1321" />
        <path
           d="M 346 441 L 284 410 L 220 346 L 189 252 L 189 189 L 220 94.5 L 284 31.5 L 346 0 L 441 0 L 504 31.5 L 567 94.5 L 598 189 L 598 252 L 567 346 L 504 410 L 441 441 L 346 441"
           style="stroke-width:0.1951in"
           transform="matrix(0.0373333 0 0 -0.0373333 45.8826 0)"
           id="path1322" />
        <path
           d="M 220 441 L 220 0 M 220 252 L 252 346 L 315 410 L 378 441 L 472 441"
           style="stroke-width:0.1951in"
           transform="matrix(0.0373333 0 0 -0.0373333 68.2079 0)"
           id="path1323" />
        <path
           d="M 567 662 L 567 0 M 567 346 L 504 410 L 441 441 L 346 441 L 284 410 L 220 346 L 189 252 L 189 189 L 220 94.5 L 284 31.5 L 346 0 L 441 0 L 504 31.5 L 567 94.5"
           style="stroke-width:0.1951in"
           transform="matrix(0.0373333 0 0 -0.0373333 83.5146 0)"
           id="path1324" />
        <path
           d="M 189 662 L 220 630 L 252 662 L 220 693 L 189 662 M 220 441 L 220 0"
           style="stroke-width:0.1951in"
           transform="matrix(0.0373333 0 0 -0.0373333 119.952 0)"
           id="path1325" />
        <path
           d="M 220 441 L 220 0 M 220 315 L 315 410 L 378 441 L 472 441 L 536 410 L 567 315 L 567 0"
           style="stroke-width:0.1951in"
           transform="matrix(0.0373333 0 0 -0.0373333 129.36 0)"
           id="path1326" />
        <path
           d="M 536 346 L 504 410 L 410 441 L 315 441 L 220 410 L 189 346 L 220 284 L 284 252 L 441 220 L 504 189 L 536 126 L 536 94.5 L 504 31.5 L 410 0 L 315 0 L 220 31.5 L 189 94.5"
           style="stroke-width:0.1951in"
           transform="matrix(0.0373333 0 0 -0.0373333 151.685 0)"
           id="path1327" />
        <path
           d="M 252 662 L 252 126 L 284 31.5 L 346 0 L 410 0 M 158 441 L 378 441"
           style="stroke-width:0.1951in"
           transform="matrix(0.0373333 0 0 -0.0373333 171.696 0)"
           id="path1328" />
        <path
           d="M 189 252 L 567 252 L 567 315 L 536 378 L 504 410 L 441 441 L 346 441 L 284 410 L 220 346 L 189 252 L 189 189 L 220 94.5 L 284 31.5 L 346 0 L 441 0 L 504 31.5 L 567 94.5"
           style="stroke-width:0.1951in"
           transform="matrix(0.0373333 0 0 -0.0373333 185.808 0)"
           id="path1329" />
        <path
           d="M 567 441 L 567 0 M 567 346 L 504 410 L 441 441 L 346 441 L 284 410 L 220 346 L 189 252 L 189 189 L 220 94.5 L 284 31.5 L 346 0 L 441 0 L 504 31.5 L 567 94.5"
           style="stroke-width:0.1951in"
           transform="matrix(0.0373333 0 0 -0.0373333 206.976 0)"
           id="path1330" />
        <path
           d="M 567 662 L 567 0 M 567 346 L 504 410 L 441 441 L 346 441 L 284 410 L 220 346 L 189 252 L 189 189 L 220 94.5 L 284 31.5 L 346 0 L 441 0 L 504 31.5 L 567 94.5"
           style="stroke-width:0.1951in"
           transform="matrix(0.0373333 0 0 -0.0373333 229.301 0)"
           id="path1331" />
        <path
           d="M 346 441 L 284 410 L 220 346 L 189 252 L 189 189 L 220 94.5 L 284 31.5 L 346 0 L 441 0 L 504 31.5 L 567 94.5 L 598 189 L 598 252 L 567 346 L 504 410 L 441 441 L 346 441"
           style="stroke-width:0.1951in"
           transform="matrix(0.0373333 0 0 -0.0373333 265.738 0)"
           id="path1332" />
        <path
           d="M 410 662 L 346 662 L 284 630 L 252 536 L 252 0 M 158 441 L 378 441"
           style="stroke-width:0.1951in"
           transform="matrix(0.0373333 0 0 -0.0373333 288.064 0)"
           id="path1333" />
        <path
           d="M 567 441 L 567 0 M 567 346 L 504 410 L 441 441 L 346 441 L 284 410 L 220 346 L 189 252 L 189 189 L 220 94.5 L 284 31.5 L 346 0 L 441 0 L 504 31.5 L 567 94.5"
           style="stroke-width:0.1951in"
           transform="matrix(0.0373333 0 0 -0.0373333 316.288 0)"
           id="path1334" />
        <path
           d="M 189 441 L 315 0 M 441 441 L 315 0 M 441 441 L 567 0 M 693 441 L 567 0"
           style="stroke-width:0.1951in"
           transform="matrix(0.0373333 0 0 -0.0373333 352.725 0)"
           id="path1335" />
        <path
           d="M 567 441 L 567 0 M 567 346 L 504 410 L 441 441 L 346 441 L 284 410 L 220 346 L 189 252 L 189 189 L 220 94.5 L 284 31.5 L 346 0 L 441 0 L 504 31.5 L 567 94.5"
           style="stroke-width:0.1951in"
           transform="matrix(0.0373333 0 0 -0.0373333 378.597 0)"
           id="path1336" />
        <path
           d="M 220 662 L 220 0"
           style="stroke-width:0.1951in"
           transform="matrix(0.0373333 0 0 -0.0373333 400.922 0)"
           id="path1337" />
        <path
           d="M 220 662 L 220 0 M 536 441 L 220 126 M 346 252 L 567 0"
           style="stroke-width:0.1951in"
           transform="matrix(0.0373333 0 0 -0.0373333 410.33 0)"
           id="path1338" />
        <path
           d="M 189 662 L 220 630 L 252 662 L 220 693 L 189 662 M 220 441 L 220 0"
           style="stroke-width:0.1951in"
           transform="matrix(0.0373333 0 0 -0.0373333 430.341 0)"
           id="path1339" />
        <path
           d="M 220 441 L 220 0 M 220 315 L 315 410 L 378 441 L 472 441 L 536 410 L 567 315 L 567 0"
           style="stroke-width:0.1951in"
           transform="matrix(0.0373333 0 0 -0.0373333 439.749 0)"
           id="path1340" />
        <path
           d="M 567 441 L 567 -63 L 536 -158 L 504 -189 L 441 -220 L 346 -220 L 284 -189 M 567 346 L 504 410 L 441 441 L 346 441 L 284 410 L 220 346 L 189 252 L 189 189 L 220 94.5 L 284 31.5 L 346 0 L 441 0 L 504 31.5 L 567 94.5"
           style="stroke-width:0.1951in"
           transform="matrix(0.0373333 0 0 -0.0373333 462.074 0)"
           id="path1341" />
        <path
           d="M 220 284 L 788 284"
           style="stroke-width:0.1951in"
           transform="matrix(0.0373333 0 0 -0.0373333 484.4 0)"
           id="path1342" />
      </g>
      <g
         transform="translate(220.81, 607.522)"
         id="g1349">
        <path
           d="M 536 346 L 504 410 L 410 441 L 315 441 L 220 410 L 189 346 L 220 284 L 284 252 L 441 220 L 504 189 L 536 126 L 536 94.5 L 504 31.5 L 410 0 L 315 0 L 220 31.5 L 189 94.5"
           style="stroke-width:0.1951in"
           transform="scale(0.0373333, -0.0373333)"
           id="path1343" />
        <path
           d="M 252 662 L 252 126 L 284 31.5 L 346 0 L 410 0 M 158 441 L 378 441"
           style="stroke-width:0.1951in"
           transform="matrix(0.0373333 0 0 -0.0373333 20.0106 0)"
           id="path1344" />
        <path
           d="M 189 662 L 220 630 L 252 662 L 220 693 L 189 662 M 220 441 L 220 0"
           style="stroke-width:0.1951in"
           transform="matrix(0.0373333 0 0 -0.0373333 34.1226 0)"
           id="path1345" />
        <path
           d="M 567 346 L 504 410 L 441 441 L 346 441 L 284 410 L 220 346 L 189 252 L 189 189 L 220 94.5 L 284 31.5 L 346 0 L 441 0 L 504 31.5 L 567 94.5"
           style="stroke-width:0.1951in"
           transform="matrix(0.0373333 0 0 -0.0373333 43.5306 0)"
           id="path1346" />
        <path
           d="M 220 662 L 220 0 M 536 441 L 220 126 M 346 252 L 567 0"
           style="stroke-width:0.1951in"
           transform="matrix(0.0373333 0 0 -0.0373333 64.6986 0)"
           id="path1347" />
        <path
           d="M 220 158 L 189 126 L 220 94.5 L 252 126 L 220 158"
           style="stroke-width:0.1951in"
           transform="matrix(0.0373333 0 0 -0.0373333 84.7093 0)"
           id="path1348" />
        <path
           d="M 184 567 L 170 595 L 184 624 L 198 595 L 198 539 L 184 482 L 170 454 M 326 567 L 312 595 L 326 624 L 340 595 L 340 539 L 326 482 L 312 454"
           style="stroke-width:0.1951in"
           transform="matrix(0.0373333 0 0 -0.0373333 94.1172 0)"
           id="path1349" />
      </g>
      <g
         transform="translate(279.718, 644.856)"
         id="g1350" />
      <g
         transform="translate(34.8729, 682.189)"
         id="g1373">
        <path
           d="M 220 284 L 788 284"
           style="stroke-width:0.1951in"
           transform="scale(0.0373333, -0.0373333)"
           id="path1350" />
        <path
           d="M 472 662 L 472 158 L 441 63 L 410 31.5 L 346 0 L 284 0 L 220 31.5 L 189 63 L 158 158 L 158 220"
           style="stroke-width:0.1951in"
           transform="matrix(0.0373333 0 0 -0.0373333 44.688 0)"
           id="path1351" />
        <path
           d="M 220 158 L 189 126 L 220 94.5 L 252 126 L 220 158"
           style="stroke-width:0.1951in"
           transform="matrix(0.0373333 0 0 -0.0373333 63.5039 0)"
           id="path1352" />
        <path
           d="M 220 662 L 220 0 M 220 662 L 504 662 L 598 630 L 630 598 L 662 536 L 662 472 L 630 410 L 598 378 L 504 346 L 220 346 M 441 346 L 662 0"
           style="stroke-width:0.1951in"
           transform="matrix(0.0373333 0 0 -0.0373333 72.9119 0)"
           id="path1353" />
        <path
           d="M 220 158 L 189 126 L 220 94.5 L 252 126 L 220 158"
           style="stroke-width:0.1951in"
           transform="matrix(0.0373333 0 0 -0.0373333 97.6266 0)"
           id="path1354" />
        <path
           d="M 220 662 L 220 0 M 220 662 L 504 662 L 598 630 L 630 598 L 662 536 L 662 472 L 630 410 L 598 378 L 504 346 L 220 346 M 441 346 L 662 0"
           style="stroke-width:0.1951in"
           transform="matrix(0.0373333 0 0 -0.0373333 107.035 0)"
           id="path1355" />
        <path
           d="M 220 158 L 189 126 L 220 94.5 L 252 126 L 220 158"
           style="stroke-width:0.1951in"
           transform="matrix(0.0373333 0 0 -0.0373333 131.749 0)"
           id="path1356" />
        <path
           d="M 346 662 L 346 0 M 126 662 L 567 662"
           style="stroke-width:0.1951in"
           transform="matrix(0.0373333 0 0 -0.0373333 155.269 0)"
           id="path1357" />
        <path
           d="M 346 441 L 284 410 L 220 346 L 189 252 L 189 189 L 220 94.5 L 284 31.5 L 346 0 L 441 0 L 504 31.5 L 567 94.5 L 598 189 L 598 252 L 567 346 L 504 410 L 441 441 L 346 441"
           style="stroke-width:0.1951in"
           transform="matrix(0.0373333 0 0 -0.0373333 174.085 0)"
           id="path1358" />
        <path
           d="M 220 662 L 220 0"
           style="stroke-width:0.1951in"
           transform="matrix(0.0373333 0 0 -0.0373333 196.41 0)"
           id="path1359" />
        <path
           d="M 220 662 L 220 0 M 536 441 L 220 126 M 346 252 L 567 0"
           style="stroke-width:0.1951in"
           transform="matrix(0.0373333 0 0 -0.0373333 205.818 0)"
           id="path1360" />
        <path
           d="M 189 662 L 220 630 L 252 662 L 220 693 L 189 662 M 220 441 L 220 0"
           style="stroke-width:0.1951in"
           transform="matrix(0.0373333 0 0 -0.0373333 225.829 0)"
           id="path1361" />
        <path
           d="M 189 252 L 567 252 L 567 315 L 536 378 L 504 410 L 441 441 L 346 441 L 284 410 L 220 346 L 189 252 L 189 189 L 220 94.5 L 284 31.5 L 346 0 L 441 0 L 504 31.5 L 567 94.5"
           style="stroke-width:0.1951in"
           transform="matrix(0.0373333 0 0 -0.0373333 235.237 0)"
           id="path1362" />
        <path
           d="M 220 441 L 220 0 M 220 315 L 315 410 L 378 441 L 472 441 L 536 410 L 567 315 L 567 0"
           style="stroke-width:0.1951in"
           transform="matrix(0.0373333 0 0 -0.0373333 256.405 0)"
           id="path1363" />
        <path
           d="M 252 126 L 220 94.5 L 189 126 L 220 158 L 252 126 L 252 63 L 189 0"
           style="stroke-width:0.1951in"
           transform="matrix(0.0373333 0 0 -0.0373333 278.73 0)"
           id="path1364" />
        <path
           d="M 346 662 L 346 0 M 126 662 L 567 662"
           style="stroke-width:0.1951in"
           transform="matrix(0.0373333 0 0 -0.0373333 302.25 0)"
           id="path1365" />
        <path
           d="M 220 662 L 220 0 M 220 315 L 315 410 L 378 441 L 472 441 L 536 410 L 567 315 L 567 0"
           style="stroke-width:0.1951in"
           transform="matrix(0.0373333 0 0 -0.0373333 321.066 0)"
           id="path1366" />
        <path
           d="M 189 252 L 567 252 L 567 315 L 536 378 L 504 410 L 441 441 L 346 441 L 284 410 L 220 346 L 189 252 L 189 189 L 220 94.5 L 284 31.5 L 346 0 L 441 0 L 504 31.5 L 567 94.5"
           style="stroke-width:0.1951in"
           transform="matrix(0.0373333 0 0 -0.0373333 343.392 0)"
           id="path1367" />
        <path
           d="M 220 662 L 220 0 M 662 662 L 662 0 M 220 346 L 662 346"
           style="stroke-width:0.1951in"
           transform="matrix(0.0373333 0 0 -0.0373333 378.672 0)"
           id="path1368" />
        <path
           d="M 346 441 L 284 410 L 220 346 L 189 252 L 189 189 L 220 94.5 L 284 31.5 L 346 0 L 441 0 L 504 31.5 L 567 94.5 L 598 189 L 598 252 L 567 346 L 504 410 L 441 441 L 346 441"
           style="stroke-width:0.1951in"
           transform="matrix(0.0373333 0 0 -0.0373333 404.544 0)"
           id="path1369" />
        <path
           d="M 220 662 L 220 0 M 220 346 L 284 410 L 346 441 L 441 441 L 504 410 L 567 346 L 598 252 L 598 189 L 567 94.5 L 504 31.5 L 441 0 L 346 0 L 284 31.5 L 220 94.5"
           style="stroke-width:0.1951in"
           transform="matrix(0.0373333 0 0 -0.0373333 426.869 0)"
           id="path1370" />
        <path
           d="M 220 662 L 220 0 M 220 346 L 284 410 L 346 441 L 441 441 L 504 410 L 567 346 L 598 252 L 598 189 L 567 94.5 L 504 31.5 L 441 0 L 346 0 L 284 31.5 L 220 94.5"
           style="stroke-width:0.1951in"
           transform="matrix(0.0373333 0 0 -0.0373333 449.194 0)"
           id="path1371" />
        <path
           d="M 189 662 L 220 630 L 252 662 L 220 693 L 189 662 M 220 441 L 220 0"
           style="stroke-width:0.1951in"
           transform="matrix(0.0373333 0 0 -0.0373333 471.52 0)"
           id="path1372" />
        <path
           d="M 252 662 L 252 126 L 284 31.5 L 346 0 L 410 0 M 158 441 L 378 441"
           style="stroke-width:0.1951in"
           transform="matrix(0.0373333 0 0 -0.0373333 480.928 0)"
           id="path1373" />
      </g>
    </g>
  </g>
</svg>
